<svg width="318" height="268" viewBox="0 0 318 268" fill="none" xmlns="http://www.w3.org/2000/svg">
<path fill-rule="evenodd" clip-rule="evenodd" d="M266.379 0.0452224C264.593 -0.165715 263.148 0.397029 261.618 0.992366L261.602 0.998958L261.593 1.00262L261.584 1.00628C260.622 1.38067 259.632 1.76544 258.536 1.95721C257.011 6.43243 252.903 10.4448 248.079 9.2724C246.991 9.00738 246.213 8.57318 245.461 8.15338L245.441 8.14202C244.562 7.64886 243.734 7.18365 242.436 7.02093C240.545 6.78363 238.742 6.35565 236.998 5.94158C235.679 5.62762 234.432 5.33221 233.153 5.11358C231.041 4.75299 226.835 5.14849 225.296 6.55804C224.565 7.22821 224.151 8.18536 223.714 9.19854L223.709 9.20733C223.142 10.5214 222.556 11.8775 221.227 12.8428C219.246 14.2825 216.694 14.657 214.224 15.0176C212.615 15.2525 211.093 15.4758 209.798 15.9759C206.179 17.3669 204.716 20.3278 205.786 24.1005C205.993 24.8285 206.518 25.666 207.077 26.5521C207.867 27.8082 208.686 29.1083 208.728 30.3597C208.795 32.3438 207.567 33.3277 206.269 34.3674L206.226 34.402C205.735 34.796 205.227 35.2029 204.746 35.6978L204.666 35.7792C202.822 37.6656 201.08 39.4496 201.599 41.9501C201.643 42.1617 201.72 42.3643 201.818 42.5627C201.872 42.67 201.932 42.7761 201.996 42.8815C202.144 43.1247 202.318 43.3652 202.496 43.6121L202.499 43.6154C203.029 44.3505 203.632 45.1855 203.639 46.2857C203.662 49.8816 199.498 51.4889 195.472 53.0427L195.456 53.0489C193.13 53.9472 190.731 54.8738 189.52 56.113C188.375 57.2829 186.815 59.8484 188.234 62.0302C188.722 62.7816 189.636 62.9815 190.695 63.2118C191.415 63.3676 192.162 63.5305 192.82 63.898C195.912 65.6192 197.287 68.3755 196.905 72.0925L196.847 72.6553L195.128 72.4087L195.123 72.408C190.811 71.764 184.3 70.7909 181.912 74.6044C180.977 76.0961 181.081 76.5154 181.424 77.903L181.426 77.9074C181.509 78.2422 181.602 78.6214 181.695 79.0657C182.391 82.4336 181.393 84.2829 180.014 86.8414C179.899 87.0528 179.783 87.27 179.664 87.4938C179.567 87.6747 179.469 87.8602 179.371 88.0506L179.171 88.4401C179.106 88.5678 179.041 88.6978 178.977 88.8301C177.946 90.9305 176.971 92.9146 174.303 93.831C173.22 94.2032 172.094 94.3985 171.003 94.587C169.886 94.78 168.832 94.9637 167.816 95.3196C167.743 95.3455 167.666 95.3694 167.59 95.3929C167.481 95.4262 167.371 95.4585 167.263 95.4941C168.535 96.2267 170.214 96.3965 171.982 96.564C174.431 96.7966 176.967 97.0385 178.702 98.855C179.202 99.3808 179.6 99.9739 179.983 100.551L179.989 100.56C180.553 101.403 181.084 102.2 181.912 102.76C182.728 103.316 185.584 104.689 186.124 104.596C186.529 104.496 186.638 104.23 186.829 103.554L186.834 103.532C186.942 103.152 187.064 102.721 187.343 102.367C188.39 101.037 189.964 100.141 192.025 99.7087C194.267 99.2388 196.7 99.3482 199.057 99.4551C200.287 99.511 201.45 99.5645 202.585 99.5389C204.446 99.497 204.501 99.2971 204.625 98.8597L204.626 98.8523C204.757 98.3873 204.954 97.688 205.941 96.9129C207.323 95.8265 209.492 95.7618 211.593 95.6992L211.605 95.6988C214.257 95.622 216.762 95.5499 217.599 93.6332C217.855 93.0495 217.727 92.1749 217.602 91.3259C217.469 90.4304 217.334 89.5047 217.583 88.6976C217.836 87.8765 218.244 87.409 218.639 86.9554C218.811 86.7576 218.995 86.5484 219.181 86.2901C219.35 86.0543 219.513 85.7969 219.676 85.5254C219.794 85.3289 219.913 85.1249 220.035 84.9161L220.051 84.8887L220.09 84.8201L220.105 84.7949C220.623 83.9003 221.16 82.9761 221.846 82.2941C222.765 81.3824 223.819 80.9152 224.748 80.5033L224.752 80.5015L224.77 80.4938C226.207 79.8588 227.248 79.4006 227.58 77.6933C227.814 76.4921 227.68 74.9498 227.538 73.3187V73.3135C227.236 69.8386 226.896 65.8984 230.262 64.2515C231.057 63.8631 233.535 63.2258 234.676 64.0283C235.337 64.4911 235.439 65.1493 235.523 65.6796C235.574 66.0076 235.619 66.2914 235.774 66.5124C236.24 67.1729 236.837 67.5381 237.554 67.601C238.684 67.7056 240.096 67.0334 241.319 65.8169L241.638 65.4982C243.618 63.5189 245.183 61.9557 248.642 61.8395C249.256 61.8185 249.856 61.9744 250.435 62.1255C250.73 62.202 251.016 62.2769 251.284 62.322C251.385 62.3389 251.483 62.3517 251.579 62.3587C251.701 62.3675 251.817 62.3669 251.928 62.3536C252.707 62.2652 252.777 62.1745 252.894 62.0233C253.084 61.7743 253.298 61.5278 253.84 61.2534C258.934 58.6645 262.679 59.4647 266.368 63.926C266.61 64.2166 266.85 64.5236 267.091 64.8354C268.224 66.2914 269.396 67.7963 271.129 68.0801C274.039 68.5589 276.746 66.8711 279.364 65.2394L279.37 65.2354C280.819 64.3306 282.189 63.4747 283.613 62.9444C283.815 62.8693 284.023 62.7991 284.235 62.7337C284.65 62.6056 285.081 62.496 285.52 62.4035C285.914 62.3207 286.313 62.2516 286.713 62.1954C286.56 62.1472 286.407 62.1009 286.253 62.0546C285.368 61.7888 284.484 61.5229 283.768 60.8788C282.873 60.0738 282.75 59.4456 282.582 58.5922L282.581 58.5875C282.497 58.1623 282.403 57.6812 282.196 57.0945C281.554 55.2778 280.4 54.6801 279.262 54.0906C278.137 53.508 277.028 52.9335 276.444 51.1982C275.708 50.6463 275.794 50.199 275.931 49.4855L275.962 49.3211C275.995 49.1481 276.027 48.9974 276.056 48.8631C276.222 48.0856 276.271 47.8588 275.497 47.0417C275.46 47.0019 275.411 46.9575 275.352 46.9095C275.301 46.8669 275.243 46.8216 275.181 46.7743L274.984 46.6265C274.651 46.378 274.283 46.1036 274.19 45.9042C274.1 45.7057 274.06 45.566 274.058 45.4554C274.055 45.3489 274.087 45.2693 274.14 45.1902C274.173 45.1413 274.214 45.0925 274.26 45.0377C274.292 44.9993 274.327 44.9579 274.363 44.9116C274.396 44.8692 274.431 44.8226 274.466 44.7701C274.518 44.6922 274.57 44.6014 274.621 44.4924C275.093 43.4805 274.907 42.813 274.523 41.7408C273.315 41.7314 271.483 41.6617 270.466 40.9034C270.094 40.6264 269.822 40.2332 269.549 39.8389C269.315 39.5015 269.081 39.1631 268.782 38.8961C268.597 38.7298 268.401 38.5728 268.208 38.4186C267.253 37.6536 266.385 36.9573 267.275 35.5444C267.905 34.5464 268.859 34.7116 269.796 35.1419L270.007 35.2392C271.356 35.8626 272.268 36.2841 273.832 35.5606C275.154 34.9493 275.069 33.8154 274.969 32.4747L274.96 32.3484L274.958 32.3199V32.3108C274.909 31.6696 274.791 30.1301 274.383 29.6992C274.033 29.327 273.444 29.2269 272.847 29.1253C272.607 29.0844 272.365 29.0433 272.137 28.9841C271.809 28.899 271.51 28.7767 271.283 28.564C271.961 28.3338 271.791 27.7182 271.637 27.1622C271.61 27.0644 271.583 26.9683 271.562 26.8766C271.544 26.7999 271.53 26.7261 271.522 26.6568C270.72 26.4366 269.87 26.7556 269.011 27.0774C268.193 27.3845 267.367 27.694 266.57 27.5407L266.566 27.4114L266.563 27.2117C266.558 26.8373 266.553 26.4601 266.44 26.1078C266.688 25.9438 266.987 25.7252 267.315 25.4853C268.375 24.7088 269.739 23.7103 270.692 23.6214C271.221 23.5729 271.6 23.8692 271.975 24.1623C272.051 24.2223 272.128 24.2823 272.206 24.339C272.295 24.404 272.385 24.4647 272.478 24.5169C273.537 25.1054 275.164 25.8543 276.307 25.4101C278.086 24.717 279.742 23.2608 279.416 21.2559C279.317 20.6395 278.814 18.6531 278.27 18.2252C277.861 17.9029 277.201 17.9445 276.595 17.9827L276.59 17.9831L276.329 17.9983C276.232 18.0031 276.139 18.0064 276.049 18.0064C275.881 18.0064 275.633 18.0306 275.349 18.0583C274.537 18.1374 273.425 18.2457 273.027 17.9064C272.776 17.6922 272.769 17.3602 272.763 17.0328C272.759 16.8377 272.755 16.6442 272.699 16.4783C272.394 15.5593 271.67 15.1649 270.946 14.7701C270.425 14.4865 269.904 14.2028 269.538 13.7243C268.817 12.7823 269.62 10.3354 270.645 9.91436C271.75 9.45953 272.644 10.2462 273.467 10.9699C273.583 11.0727 273.699 11.1743 273.813 11.2707L273.943 11.3788C274.177 11.5683 274.407 11.7306 274.637 11.8333C275.74 11.6105 276.22 12.2254 276.712 12.8563C277.109 13.3649 277.514 13.8838 278.261 13.9825C281.567 10.5226 279.405 8.9367 277.315 7.40435C275.594 6.1419 273.922 4.91595 275.4 2.70855C274.685 2.19683 273.99 1.80841 273.346 1.62933L273.186 1.58526C271.383 1.08782 268.504 0.293635 266.379 0.0452224ZM279.944 66.168L279.937 66.1728C277.151 67.9134 274.271 69.7123 270.95 69.1639C268.794 68.8104 267.431 67.0589 266.228 65.512L265.984 65.1994C265.831 65.0048 265.679 64.8135 265.526 64.6282C262.183 60.5856 258.943 59.8925 254.335 62.2325C253.973 62.4162 253.87 62.5511 253.763 62.6931C253.44 63.1163 253.117 63.3256 252.054 63.4466C251.428 63.5164 250.786 63.3513 250.165 63.1907C249.635 63.0535 249.144 62.9302 248.681 62.9395C245.655 63.0418 244.296 64.3982 242.417 66.2756L242.413 66.2796L242.092 66.6006C240.622 68.0637 238.935 68.8243 237.46 68.6987C236.425 68.608 235.535 68.0729 234.886 67.1496C234.583 66.7193 234.511 66.261 234.448 65.8564C234.374 65.3771 234.323 65.1189 234.053 64.9306C233.488 64.5329 231.578 64.8353 230.746 65.2422C228.052 66.5588 228.345 69.95 228.629 73.2297C228.778 74.9416 228.917 76.5605 228.654 77.9142C228.212 80.1821 226.689 80.8542 225.214 81.5054C224.321 81.8986 223.4 82.3056 222.619 83.0825C222.03 83.6663 221.525 84.5385 221.039 85.3805C220.937 85.5578 220.833 85.7369 220.728 85.9145C220.518 86.2706 220.3 86.6208 220.074 86.939C219.867 87.2297 219.662 87.4647 219.467 87.6879L219.464 87.6908L219.461 87.6941C219.101 88.1075 218.814 88.4376 218.629 89.0347C218.453 89.6028 218.57 90.4024 218.684 91.1746L218.685 91.1816L218.686 91.1966C218.833 92.1919 218.983 93.2187 218.604 94.0844C217.489 96.6283 214.521 96.7171 211.65 96.803L211.64 96.8034C209.711 96.8593 207.721 96.9174 206.618 97.785C205.909 98.3432 205.792 98.7619 205.681 99.1667C205.39 100.216 204.883 100.597 202.613 100.646C201.44 100.669 200.205 100.616 199.012 100.562C196.726 100.458 194.36 100.351 192.255 100.793C190.453 101.172 189.089 101.932 188.206 103.056C188.127 103.156 188.066 103.287 188.014 103.435C187.968 103.563 187.928 103.704 187.887 103.849L187.882 103.863C187.701 104.514 187.45 105.405 186.382 105.67C186.308 105.689 186.224 105.696 186.131 105.696C184.772 105.696 181.553 103.849 181.3 103.674C180.295 102.991 179.676 102.065 179.079 101.167C178.933 100.948 178.79 100.734 178.644 100.527L178.575 100.43C178.527 100.364 178.479 100.299 178.431 100.235L178.318 100.087C178.19 99.9249 178.057 99.7686 177.915 99.6202C176.462 98.0967 174.238 97.8851 171.884 97.6617C169.73 97.4571 167.516 97.2314 165.941 95.9009L165.558 96.0057L165.561 96.1045L165.562 96.1379L165.564 96.2017L165.567 96.2429C165.611 96.9336 165.653 97.585 164.995 98.4153C164.339 99.241 163.248 99.5853 162.192 99.9156C161.285 100.199 160.345 100.495 159.824 101.076C159.196 101.774 159.119 102.788 159.038 103.863V103.87C158.912 105.499 158.769 107.344 156.647 108.377C155.797 108.791 154.912 108.764 154.059 108.739L154.025 108.738C153.193 108.708 152.414 108.685 151.774 109.078C150.767 109.696 150.153 110.529 149.946 111.552C149.706 112.743 150.048 114.137 150.864 115.279C152.386 117.407 152.865 118.93 152.49 120.275L152.588 120.302C152.63 120.314 152.672 120.327 152.713 120.341C152.809 120.373 152.901 120.409 152.992 120.449C153.332 120.596 153.638 120.789 153.923 120.977C154.591 121.417 155.119 121.763 155.93 121.515C156.484 121.345 156.828 120.91 157.226 120.405C157.775 119.71 158.396 118.921 159.661 118.784C162.038 118.527 162.283 120.569 162.446 121.927L162.448 121.94L162.451 121.968C162.469 122.124 162.488 122.278 162.509 122.426C162.529 122.564 162.551 122.698 162.578 122.824C162.736 123.571 162.975 123.656 163.865 123.973L163.871 123.976C164.032 124.034 164.206 124.094 164.392 124.166C164.624 124.254 164.843 124.36 165.053 124.473C165.28 124.596 165.497 124.728 165.711 124.857C166.027 125.048 166.325 125.229 166.611 125.35C166.999 125.515 167.965 125.834 168.553 125.231C168.821 124.959 168.847 124.552 168.877 124.08V124.074C168.914 123.496 168.96 122.778 169.586 122.319C170.03 121.994 170.833 122.05 171.921 122.164C172.196 122.191 172.44 122.219 172.601 122.219C172.741 122.219 172.89 122.225 173.046 122.234C173.196 122.242 173.351 122.253 173.51 122.266C174.138 122.312 174.848 122.361 175.333 122.226C176.348 121.938 178.564 120.845 179.176 120.138C179.588 119.665 179.904 119.026 180.209 118.409C180.951 116.912 181.795 115.214 184.196 115.497C187.343 115.872 187.436 117.674 187.533 119.583V119.586L187.551 119.931C187.559 120.083 187.569 120.237 187.581 120.394C187.594 120.576 187.611 120.761 187.633 120.949C187.789 122.261 188.508 122.526 189.871 122.917C190.576 123.12 191.378 123.35 192.095 123.848C193.616 124.906 193.525 126.971 192.988 128.418C192.671 129.265 191.999 130.756 191.039 131.216C189.856 131.783 188.112 131.352 186.71 131.006L186.706 131.005L186.28 130.9C185.979 131.391 185.635 131.914 185.226 132.358C184.589 133.054 184.075 133.31 183.363 133.663L183.203 133.742C183.14 133.774 183.077 133.796 183.014 133.81C182.96 133.823 182.906 133.831 182.853 133.834L182.793 133.837C182.686 133.839 182.586 133.828 182.5 133.819C182.442 133.812 182.353 133.803 182.323 133.807C182.171 133.947 182.104 134.072 182.074 134.164C182.055 134.223 182.051 134.268 182.049 134.294C182.009 134.677 182.444 135.208 182.828 135.675L182.838 135.687L182.841 135.691C183.215 136.148 183.569 136.581 183.684 137.061C183.928 138.071 183.442 138.822 183.012 139.483C182.885 139.678 182.765 139.863 182.668 140.045C182.518 140.327 182.423 140.602 182.449 140.897C182.504 141.558 183.84 143.43 184.937 143.718C185.275 143.807 185.491 143.723 185.693 143.425L186.112 142.816L186.573 143.393C186.794 143.672 187.008 144.009 187.227 144.353C187.659 145.042 188.147 145.823 188.687 145.94C188.803 145.965 188.928 145.96 189.063 145.925C189.214 145.886 189.378 145.808 189.557 145.691C190.141 145.307 190.415 144.574 190.706 143.797C191.202 142.474 191.881 140.662 194.681 141.685C195.604 142.025 196.574 143.248 196.486 144.381C196.381 145.721 195.174 146.214 194.204 146.61C193.739 146.798 193.299 146.979 193.014 147.217C191.778 148.24 192.455 149.536 193.627 151.399C193.779 151.639 193.927 151.874 194.064 152.104C194.21 152.349 194.344 152.589 194.456 152.825L194.609 153.148C195.444 154.897 196.307 156.704 196.7 158.681L196.751 158.94L196.753 158.945C197.255 161.487 197.586 163.166 200.347 163.922C200.728 164.026 201.174 164.015 201.645 164.004L201.68 164.003C202.29 163.987 202.922 163.968 203.522 164.189C205.046 164.757 205.46 166.157 205.825 167.392L205.969 167.885L205.971 167.892C206.13 168.457 206.21 168.743 206.646 169.125C207.376 169.769 208.525 169.983 209.64 170.19C210.858 170.416 212.121 170.651 212.961 171.465C213.766 172.244 213.966 174.412 213.768 175.291C213.575 176.145 212.994 176.638 212.479 177.071C212.247 177.268 212.026 177.454 211.852 177.664C211.444 178.148 211.109 178.764 210.756 179.417L210.751 179.425C210.323 180.216 209.882 181.029 209.269 181.648C209.337 182.416 209.053 182.909 208.784 183.195C208.764 183.216 208.741 183.232 208.717 183.248C208.698 183.261 208.679 183.273 208.663 183.288C209.146 183.788 209.472 184.567 209.621 185.637C209.79 186.844 209.449 187.491 209.116 188.114C208.925 188.472 208.747 188.812 208.635 189.3C207.988 192.145 208.744 195.69 210.47 197.921C210.947 198.537 211.428 199.091 211.894 199.628C213.112 201.033 214.264 202.361 215.017 204.382C215.528 205.749 215.607 207.369 215.676 208.801L215.678 208.825L215.687 209.016C215.718 209.629 215.705 210.261 215.691 210.883L215.689 210.983L215.68 211.446C215.678 211.541 215.671 211.648 215.659 211.764L215.642 211.916C215.618 212.106 215.587 212.315 215.554 212.532C215.505 212.852 215.446 213.239 215.42 213.576C215.399 213.842 215.399 214.077 215.44 214.223C215.476 214.349 215.498 214.456 215.517 214.551C215.641 214.54 215.79 214.521 215.906 214.507C216.752 214.403 217.906 213.73 218.832 213.191C219.141 213.012 219.432 212.839 219.695 212.7C221.956 211.49 225.2 211.714 227.415 212.477C227.468 212.495 227.524 212.518 227.584 212.545L227.69 212.596C227.758 212.631 227.829 212.669 227.901 212.709L228.04 212.788C228.123 212.835 228.237 212.894 228.351 212.949C228.519 213.03 228.688 213.102 228.752 213.112C229.008 213.093 229.157 212.987 229.377 212.829L229.389 212.821L229.396 212.816C229.723 212.584 230.127 212.297 230.859 212.288C232.534 212.307 234.393 212.993 235.632 214.095C235.801 214.126 235.971 214.163 236.142 214.204C236.319 214.246 236.497 214.293 236.674 214.339C237.589 214.578 238.506 214.817 239.363 214.53C240.698 214.084 240.489 212.569 240.285 211.092C240.259 210.91 240.234 210.729 240.212 210.55C240.191 210.382 240.173 210.216 240.16 210.055C240.137 209.762 240.13 209.483 240.154 209.227C240.192 208.817 240.258 208.392 240.324 207.967C240.625 206.027 240.926 204.088 238.572 203.629C236.516 203.228 235.195 202.807 235.42 200.354C235.485 199.652 235.817 199.107 236.138 198.578C236.506 197.973 236.86 197.39 236.788 196.618C236.653 195.173 235.514 194.704 234.365 194.231C233.513 193.881 232.656 193.528 232.199 192.773C231.573 191.737 232.573 190.98 233.58 190.218L233.586 190.213C233.878 189.992 234.171 189.77 234.425 189.54C235.248 188.794 236.111 188.566 236.993 188.333C237.653 188.158 238.323 187.981 238.993 187.582C240.344 186.777 240.471 185.892 240.66 184.578C240.694 184.342 240.729 184.093 240.775 183.828L240.817 183.581L240.867 183.298C240.932 182.94 240.969 182.814 241.05 182.729C241.088 182.688 241.136 182.657 241.202 182.614C241.307 182.546 241.456 182.449 241.682 182.239C242.347 181.622 243.203 180.897 244.013 180.453C244.295 180.298 244.645 180.21 245.006 180.12C245.487 179.999 245.989 179.874 246.383 179.578C247.617 178.655 247.561 176.666 247.513 174.897C247.494 174.218 247.476 173.572 247.532 173.03C248.611 172.682 249.038 173.507 249.468 174.337C249.693 174.772 249.92 175.209 250.242 175.48C251.023 176.138 253.396 177.545 254.547 176.971C255.352 176.569 255.391 175.835 255.43 175.1C255.436 174.981 255.442 174.862 255.452 174.744C255.464 174.599 255.48 174.457 255.508 174.319C256.094 171.376 256.804 170.846 258.412 169.643L258.425 169.634L258.472 169.599C258.629 169.482 258.794 169.357 258.969 169.224C259.137 169.096 259.313 168.959 259.499 168.811C261.318 167.36 262.807 164.357 263.493 162.259C264.383 162.147 264.761 162.558 265.16 162.99C265.435 163.288 265.719 163.596 266.186 163.752C266.978 164.015 267.593 163.607 268.192 163.209C268.468 163.026 268.74 162.845 269.024 162.733C269.497 162.545 270.08 162.459 270.661 162.373C272.257 162.137 273.838 161.903 273.094 159.561C272.934 159.054 272.794 158.716 272.691 158.467C272.574 158.183 272.505 158.017 272.51 157.852C272.513 157.732 272.555 157.612 272.645 157.449C272.732 157.293 272.863 157.097 273.047 156.821C273.132 156.694 273.228 156.55 273.336 156.386C274.006 155.365 274.285 154.462 274.009 153.046C273.813 152.045 269.054 143.449 268.773 143.686C268.977 143.514 269.175 143.349 269.367 143.19C271.188 141.681 272.424 140.657 272.529 137.938C272.613 135.805 272.278 133.833 271.894 131.777C271.865 131.62 271.827 131.463 271.784 131.305C271.724 131.087 271.655 130.868 271.585 130.649L271.521 130.443C271.384 130.002 271.258 129.559 271.22 129.118C271.098 127.68 271.278 127.518 271.862 126.995C272.034 126.84 272.242 126.654 272.487 126.394C272.728 126.14 273.187 125.828 273.696 125.482C275.028 124.575 276.706 123.434 275.73 122.473C276.027 119.745 277.379 118.179 279.544 116.476C279.811 116.266 280.072 116.077 280.323 115.9L280.55 115.741C281.736 114.91 282.662 114.262 282.913 112.532C286.955 112.55 287.288 110.564 287.436 106.996C290.169 106.947 291.393 107.884 293.568 109.573C295.637 111.178 296.177 111.053 297.642 110.715C297.823 110.673 298.018 110.628 298.232 110.582C298.572 110.51 298.959 110.436 299.413 110.373C299.966 110.297 301.314 110.75 302.895 111.281C306.549 112.509 311.443 114.153 310.615 110.636C311.151 110.425 311.713 110.238 312.273 110.053C314.833 109.202 317.336 108.372 316.981 105.312C314.974 104.444 312.834 103.432 311.445 101.688C310.997 101.125 310.711 100.381 310.426 99.6369L310.424 99.6314C310.108 98.8108 309.793 97.9916 309.259 97.4175C308.338 96.4269 306.834 96.201 305.304 95.9712C304.132 95.7952 302.946 95.617 301.995 95.0915C301.3 94.7077 300.918 94.1622 300.533 93.6108C300.294 93.2701 300.055 92.9272 299.739 92.6189C299.495 92.381 299.215 92.1789 298.92 91.9893C298.747 91.8779 298.569 91.7707 298.391 91.6633C297.747 91.2764 297.097 90.8851 296.645 90.2697C296.088 89.5115 295.934 88.5839 295.782 87.6694C295.622 86.7068 295.464 85.759 294.842 85.0386C293.979 84.0405 292.667 84.0792 291.301 84.1196C289.993 84.1581 288.635 84.1983 287.574 83.3314C286.979 82.8456 286.51 82.106 286.041 81.3677C285.666 80.7767 285.292 80.1866 284.854 79.7284C284.473 79.3296 283.985 78.9766 283.493 78.6198C282.479 77.8862 281.444 77.1365 281.266 75.9394C282.48 75.3284 282.626 74.2172 282.771 73.117C282.913 72.0352 283.054 70.964 284.208 70.3897C284.85 70.0701 285.72 70.0547 286.613 70.039C287.988 70.0147 289.417 69.9894 290.146 68.8498C291.007 67.5031 290.074 64.8887 289.221 63.763C289.039 63.5234 288.839 63.3233 288.627 63.1512C287.087 63.1815 285.411 63.4722 284.001 63.9979C282.67 64.4677 281.347 65.2934 279.944 66.168ZM226.189 265.294C225.661 265.905 225.075 266.584 224.63 266.609C223.577 266.667 222.177 262.318 221.878 261.392L221.877 261.388L221.87 261.364C221.184 259.182 221.33 257.622 222.232 255.558C223.54 252.57 223.651 252.246 221.695 249.097C221.18 248.268 220.791 247.487 220.396 246.694L220.391 246.683C220.224 246.348 220.057 246.012 219.877 245.667C219.736 245.395 219.587 245.119 219.427 244.836C217.44 246.856 215.169 248.378 212.815 249.955L212.811 249.958C212.494 250.17 212.176 250.384 211.856 250.599C210.185 251.727 208.09 252.332 206.029 252.926C203.352 253.699 200.732 254.455 199.17 256.321C196.214 259.854 193.062 263.55 188.311 264.669C188.036 264.734 187.736 264.756 187.433 264.779C186.97 264.814 186.502 264.849 186.112 265.034C185.665 265.248 185.317 265.686 184.976 266.116C184.624 266.559 184.279 266.993 183.84 267.163C180.609 268.412 176.699 263.411 176.506 260.41C176.367 258.241 177.402 256.353 178.376 254.575C179.782 252.009 181.063 249.671 178.513 247.043C178.186 246.704 177.774 246.157 177.336 245.574L177.329 245.565L177.326 245.562C176.596 244.591 175.794 243.525 175.194 243.17C174.353 242.673 173.459 242.82 172.548 242.97C171.774 243.098 170.987 243.227 170.212 242.963C169.277 242.644 168.737 241.868 168.256 241.028C168.484 240.786 168.726 240.542 168.993 240.281C170.863 238.465 171.837 236.109 172.779 233.83L172.787 233.813L172.835 233.695C173.124 232.999 173.412 232.307 173.724 231.631C173.828 231.409 173.925 231.192 174.019 230.98L174.025 230.966L174.059 230.891C174.645 229.575 175.108 228.535 176.315 227.674C177.16 227.07 178.15 226.516 179.183 226.072C179.341 226.002 179.572 225.942 179.825 225.872L179.838 225.868C180.53 225.676 181.311 225.459 181.688 224.983C182.34 224.165 182.258 222.723 182.179 221.327L182.165 221.059L182.151 220.793C182.142 220.586 182.134 220.382 182.132 220.186C182.13 220.028 182.131 219.876 182.137 219.731C182.147 219.483 182.172 219.259 182.219 219.073C182.753 216.942 184.452 215.898 186.249 214.793L186.257 214.789C187.55 213.992 188.886 213.17 189.801 211.904C190.748 210.6 191.011 210.469 192.946 210.374C193.944 210.325 195.102 210.211 196.219 209.455C196.889 209.002 197.256 208.525 197.342 207.992C197.465 207.235 196.986 206.61 196.562 206.056L196.556 206.048C196.091 205.44 195.819 205.043 195.942 204.626C196.042 204.289 196.435 203.78 196.782 203.331L196.814 203.289C196.982 203.07 197.153 202.847 197.304 202.628C197.407 202.479 197.501 202.33 197.577 202.186C197.708 201.938 197.828 201.69 197.941 201.441C198.037 201.229 198.13 201.017 198.222 200.806L198.235 200.775L198.238 200.768C198.538 200.077 198.821 199.423 199.247 198.8C200.487 196.986 200.654 196.06 200.143 193.848L199.977 193.143L199.976 193.139C199.499 191.126 199.049 189.225 199.424 187.268C199.444 187.16 199.467 187.057 199.491 186.956L199.528 186.802L199.561 186.672C199.668 186.258 199.775 185.83 199.794 185.3C199.798 185.174 199.782 184.986 199.761 184.777C199.74 184.583 199.701 184.181 199.71 184.111C199.873 183.865 200.675 183.644 202.052 183.744C202.25 183.76 202.531 183.795 202.866 183.839C204.194 184.009 206.19 184.267 207.6 183.855C207.608 183.86 207.619 183.861 207.63 183.862C207.643 183.864 207.655 183.866 207.665 183.872C208.079 184.125 208.384 184.805 208.521 185.788C208.64 186.647 208.428 187.047 208.132 187.603C208.019 187.818 207.896 188.049 207.785 188.321C207.749 188.407 207.715 188.497 207.683 188.593C207.634 188.736 207.589 188.891 207.551 189.059C206.837 192.199 207.674 196.118 209.588 198.588C210.079 199.221 210.572 199.791 211.052 200.342C212.254 201.728 213.291 202.926 213.977 204.764C214.431 205.98 214.506 207.518 214.571 208.876L214.58 209.067C214.61 209.685 214.596 210.327 214.582 210.955L214.573 211.423C214.571 211.518 214.562 211.627 214.548 211.747C214.527 211.924 214.496 212.124 214.463 212.333L214.459 212.365C214.34 213.146 214.217 213.956 214.375 214.516C214.396 214.591 214.411 214.658 214.423 214.718L214.447 214.849C214.61 215.756 215.173 215.691 216.022 215.584C217.092 215.451 218.302 214.747 219.367 214.126C219.662 213.951 219.941 213.788 220.195 213.654C222.158 212.602 225.121 212.837 227.045 213.498C227.17 213.542 227.322 213.633 227.484 213.726L227.517 213.744L227.521 213.746C227.663 213.827 227.811 213.91 227.962 213.983C228.24 214.116 228.53 214.213 228.82 214.189C229.382 214.147 229.731 213.898 230.011 213.698C230.184 213.575 230.325 213.474 230.511 213.417C230.61 213.387 230.723 213.369 230.859 213.367C232.029 213.365 233.399 213.816 234.42 214.526C234.379 215.431 234.341 216.382 234.504 217.261C234.568 217.606 234.727 218.01 234.895 218.438C235.247 219.332 235.639 220.332 235.293 221.122C234.348 223.278 229.797 223.468 227.317 223.571L226.777 223.595C226.633 227.17 226.722 229.568 229.771 231.703C229.955 231.832 230.134 231.951 230.308 232.063C230.53 232.207 230.745 232.339 230.951 232.466L230.99 232.49C232.368 233.338 233.363 233.949 233.727 235.943C233.936 237.08 233.491 238.241 233.07 239.34C232.659 240.413 232.271 241.426 232.537 242.298C233.271 244.715 236.409 242.647 237.554 241.647C237.798 241.975 238.116 242.309 238.446 242.655C239.423 243.679 240.499 244.807 240.047 246.203C239.712 247.237 238.772 247.573 237.856 247.899C237.241 248.119 236.638 248.334 236.235 248.755C235.334 249.696 235.405 251.989 235.458 253.716L235.471 254.147C235.478 254.421 235.482 254.675 235.479 254.898L235.473 255.373C235.442 257.872 235.415 260.183 233.141 261.708C232.281 262.285 231.274 262.621 230.256 262.96C229.123 263.337 227.977 263.72 227.005 264.444C226.778 264.613 226.494 264.942 226.189 265.294ZM168.235 239.479C169.942 237.823 170.831 235.674 171.772 233.397L171.78 233.378C171.942 232.985 172.104 232.593 172.27 232.204C172.421 231.851 172.575 231.5 172.736 231.154C172.85 230.905 172.959 230.666 173.063 230.431C173.692 229.021 174.236 227.802 175.683 226.77C176.59 226.123 177.65 225.53 178.753 225.055C178.946 224.972 179.227 224.89 179.537 224.807C179.935 224.697 180.677 224.493 180.834 224.293C181.226 223.799 181.153 222.513 181.088 221.378V221.371C181.035 220.408 180.984 219.499 181.158 218.796C181.8 216.235 183.77 215.023 185.675 213.854C186.936 213.079 188.124 212.346 188.915 211.255C190.122 209.585 190.79 209.376 192.893 209.274C193.977 209.22 194.809 209.078 195.607 208.541C196.002 208.274 196.228 208.02 196.263 207.808C196.281 207.701 196.251 207.579 196.191 207.447C196.086 207.221 195.891 206.967 195.688 206.704C195.205 206.071 194.602 205.287 194.895 204.305C195.052 203.777 195.486 203.215 195.908 202.668L195.918 202.654C196.067 202.462 196.218 202.266 196.349 202.081C196.424 201.976 196.492 201.874 196.549 201.779C196.573 201.739 196.595 201.701 196.614 201.663C196.852 201.219 197.044 200.775 197.235 200.33C197.542 199.621 197.861 198.886 198.347 198.174C199.415 196.613 199.524 196.002 199.08 194.083L198.915 193.383L198.91 193.366C198.43 191.334 197.934 189.234 198.352 187.051C198.396 186.821 198.449 186.605 198.503 186.393C198.566 186.144 198.627 185.904 198.665 185.648C198.684 185.521 198.697 185.389 198.703 185.251C198.705 185.18 198.695 185.081 198.685 184.97L198.683 184.96L198.675 184.877C198.614 184.276 198.589 183.825 198.796 183.507C199.252 182.806 200.371 182.518 202.131 182.646C202.345 182.662 202.648 182.699 203.006 182.746C203.818 182.851 205.155 183.018 206.267 182.958L206.22 182.827C206.721 182.651 207.174 182.616 207.588 182.697C207.671 182.659 207.748 182.617 207.816 182.569C207.873 182.529 207.923 182.486 207.967 182.439C208.09 182.309 208.239 182.074 208.135 181.539L208.074 181.229L208.311 181.022C208.894 180.516 209.321 179.728 209.774 178.892L209.777 178.887L209.79 178.862C210.152 178.198 210.522 177.515 210.998 176.952C211.233 176.673 211.5 176.447 211.756 176.229L211.771 176.216C212.202 175.849 212.574 175.532 212.685 175.042C212.833 174.382 212.619 172.663 212.182 172.242C211.577 171.658 210.528 171.463 209.418 171.256C208.16 171.023 206.86 170.781 205.902 169.937C205.227 169.34 205.075 168.802 204.898 168.178L204.897 168.174L204.757 167.695C204.436 166.608 204.132 165.583 203.12 165.206C202.983 165.155 202.833 165.124 202.675 165.104C202.373 165.068 202.038 165.076 201.692 165.087C201.147 165.103 200.589 165.117 200.038 164.969C196.621 164.034 196.174 161.768 195.658 159.142L195.607 158.884C195.239 157.042 194.407 155.295 193.602 153.608L193.448 153.285C193.26 152.887 192.978 152.443 192.683 151.973L192.679 151.967C191.644 150.323 190.232 148.078 192.297 146.368C192.629 146.093 193.039 145.898 193.455 145.722C193.561 145.678 193.666 145.634 193.772 145.591C194.739 145.198 195.33 144.912 195.379 144.288C195.426 143.704 194.793 142.888 194.288 142.704C192.509 142.053 192.241 142.762 191.711 144.174C191.388 145.039 191.02 146.019 190.139 146.598C189.55 146.984 188.98 147.124 188.436 147.003C187.45 146.789 186.829 145.803 186.282 144.93L186.147 144.716L186.052 144.567C185.652 144.835 185.168 144.907 184.643 144.767C183.072 144.353 181.442 142.107 181.346 140.983C181.272 140.125 181.702 139.464 182.081 138.88C182.491 138.248 182.735 137.836 182.609 137.308C182.551 137.064 182.256 136.706 181.97 136.357C181.451 135.724 180.863 135.008 180.949 134.173C180.995 133.703 181.253 133.279 181.709 132.907C181.824 132.815 181.945 132.763 182.065 132.735C182.127 132.72 182.189 132.712 182.249 132.709C182.376 132.701 182.494 132.713 182.593 132.722L182.605 132.724C182.658 132.728 182.742 132.74 182.765 132.735L182.865 132.675C183.538 132.342 183.907 132.158 184.41 131.612C184.842 131.14 185.214 130.53 185.531 129.995L185.728 129.658L186.112 129.737C186.312 129.778 186.537 129.833 186.776 129.891L186.955 129.935L186.973 129.939C188.141 130.227 189.729 130.619 190.555 130.221C190.978 130.018 191.539 129.137 191.953 128.027C192.388 126.862 192.404 125.392 191.46 124.734C190.892 124.338 190.215 124.143 189.56 123.957C188.259 123.585 186.789 123.161 186.538 121.068C186.511 120.84 186.491 120.617 186.475 120.399C186.457 120.146 186.445 119.9 186.433 119.66L186.431 119.631C186.338 117.77 186.291 116.835 184.056 116.57C182.505 116.386 181.949 117.328 181.179 118.882C180.844 119.561 180.495 120.261 179.993 120.842C179.146 121.817 176.683 122.964 175.622 123.264C174.962 123.452 174.162 123.395 173.449 123.345L173.424 123.343C173.149 123.323 172.92 123.317 172.652 123.304C172.417 123.292 172.152 123.275 171.801 123.238C171.504 123.207 170.998 123.155 170.625 123.154C170.436 123.153 170.281 123.166 170.205 123.201C170.099 123.281 170.043 123.415 170.01 123.606C169.985 123.751 169.972 123.928 169.958 124.138C169.923 124.711 169.877 125.425 169.326 125.985C168.591 126.734 167.414 126.869 166.176 126.343C165.999 126.268 165.825 126.178 165.654 126.082C165.478 125.985 165.306 125.88 165.137 125.778C164.767 125.555 164.385 125.325 163.995 125.173L163.721 125.072L163.499 124.992C162.543 124.652 161.79 124.385 161.503 123.038C161.49 122.975 161.478 122.909 161.466 122.843C161.448 122.74 161.432 122.634 161.417 122.525C161.396 122.374 161.376 122.217 161.357 122.059C161.162 120.431 160.943 119.731 159.77 119.859C158.961 119.947 158.57 120.442 158.075 121.068C157.628 121.636 157.122 122.278 156.242 122.547C154.937 122.945 154.04 122.354 153.316 121.877C152.872 121.587 152.472 121.342 152.018 121.287C151.441 122.203 150.457 123.085 149.123 124.09C147.917 124.997 147.731 125.322 147.117 126.404L147.008 126.597C146.96 126.679 146.933 126.759 146.913 126.844C146.894 126.929 146.883 127.02 146.87 127.126L146.869 127.143C146.829 127.49 146.778 127.923 146.396 128.423C145.915 129.053 144.719 129.628 143.431 130.211L143.061 130.381C141.614 131.056 140.456 130.8 139.435 130.574C138.676 130.407 137.96 130.249 137.106 130.425C136.362 130.579 135.027 131.551 134.906 132.156C134.848 132.437 134.827 132.596 134.817 132.684L134.827 132.689L134.836 132.693C134.94 132.745 135.074 132.811 135.233 132.914C135.366 133.001 135.516 133.113 135.681 133.265C136.113 133.663 136.55 133.896 136.972 134.119C137.695 134.503 138.441 134.898 138.928 136.015C139.621 137.613 139.1 140.039 138.595 142.386C138.292 143.786 138.009 145.107 138.018 146.102C138.041 149.389 137.655 149.815 134.948 151.278L134.466 151.536C133.343 152.138 132.664 152.504 132.552 152.832C132.438 153.167 132.748 153.897 133.259 155.104L133.366 155.355C134.027 156.916 133.843 158.521 132.887 159.544C131.908 160.591 130.34 160.845 128.589 160.237C126.988 159.682 126.195 158.798 125.558 158.088C124.648 157.076 124.146 156.518 121.513 157.667C121.275 157.771 121.058 157.877 120.854 157.984C120.424 158.211 120.057 158.442 119.699 158.67C118.794 159.242 117.938 159.784 116.4 160.023C115.544 160.156 114.726 160.177 114.002 160.193C112.077 160.24 110.685 160.272 109.609 162.21L109.318 162.733L108.822 162.396C108.336 162.063 107.827 161.584 107.285 161.075L107.278 161.068C105.482 159.379 104.105 158.256 102.74 159.151C102.059 159.6 101.94 160.268 101.803 161.042C101.661 161.849 101.5 162.763 100.626 163.387C99.5712 164.142 98.1108 164.122 96.5678 164.101H96.562L96.5385 164.101C95.0361 164.082 93.4819 164.063 92.4453 164.824C91.6108 165.439 91.0278 166.818 90.5122 168.036L90.5078 168.048L90.4858 168.1C90.2358 168.69 89.9999 169.246 89.7353 169.73L89.6005 169.979L89.3193 170.011C88.3911 170.114 85.2954 171.195 84.6811 171.879C84.1113 172.512 84.1459 173.237 84.1904 174.154C84.2275 174.924 84.2695 175.796 83.9086 176.694C82.8691 179.292 80.8549 179.548 78.708 179.597C75.8749 179.659 75.4658 180.166 73.7675 182.841C71.5742 186.293 68.5156 188.119 64.4174 188.421L64.1103 188.442L64.0956 188.443C63.0942 188.513 61.4311 188.629 61.0122 189.238C60.9814 189.282 60.9492 189.341 60.9311 189.423C60.9067 189.536 60.9086 189.693 60.977 189.917C61.249 190.805 62.4497 191.052 63.6079 191.289C63.8681 191.342 64.1215 191.394 64.3613 191.453C64.6376 191.521 64.8964 191.598 65.1269 191.696L65.3427 191.789L65.4243 192.01C65.9731 193.513 65.7036 194.494 65.4638 195.362L65.4609 195.371C65.3061 195.937 65.1596 196.475 65.2475 197.16C65.3452 197.918 65.7592 198.386 66.2431 198.928C66.8129 199.57 67.4594 200.295 67.6455 201.577C67.7177 202.072 67.6015 202.489 67.499 202.854C67.4013 203.208 67.3222 203.487 67.4013 203.805C67.5854 204.566 67.9829 204.954 68.4877 205.447L68.5214 205.481C68.7949 205.75 69.0781 206.028 69.3481 206.394C70.6743 208.187 72.3862 210.858 71.9418 213.346C71.7807 214.251 71.5185 214.868 71.3076 215.367L71.3061 215.371L71.2929 215.403C70.8925 216.335 70.7441 216.684 71.7114 218.082C71.8603 218.299 72.0136 218.51 72.1674 218.72C73.3442 220.338 74.6796 222.176 72.4746 224.407C71.2509 225.646 69.3041 225.909 67.5898 226.139C67.1079 226.204 66.643 226.267 66.2187 226.347C65.9863 226.392 65.7661 226.441 65.5615 226.5C63.624 227.051 62.7519 228.14 62.1005 229.549C62.8823 230.033 63.6845 230.57 64.622 230.952C66.2368 231.61 67.7094 231.049 69.2021 230.482C69.4184 230.399 69.6352 230.317 69.853 230.238C71.0253 229.812 71.9033 229.231 72.7211 228.69C73.9843 227.854 75.1035 227.113 76.9448 227.186C80.0361 227.309 82.9926 228.112 85.707 229.568C86.1625 228.881 86.1357 228.06 86.1079 227.21L86.1064 227.146C86.102 227.011 86.0971 226.874 86.0952 226.737C86.3583 226.657 86.5986 226.554 86.8247 226.439C87.0903 226.304 87.3369 226.153 87.5781 226.005C88.2846 225.572 88.9467 225.165 89.9262 225.269L90.0009 225.35C91.7304 227.2 93.6201 229.223 93.7919 231.898C93.9287 234.014 92.9516 235.274 91.9262 236.596C91.3476 237.341 90.7534 238.107 90.3354 239.058C89.1728 241.703 91.6289 246.013 93.7685 247.706C94.4609 247.126 95.2602 246.826 96.0581 246.526C96.9013 246.209 97.7431 245.893 98.4555 245.247C99.0873 244.674 99.4433 244.205 99.7563 243.793C100.31 243.063 100.729 242.512 102.305 241.877C108.229 239.493 111.302 239.26 114.695 244.896C115.293 244.774 115.568 244.496 115.869 244.192C116.008 244.05 116.154 243.903 116.34 243.763C117.794 242.67 118.859 241.884 120.599 240.967C120.838 240.842 121.054 240.725 121.256 240.615C122.325 240.036 122.979 239.681 124.351 239.472C124.744 239.412 125.253 239.425 125.793 239.44C126.898 239.47 128.127 239.504 128.735 238.911C129.74 237.933 129.153 236.285 128.597 234.724C128.244 233.735 127.904 232.781 127.991 232.057L127.996 232.014C128.081 231.301 128.113 231.035 128.255 230.858C128.34 230.753 128.464 230.679 128.663 230.562C128.789 230.487 128.944 230.395 129.138 230.266C130.207 229.556 135.487 229.542 136.732 230.296C137.668 230.862 138.184 231.937 138.712 233.04C139.283 234.23 139.868 235.452 141.014 236.097C142.638 237.01 144.387 236.472 146.122 235.938C147.091 235.64 148.056 235.343 148.992 235.301C152.165 235.16 151.278 238.01 150.448 240.675C150.02 242.05 149.607 243.377 149.776 244.217C153.709 244.416 156.128 242.974 159.145 241.175C159.648 240.875 160.168 240.565 160.715 240.251C160.905 240.142 161.102 240.018 161.305 239.885C161.455 239.786 161.609 239.682 161.766 239.577C163.067 238.702 164.554 237.702 165.909 238.239C166.732 238.567 167.237 239.263 167.684 240.025L167.909 239.799L168.235 239.479ZM65.9243 225.289C65.6948 225.335 65.4736 225.386 65.2617 225.446C62.9497 226.105 61.8911 227.437 61.1518 228.998C59.8608 228.335 58.4956 228.051 56.539 229.103C56.4101 228.755 56.2744 228.279 56.1206 227.739C55.4204 225.277 54.3422 221.491 51.8037 222.513C50.5483 223.02 49.978 224.163 49.435 225.251C48.5952 226.933 47.8208 228.485 44.6816 227.354C41.7114 226.284 42.4311 223.628 43.0625 221.298C43.1508 220.972 43.2373 220.653 43.3115 220.346C44.1459 216.896 43.4863 216.8 41.729 216.544C41.1791 216.464 40.5219 216.368 39.769 216.149C39.54 214.207 39.9526 212.376 40.3652 210.542C40.6269 209.378 40.8891 208.214 40.9877 207.02C41.1528 204.999 40.8876 202.024 40.332 200.058C39.8779 198.45 38.6342 197.642 37.3652 196.817C36.1899 196.054 34.9921 195.276 34.3793 193.834C33.4018 191.535 35.0341 189.855 36.6567 188.184C37.5048 187.311 38.3505 186.441 38.8198 185.486C39.7641 183.566 39 181.915 38.2124 180.214C37.8925 179.523 37.5688 178.824 37.3544 178.094C37.0952 177.214 37.0756 176.364 37.0566 175.543C37.0253 174.194 36.996 172.925 35.9052 171.73L35.5004 171.284C33.6665 169.251 32.3242 167.764 30.2744 170.114C30.0351 170.387 29.979 170.604 29.9252 170.812C29.8579 171.072 29.7939 171.317 29.3833 171.637C28.5991 172.251 27.5961 172.519 26.582 172.79C25.4433 173.095 24.29 173.404 23.415 174.21C22.9809 174.609 22.7099 174.947 22.5063 175.201C21.9731 175.866 21.9023 175.954 20.5654 175.063C19.1933 174.149 18.1791 171.426 18.6142 169.811C19.2055 167.619 21.06 167.533 22.9321 167.446C24.8134 167.359 26.7128 167.271 27.3666 165.043L27.3256 164.998C26.2329 163.808 24.9799 162.444 23.2636 162.382C22.2031 162.345 20.2866 162.908 19.3769 163.364C19.1098 163.498 18.8916 163.653 18.686 163.799C18.2275 164.125 17.8315 164.407 17.0976 164.306C15.6337 164.104 14.434 162.275 13.6059 161.014C13.5278 160.894 13.4526 160.78 13.3808 160.673C13.2661 160.501 13.1464 160.331 13.0283 160.164C12.2382 159.042 11.5151 158.016 12.7128 157.098C14.0922 156.039 14.269 155.986 15.7324 156.404L15.8159 156.428C16.9721 156.759 17.3593 156.87 17.8886 155.811C18.4956 154.604 18.2744 153.513 16.8696 153.334C16.4379 153.279 15.998 153.37 15.5595 153.461C15.0654 153.563 14.5727 153.665 14.0947 153.557C13.3066 153.381 13.0693 152.859 12.7636 152.187C12.6269 151.888 12.4765 151.558 12.2573 151.215C11.7426 150.41 11.1533 149.656 10.5664 148.905C9.42622 147.447 8.29487 145.999 7.73335 144.209C7.10786 142.215 8.42134 141.035 9.76655 139.826C10.7968 138.899 11.8461 137.956 12.0571 136.617C12.2885 135.149 11.332 134.359 10.3583 133.555C9.95308 133.221 9.54438 132.883 9.21724 132.493C8.78022 131.973 8.6811 131.289 8.58296 130.615C8.49018 129.976 8.39839 129.345 8.02143 128.867C7.54292 128.262 6.83101 128.228 6.09321 128.193C5.70161 128.175 5.30317 128.156 4.92817 128.051C3.8188 127.739 2.89302 126.725 2.36714 125.681C1.62007 124.197 2.10005 122.356 2.57954 120.516C2.95405 119.079 3.32856 117.641 3.1186 116.374C2.96968 115.47 2.24849 114.787 1.53706 114.113C0.694775 113.315 -0.13335 112.53 0.0180167 111.408C0.205517 110.014 1.67622 109.513 3.06684 109.039C4.93843 108.401 6.66499 107.812 4.92329 105.163C4.61323 104.692 4.23628 104.263 3.8603 103.836C3.30317 103.204 2.74897 102.574 2.41841 101.811C1.55561 99.8204 1.76265 99.0644 3.72798 98.2852C4.39302 98.0212 5.05952 97.7608 5.72651 97.5016L7.28657 96.8967C7.28218 96.899 8.42622 96.5477 8.53804 96.3919C8.74018 96.1104 8.70308 95.4848 8.64253 95.1707C8.52681 94.5765 8.18208 94.0674 7.83149 93.5501C7.35102 92.8403 6.8603 92.1149 6.9355 91.1329C7.03022 89.9095 8.09761 89.1541 9.19575 88.3771C10.1752 87.6841 11.1791 86.9739 11.5385 85.8993C11.7807 85.1753 11.684 84.1518 11.5869 83.118C11.4584 81.7571 11.3281 80.3787 11.9663 79.6425C12.7148 78.7812 14.6889 78.5696 16.3198 78.395C17.0668 78.3149 17.7416 78.2425 18.1933 78.1189C18.3222 78.0835 18.4648 78.0471 18.6166 78.0081C19.8999 77.6791 21.8525 77.1786 21.9565 75.7186C21.9882 75.2808 21.7495 74.882 21.5122 74.485C21.2475 74.0427 20.9843 73.6026 21.0981 73.1135C21.4609 71.5505 24.6293 71.4131 25.643 72.3063C25.7968 72.4413 25.913 72.5948 26.0131 72.7599C26.1342 73.795 26.3339 74.5742 26.5131 75.2138C26.562 75.7604 26.6479 76.3001 26.8691 76.7792C26.9316 77.5212 26.7387 78.2656 25.9643 79.5262C25.7504 79.8775 25.4477 80.2542 25.1293 80.6544L25.1264 80.6587C24.1005 81.9419 22.8247 83.5385 23.4731 85.5738C23.7939 86.5855 24.6196 87.2112 25.4174 87.8183C26.1992 88.4114 26.9365 88.972 27.2714 89.8744C27.6088 90.7863 27.7553 91.6865 27.8969 92.5586C28.1157 93.8984 28.3413 95.2824 29.2441 96.7269C30.228 98.2991 31.5141 99.4761 32.7583 100.614L32.767 100.622C33.8862 101.645 35.0424 102.704 35.9497 104.04C36.1035 104.265 36.2744 104.54 36.4643 104.846L36.5239 104.942L36.5356 104.96C37.6411 106.738 39.1518 109.165 41.0737 109.466C42.5043 109.685 43.56 108.917 44.4951 108.233C45.0815 107.803 45.6352 107.398 46.2583 107.215C47.6005 106.819 50.3007 107.026 51.643 107.352C53.4291 107.783 54.8334 108.965 56.3203 110.215L56.332 110.224C57.8417 111.497 59.4047 112.811 61.4121 113.285C62.5776 113.56 64.2031 113.374 65.5107 113.227C65.8037 113.192 66.0805 113.162 66.3271 113.139C66.7734 113.097 67.2319 112.843 67.6757 112.599C67.9179 112.464 68.3247 112.241 68.4575 112.241C69.3891 112.301 70.5605 112.702 71.6997 113.093L71.7465 113.109C72.728 113.448 73.7421 113.795 74.6723 113.96C75.0156 114.02 75.373 114.101 75.7368 114.183L75.8217 114.202C76.7055 114.402 77.6523 114.616 78.5478 114.616C79.415 114.616 80.2363 114.416 80.9179 113.813C81.6899 113.13 81.9526 112.295 82.1831 111.557C82.4829 110.601 82.7412 109.776 83.9926 109.12C84.9721 108.606 85.8535 108.594 86.8769 108.58C87.3793 108.573 87.8955 108.566 88.4658 108.501C90.7426 108.24 91.7915 107.526 93.0058 106.701C93.5131 106.356 94.0361 106.001 94.7128 105.624C95.6923 105.079 96.6274 105.024 97.7089 104.961L97.7294 104.96C98.1113 104.937 98.5024 104.913 98.9042 104.868C100.481 104.689 101.407 104.035 102.542 103.133C103.992 101.979 103.905 101.058 103.796 99.8902C103.756 99.4482 103.71 98.9459 103.731 98.3317C103.81 96.143 104.529 95.3243 106.383 95.3056C107.164 95.3173 108.02 95.6708 108.872 96.0313L108.879 96.0342C109.995 96.5054 111.146 96.9914 112.235 96.7292C113.865 96.3314 114.447 94.2613 114.833 92.889L115.019 92.2354C115.563 90.335 115.747 89.6954 117.826 89.5814C119.452 89.5001 120.855 90.0606 122.525 90.8095C123.674 91.3259 124.895 91.5516 126.077 91.7702C127.884 92.1027 129.591 92.4191 130.919 93.7216C131.161 93.9588 131.349 94.2205 131.519 94.4977C131.626 94.6718 131.727 94.8519 131.829 95.0358L131.845 95.0655C132.15 95.6076 132.464 96.1685 133.008 96.6756C135.788 99.2737 140.056 98.0945 143.172 97.2315C143.559 97.1246 143.931 97.0221 144.287 96.9291C146.364 96.3919 147.597 96.5989 148.06 97.5618C148.352 98.176 148.487 98.7178 148.606 99.197C148.962 100.639 149.292 101.507 151.998 101.507C153.623 101.5 154.602 100.853 155.642 100.167C156.217 99.7878 156.812 99.397 157.568 99.0831C158.352 98.7597 159.042 98.4085 159.712 98.0712C160.103 97.8759 160.498 97.6758 160.92 97.4758C161.999 96.9664 163.239 96.6128 164.467 96.2848V96.3012C164.509 96.9362 164.525 97.2269 164.129 97.727C163.686 98.2864 162.805 98.5633 161.873 98.8566L161.855 98.8621C160.806 99.19 159.724 99.5296 159.001 100.332C158.126 101.307 158.031 102.558 157.938 103.768C157.822 105.3 157.719 106.624 156.159 107.382C155.544 107.682 154.821 107.659 154.051 107.633C153.098 107.601 152.111 107.568 151.192 108.133C149.936 108.908 149.132 110.01 148.867 111.322C148.566 112.804 148.978 114.516 149.967 115.9C152.355 119.242 152.102 120.473 148.462 123.215C147.078 124.259 146.811 124.727 146.164 125.862L146.055 126.053C145.848 126.416 145.808 126.748 145.778 127.016C145.745 127.295 145.722 127.495 145.522 127.758C145.168 128.221 143.684 128.89 142.973 129.214L142.591 129.388C141.479 129.907 140.637 129.721 139.663 129.504C138.862 129.328 137.96 129.128 136.876 129.351C135.971 129.537 134.078 130.688 133.827 131.933C133.638 132.868 133.631 133.314 134.348 133.666C134.431 133.708 134.52 133.752 134.623 133.818C134.715 133.877 134.817 133.954 134.934 134.061C135.469 134.555 135.991 134.831 136.449 135.075L136.455 135.078C137.113 135.424 137.588 135.678 137.92 136.443C138.474 137.718 137.968 140.066 137.522 142.141L137.52 142.148L137.515 142.173C137.204 143.624 136.909 144.995 136.918 146.103C136.939 148.947 136.797 149.024 134.42 150.308L133.941 150.566C131.047 152.115 130.938 152.441 132.245 155.523L132.352 155.774C132.843 156.935 132.741 158.091 132.082 158.793C131.41 159.51 130.266 159.659 128.94 159.2C127.605 158.737 126.944 158 126.363 157.351C125.158 156.009 124.204 155.293 121.071 156.658C120.813 156.771 120.576 156.887 120.354 157.003C119.878 157.254 119.477 157.508 119.11 157.74C118.233 158.295 117.54 158.733 116.228 158.937C115.444 159.061 114.696 159.079 113.972 159.096C112.102 159.14 110.328 159.182 108.98 161.135C108.697 160.896 108.393 160.611 108.078 160.315L108.022 160.263L108.017 160.258C106.459 158.793 104.329 156.79 102.138 158.23C101.06 158.94 100.874 159.996 100.726 160.845C100.588 161.64 100.477 162.145 99.9907 162.492C99.2255 163.04 97.9394 163.024 96.5786 163.003L96.5463 163.003C94.9423 162.984 93.1298 162.963 91.8012 163.938C90.7192 164.731 90.0727 166.264 89.5029 167.618C89.3007 168.104 89.1054 168.567 88.9028 168.967C87.6376 169.214 84.686 170.235 83.8696 171.142C83.0019 172.109 83.0532 173.219 83.0996 174.198C83.1323 174.922 83.1645 175.605 82.8925 176.282C82.0947 178.276 80.706 178.452 78.6801 178.499C75.333 178.573 74.6142 179.46 72.8417 182.248C70.8183 185.433 68.1157 187.047 64.331 187.326L64.0312 187.347C62.6796 187.44 60.8281 187.565 60.1093 188.612C59.8002 189.063 59.7397 189.608 59.9306 190.229C60.3911 191.738 62.0517 192.078 63.3867 192.352C63.601 192.396 63.81 192.439 64.0043 192.484C64.1748 192.524 64.3344 192.566 64.4775 192.613C64.8007 193.648 64.6206 194.308 64.414 195.064L64.4125 195.069C64.2426 195.688 64.0498 196.39 64.166 197.293C64.3081 198.386 64.9033 199.058 65.4291 199.649C65.9409 200.226 66.4267 200.772 66.5664 201.728C66.6059 201.996 66.5341 202.256 66.4501 202.556C66.3364 202.961 66.1967 203.464 66.3408 204.059C66.5991 205.124 67.1713 205.685 67.7246 206.225C67.9921 206.485 68.2436 206.729 68.4716 207.039C69.6762 208.669 71.2373 211.076 70.8671 213.151C70.7231 213.954 70.4926 214.493 70.288 214.968C69.7856 216.143 69.5624 216.894 70.8139 218.701C70.9672 218.924 71.1254 219.143 71.2836 219.359C72.5766 221.139 73.1816 222.137 71.6977 223.637C70.7348 224.611 69.062 224.837 67.4433 225.056C66.9125 225.126 66.4008 225.195 65.9243 225.289Z" fill="#D9D9D9"/>
</svg>
