<svg width="460" height="422" viewBox="0 0 460 422" fill="none" xmlns="http://www.w3.org/2000/svg">
<g id="Property 1=Default">
<g id="Background">
<path id="Background3" d="M61.7826 20.8514L55.25 16.5L49.3429 11.2881C47.6269 9.77406 45.6492 8.57972 43.705 7.37275C39.1775 4.5621 33.2449 -4.12859e-05 22.75 0C6.83686 6.26019e-05 1.2984 26.773 0.211425 33.1023C0.0581579 33.9947 0 34.8861 4.32654e-06 35.7916L8.41059e-05 60.8662C0.000104374 67.2365 3.03481 73.2258 8.17157 76.9933L17.5 83.8353C22.726 88.2907 21.9687 96.8047 17.2607 101.804C13.0557 106.27 9.24992 112.192 9.24992 119C9.24992 128.793 15.3068 143.06 21.993 151.256C27.0222 157.421 36.094 161.409 41.266 167.455L52.2499 180.294L75.1709 211.36C76.2189 212.78 77.0743 214.333 77.7147 215.978L100.072 273.405C101.493 277.055 103.953 280.207 107.149 282.47L136.383 303.177C137.623 304.056 138.753 305.068 139.737 306.227C144.147 311.426 155.07 324.682 161.751 332.806C165.266 337.081 170.384 339.704 175.908 340.065L202.83 341.82C209.231 342.238 214.864 346.19 217.435 352.066C219.239 356.189 222.591 359.439 226.768 361.115L231.299 362.932C235.005 364.419 238.181 366.98 240.418 370.287L248.572 382.339C249.51 383.725 250.619 384.989 251.872 386.099L269.25 401.5L282.768 410.512C284.74 411.827 286.93 412.781 289.237 413.329L312.681 418.902L324.028 421.231C327.041 421.85 330.175 421.195 332.689 419.422L335.509 417.433C337.192 416.246 339.397 416.101 341.221 417.056L344.679 418.868C346.588 419.868 348.893 418.564 349.02 416.413C349.135 414.449 351.095 413.139 352.954 413.782L358.101 415.564C360.643 416.444 363.464 415.81 365.386 413.927L372.75 406.709L387.126 391.284C391.021 387.105 392.943 381.459 392.407 375.771L391.387 364.954C391.296 363.986 391.134 363.026 390.903 362.082L390.79 361.617C387.294 347.319 399.92 334.272 414.325 337.294L428.584 340.286C433.81 341.383 439.257 340.344 443.712 337.402L447.326 335.016C451.461 332.285 454.435 328.117 455.672 323.319L459.117 309.956C459.537 308.325 459.75 306.648 459.75 304.963V294.341C459.75 285.292 453.673 277.37 444.933 275.025L406.391 264.684C401.185 263.288 396.764 259.845 393.686 255.421C390.693 251.118 386.81 245.915 382.633 240.552C379.886 237.025 375.647 235 371.177 235H361.189C354.809 235 350.669 228.277 353.54 222.58C354.961 219.76 354.715 216.387 352.9 213.803L346.171 204.219C342.738 199.331 341.67 193.165 343.258 187.407L344.75 182L346.48 171.427C348.074 161.688 342.325 152.242 332.943 149.182L331.286 148.642C327.986 147.566 324.461 147.367 321.061 148.066L300.857 152.218C293.967 153.633 286.841 151.326 282.088 146.142L277.846 141.514C274.866 138.263 270.895 136.088 266.55 135.328L262.212 134.568C256.699 133.604 252.172 129.669 250.45 124.344C248.78 119.185 244.473 115.317 239.164 114.211L210.634 108.267C203.866 106.857 198.306 102.052 195.93 95.5595L194.91 92.7714C193.212 88.1308 189.675 84.3965 185.133 82.45C182.901 81.4933 180.498 81 178.069 81H169.09C163.919 81 159.727 76.8081 159.727 71.6372C159.727 68.1691 157.81 64.9851 154.745 63.3624L152.849 62.3589C151.773 61.7891 150.783 61.0702 149.908 60.2233L129.121 40.1048L112.173 27.0675C110.483 25.7674 108.596 24.7459 106.584 24.0418L100.287 21.8385C96.849 20.6356 93.148 20.3943 89.5832 21.1407L76.9686 23.7817C71.7184 24.8809 66.2468 23.8251 61.7826 20.8514Z" fill="white"/>
<path id="Background2" d="M123.656 46.8872L105.24 34.0303C101.071 31.1199 95.9497 29.9065 90.918 30.6369L74.7352 32.986C70.2152 33.6422 65.6067 32.7314 61.676 30.4052L39.9 17.518C30.6165 12.0239 18.4335 14.7927 13.7611 24.5157C12.5351 27.0668 11.4938 29.5288 10.88 31.5849C9.92662 34.7785 11.0925 38.2118 11.7461 41.48L14.2501 54L17.67 66.3356C20.17 76.8358 37.25 68.9997 42.25 87.4997C43.5159 92.1834 43.5136 95.3438 42.8175 97.4564C40.6045 104.172 29.6967 103.921 27.0446 110.476C25.7402 113.701 24.75 117.722 24.75 122.5C24.75 131.542 30.348 141.35 36.4683 146.489C41.5797 150.781 49.2899 152.349 54.4876 156.536L60.2295 161.161C62.8157 163.245 64.8425 165.939 66.1268 169.002L69.4861 177.013C70.2708 178.884 71.3357 180.625 72.6441 182.175L84.17 195.836L99.7856 215.021C101.035 216.555 102.05 218.267 102.796 220.1L106.521 229.243C106.953 230.303 107.293 231.398 107.537 232.515L110.67 246.836L114.085 263.913C115.102 268.995 118.052 273.485 122.313 276.435L135.17 285.336L147.938 292.846C149.8 293.942 151.466 295.324 152.885 296.954C158.594 303.514 171.889 318.788 173.973 321.182C174.163 321.4 174.35 321.605 174.55 321.815L178.127 325.582C181.731 329.375 186.679 331.605 191.908 331.794L201.67 332.145L218.364 331.724C223.398 331.597 227.698 335.328 228.283 340.328C228.629 343.28 230.303 345.912 232.829 347.477L243.872 354.315C247.035 356.274 249.464 359.222 250.781 362.703C252.606 367.525 256.533 371.251 261.444 372.821L264.474 373.789C266.62 374.475 268.55 375.712 270.069 377.376L270.694 378.06C272.698 380.255 273.704 383.181 273.474 386.144C273.139 390.454 275.418 394.546 279.259 396.53L295.835 405.092L305.553 408.829C307.288 409.497 309.114 409.896 310.968 410.014L331.314 411.313C332.809 411.408 333.999 410.078 333.739 408.602C333.378 406.559 335.683 405.111 337.368 406.323L339.198 407.64C340.473 408.557 342.25 407.646 342.25 406.076C342.25 404.449 344.143 403.554 345.4 404.587L352.358 410.303C354.625 412.165 357.887 412.178 360.168 410.335L366.136 405.516C368.179 403.865 369.772 401.726 370.769 399.296L374.176 390.981C375.163 388.574 375.67 385.998 375.67 383.397V370.336V355.731C375.67 354.471 375.789 353.213 376.026 351.974L379.75 332.5L380.056 330.896C381.012 325.875 385.671 322.436 390.75 323L416.666 329.321C417.388 329.497 418.093 329.713 418.802 329.937C422.114 330.981 432.395 333.747 437.25 329.585C443.084 324.585 455.947 313.937 452.75 297.5C451.296 290.023 444.996 283.187 440.889 279.409C438.582 277.287 435.64 276.06 432.551 275.532L422.472 273.808C421.273 273.603 420.061 273.51 418.844 273.49C413.912 273.412 400.123 272.841 391.67 269C387.548 267.127 384.016 260.912 383.359 259.704C383.285 259.567 383.214 259.434 383.139 259.297C380.294 254.118 375.594 245.994 363.75 242.836C351.75 239.636 343.161 246.093 336.17 245.671C330.308 245.318 335.387 235.128 337.181 231.845C337.552 231.165 337.996 230.534 338.485 229.934L339.975 228.105C344.778 222.211 343.757 213.513 337.72 208.891C336.095 207.647 334.774 206.049 333.859 204.218L333.555 203.61C331.214 198.93 331.243 193.414 333.633 188.759L336.2 183.761C338.219 179.829 338.752 175.301 337.701 171.008C336.179 164.792 331.501 159.808 325.403 157.869C323.597 157.295 321.706 157 319.811 157H313.423C309.98 157 306.594 157.889 303.595 159.582L299.745 161.754C296.746 163.446 293.36 164.336 289.916 164.336H289.454C284.15 164.336 279.063 162.229 275.312 158.478L265.308 148.474C262.606 145.772 259.186 143.9 255.454 143.081L247.785 141.398C243.509 140.459 240.27 136.957 239.669 132.621C239.109 128.584 236.254 125.24 232.356 124.054L215.75 119L198.513 114.447C192.85 112.951 188.546 108.344 187.438 102.593C186.395 97.1837 182.516 92.7578 177.29 91.0158L174.687 90.1483C173.07 89.6092 171.387 89.2922 169.685 89.2059L164.827 88.9599C159.435 88.6867 154.855 84.9205 153.546 79.6826C153.025 77.5975 151.965 75.6859 150.472 74.1393L126.6 49.399C125.702 48.4685 124.716 47.6273 123.656 46.8872Z" fill="white"/>
<g id="Background1">
<path d="M442.238 303.357L440.749 306.5L438.249 312L436.788 315.214C436.126 316.672 434.886 317.788 433.368 318.294L432.968 318.427C431.862 318.796 430.659 318.738 429.594 318.264L424.781 316.125C423.652 315.623 422.402 316.527 422.525 317.756C422.635 318.856 421.63 319.737 420.554 319.484L416.048 318.423C414.889 318.15 413.867 317.465 413.175 316.496L410.78 313.143C409.766 311.724 408.994 310.148 408.493 308.478L408.023 306.914C406.857 303.027 406.628 298.918 407.354 294.925L407.975 291.506C408.157 290.506 408.467 289.534 408.897 288.613C410.665 284.823 414.3 282.245 418.461 281.829L419.167 281.758C420.872 281.588 422.594 281.753 424.235 282.246L428.029 283.384C430.498 284.125 432.857 285.192 435.043 286.558L437.828 288.299C439.097 289.092 440.204 290.12 441.089 291.327C443.652 294.822 444.093 299.441 442.238 303.357Z" fill="white"/>
<path d="M397.249 307C396.344 308.079 395.317 312.18 393.249 312C391.456 311.844 391.945 309.635 390.749 310C389.568 310.36 391.027 311.541 390.249 312.5C388.645 314.477 386.148 313.853 383.749 313C381.534 312.212 379.051 308.791 376.249 307C374.042 305.589 372.716 304.882 370.249 304C369.821 303.847 369.309 303.689 368.81 303.546C367.467 303.16 365.956 302.293 364.749 303C363.065 303.988 366.317 305.444 366.749 306C367.589 307.079 366.612 307.291 367.249 308.5C367.983 309.893 368.955 309.603 370.249 310.5C371.277 311.212 373.246 311.853 372.749 313C372.253 314.147 372.79 315.069 371.249 316C368.976 317.373 365.468 317.975 363.749 320C361.659 322.463 364.79 326.779 367.923 327.561C368.533 327.713 369.161 327.869 369.796 328.027C374.405 329.176 376.254 334.756 373.419 338.567C370.838 342.037 368.413 345.613 368.249 347C367.761 351.123 370.063 351.333 370.749 355C371.351 358.217 366.214 367.125 364.749 374C363.707 378.895 361.758 378.337 360.75 381.5C359.266 386.155 359.955 389.593 360.153 392C360.643 397.97 359.758 402.046 353.153 403C347.896 403.759 347.966 399.295 344.249 395.5C341.817 393.016 342.701 391.942 340.749 392C337.621 392.093 343.249 399.5 340.749 400.5C339.651 400.939 337.974 400.317 336.438 399.481C333.834 398.064 331.702 394.706 328.798 395.307C328.612 395.346 328.429 395.408 328.249 395.5C325.382 396.966 330.456 402.207 329.249 403.5C328.151 404.677 325.859 404.45 324.249 404.5C322.024 404.57 318.765 405.445 316.749 404.5C310.913 401.763 304.742 392.006 299.75 388.5C290.317 381.875 284.891 386.291 278.249 378C276.049 375.253 279.692 370.661 277.749 367.5C275.291 363.501 273.915 365.968 270.249 365C264.96 363.603 266.999 361.71 265.249 360C263.25 358.046 256.749 354 254.749 351.5C252.749 349 255.047 347.316 252.749 345.5C250.452 343.684 239.288 345.618 237.749 340C236.211 334.382 236.078 330.256 233.25 326C231.001 322.616 228.557 323.446 225.749 321.5C222.215 319.05 224.27 318.55 220.749 316.5C217.956 314.873 213.828 313.449 211.249 311.5C205.906 307.462 207.493 300.725 203.393 296.254C199.294 291.783 191.746 291.854 190.749 286C189.909 281.066 193.451 276.766 192.25 271.5C190.587 264.211 188.288 267.474 185.75 261.5C184.054 257.51 183.468 252.613 182.749 249C182.041 245.438 180.123 246.056 179.249 243C178.376 239.944 181.028 238.877 179.749 236C177.719 231.43 174.938 231.877 171.249 228.5C169.427 226.831 163.648 222.09 160.828 219.787C159.812 218.957 159.139 217.782 158.94 216.485C158.543 213.905 156.322 212 153.712 212H152.545C150.805 212 149.186 211.108 148.256 209.636L146.941 207.554C145.494 205.263 142.128 205.337 140.784 207.69C140.144 208.809 138.954 209.5 137.664 209.5H136.249C131.879 210.096 130.426 215.376 132.896 219.03C133.222 219.511 133.421 219.91 133.439 220.182C133.558 221.978 127.213 224.274 127.249 226.5C127.263 227.305 127.711 227.923 127.249 229C126.814 230.015 126.46 230.654 125.75 231.5C124.844 232.578 123.95 233.264 122.749 234C121.252 234.919 120.923 233.413 119.749 232.5C118.423 231.469 118.141 230.133 117.749 228.5C117.382 226.969 116.993 227.284 117.249 226C117.558 224.456 114.923 223.34 115.749 222C116.695 220.468 118.945 222.344 118.992 220.544C119.015 219.671 119.665 219.101 118.992 218.544C117.78 217.54 117.299 218.556 116.249 218C115.273 217.483 114.314 217.103 114.249 216C114.213 215.384 114.812 213.335 115.749 213C116.117 212.869 116.868 212.585 117.249 212.5C117.473 212.45 117.599 212.042 117.669 211.664C117.749 211.233 117.646 210.794 117.45 210.402L117.412 210.326C117.006 209.513 117.093 208.541 117.639 207.814C118.029 207.294 118.614 206.954 119.259 206.874L119.899 206.794C121.344 206.613 122.57 205.646 123.081 204.282L123.146 204.109C123.532 203.081 124.32 202.256 125.329 201.823C126.533 201.307 127.422 200.238 127.587 198.938C127.684 198.171 127.761 197.294 127.749 196.5C127.684 192.039 131.058 188.957 131.249 184.5C131.396 181.093 132.864 179.223 131.749 176C130.322 171.874 126.81 171.366 126.749 167C126.697 163.229 133.652 159.626 130.249 158C128.479 157.154 127.686 158.817 125.749 158.5C121.389 157.785 120.753 153.741 117.749 150.5C115.115 147.657 115.04 145.309 111.249 144.5C109.33 144.09 108.185 144.678 106.249 145C103.867 145.396 105.164 145.051 102.749 145C100.524 144.953 100.899 143.919 98.7497 144.5C97.9067 144.728 96.6154 143.707 96.2495 144.5C96.004 145.032 95.0507 145.998 94.7493 146.5C94.3351 147.19 93.371 148.195 92.2493 148C91.5556 147.88 90.7256 146.695 89.7493 146.5C88.773 146.305 87.5779 147.321 86.2493 147C84.976 146.693 84.0433 145.897 82.7493 145C81.7215 144.288 80.9851 144.168 80.2493 143C79.4796 141.778 77.6972 140.346 78.0565 139C78.3497 137.901 79.5125 137.927 80.695 137.903C82.1049 137.875 83.2669 137.015 84.2957 136.05C88.4531 132.153 92.2398 125.37 87.5212 122.174C87.433 122.115 87.3423 122.057 87.2493 122C85.073 120.679 79.7829 117.955 77.2493 113.5C75.5333 110.482 72.8628 106.614 70.5903 103.99C70.2277 103.572 69.7863 103.226 69.2493 103C64.6885 102.432 57.9482 97.8763 55.2495 94.5C53.1203 91.8363 50.0021 87.3887 48.7497 84.5C47.2658 81.0773 46.3432 76.4944 40.7495 74.5C39.0538 73.8954 38.9107 73.0597 36.2493 72.5C32.8098 71.7767 26.6966 66.7413 24.7497 62C24.1381 60.5105 25.5257 56.7452 24.7497 54.5C23.5113 50.9167 21.234 49.842 20.7492 47C20.285 44.2779 21.8611 36.6868 20.7498 31.5C20.3617 29.6887 25.5875 30.4808 27.2502 29C28.6937 27.7144 27.8274 24.2041 30.7493 24C33.6253 23.7992 36.8927 25.0381 39.7493 27.5C41.4357 28.9535 42.717 34.5914 44.7495 35.5C47.094 36.5482 46.7823 34.2868 49.2495 35C52.3031 35.8827 53.5413 38.797 56.7493 40.5C60.731 42.6137 63.6163 45.8001 67.7493 44C69.6523 43.1711 74.2491 38 77.2493 37.5C80.2495 37 84.2495 44 87.2495 44C90.2495 44 91.2278 37.6728 95.2495 37.5C100.215 37.2867 104.858 40.4472 108.058 44.2509C111.858 48.7683 114.856 47.0574 119.249 51C121.547 53.062 123.505 58.1745 124.749 61C125.462 62.6182 126.176 61.8273 126.749 63.5C128.872 69.6927 134.476 70.0567 137.249 71C140.397 72.071 139.139 73.591 140.749 76.5C141.92 78.6129 138.193 78.653 139.749 80.5C141.27 82.3042 145.095 80.4425 146.249 82.5C147.205 84.2028 146.166 86.3568 147.749 87.5C149.67 88.3575 152.231 91.5447 153.749 93C155.57 93.9973 161.424 98.0117 163.249 99C168.764 101.986 173.119 98.5631 176.434 103.887C177.984 106.376 179.374 108.791 179.749 109.998C180.738 113.173 181.261 115.046 182.929 114.998C187.556 114.864 186.241 120.482 189.249 124C191.411 126.527 191.767 131.341 196.749 129.5C200.086 128.267 202.69 128.248 205.563 130.345C209.89 133.503 216.38 137.664 219.749 137C221.386 136.677 221.421 137.014 222.249 136C223.04 135.032 223.539 134.313 224.749 134C227.436 133.304 226.89 135.038 229.249 136.5C230.667 137.379 231.912 135.003 233.249 136C235.075 137.361 236.434 141.73 236.249 144C236.058 146.343 232.963 147.166 233.249 149.5C233.421 150.898 236.152 150.618 237.249 151.5C239.532 153.335 241.414 150.267 244.249 151C246.111 151.482 244.826 154 246.749 154C248.673 154 248.884 153.031 250.749 153.5C252.495 153.939 253.376 156.561 255.749 158C257.977 159.351 261.185 159.896 261.249 162.5C261.257 162.802 261.107 163.172 260.852 163.578C260.091 164.791 261.338 167.256 262.749 167.5C265.074 167.902 272.915 169.36 274.75 174C275.614 176.187 277.159 180.323 274.75 182C272.987 183.227 271.684 182.428 272.25 184.5C272.664 186.019 273.472 186.719 273.749 187.5C274.027 188.281 272.029 193.233 271.249 194.5C270.594 195.565 268.517 196.826 269.249 197.5C271.129 199.231 272.577 194.422 273.778 192.166C273.918 191.903 274.075 191.673 274.25 191.5C276.268 189.498 276.674 190.677 278.749 190C279.749 189.674 280.698 188.5 281.749 188.5C282.801 188.5 288.804 192.287 291.75 194.5C295.615 197.404 299.956 206.901 296.249 211C295.089 212.618 291.756 210.857 289.749 213C288.711 214.109 289.686 214.874 290.867 215.354C292.371 215.964 295.204 215.442 294.749 217C294.13 219.121 292.612 220.261 291.249 222C290.381 223.108 286.971 224.109 286.749 225.5C286.336 228.094 288.92 230.234 291.249 232.5C294.379 235.545 297.621 235.902 299.249 238C299.947 238.899 299.783 240.362 300.749 240.5C301.716 240.638 306.566 237.469 308.749 237.5C308.896 237.502 309.047 237.515 309.198 237.538C312.599 238.048 314.761 241.596 315.249 245C315.527 246.933 316.178 248.282 315.249 250C314.524 251.342 311.804 251.041 312.249 252.5C312.534 253.434 313.504 253.369 314.249 254C316.044 255.519 321.496 259.807 318.749 262.5C317.688 263.541 317.595 264.509 318.249 265.5C318.73 266.229 319.639 265.876 320.249 266.5C320.616 266.874 320.864 267.328 321.03 267.802C321.47 269.062 322.949 270.15 324.143 269.553C325.16 269.045 326.371 269.712 326.484 270.843L326.635 272.36C326.708 273.088 327.076 273.754 327.654 274.204L330.534 276.444C331.004 276.809 331.378 277.283 331.625 277.824C332.294 279.291 333.838 280.153 335.438 279.953L336.104 279.87C336.532 279.817 336.966 279.824 337.392 279.891L338.748 280.105C340.403 280.366 342.088 280.313 343.754 280.137C344.679 280.04 345.746 279.969 346.75 280C348.506 280.055 349.006 277.6 350.749 278.5C354.755 280.568 350.759 294.944 356.749 295.5C357.332 295.554 358.207 296.557 358.749 295.5C359.446 294.143 363.106 292.574 362.249 290C361.393 287.426 354.636 282.323 354.249 280.5C353.915 278.924 352.95 278.1 352.249 276.5C351.312 276.165 350.799 276.569 349.749 276.5C346.609 276.991 342.543 277.886 339.749 278C337.594 278.088 335.221 278.601 332.249 276C330.985 274.894 329.873 274.175 329.749 272.5C329.64 271.017 330.32 270.161 331.249 269C332.401 267.562 334.108 267.946 335.249 266.5C336.397 265.046 335.658 263.497 336.749 262C337.993 260.293 338.941 259.589 340.988 259.069C342.502 258.684 343.684 259.429 344.988 258.569C346.381 257.65 345.494 255.099 346.749 254C347.961 252.939 348.652 251.794 350.249 252C352.076 252.236 353.923 257.813 354.25 256C354.436 254.965 356.729 251.837 359.249 251C359.561 250.896 359.873 250.857 360.181 250.872C366.701 251.184 371.774 258.46 374.249 264.5C375.286 267.029 374.46 273.267 377.249 276C378.751 277.472 382.515 275.949 384.749 277.5C385.751 278.195 386.135 279.593 386.481 281.061C387.449 285.172 394.756 285.277 394.749 289.5C394.746 291.576 392.789 292.274 392.749 294.5C392.728 295.735 395.672 296.24 397.249 299C398.077 300.448 398.749 301.332 398.749 303C398.749 304.668 398.322 305.722 397.249 307Z" fill="white"/>
<path d="M315.769 234.5H314.81C314.105 234.5 313.401 234.43 312.709 234.292L311.249 234L309.724 233.695C309.121 233.574 308.629 233.14 308.435 232.557C308.315 232.196 308.077 231.885 307.76 231.674L306.749 231L305.662 230.457C305.09 230.17 304.693 229.623 304.599 228.99L304.584 228.891C304.546 228.634 304.572 228.372 304.66 228.129L304.867 227.557C305.071 226.992 304.742 226.373 304.158 226.227C303.645 226.099 303.316 225.598 303.403 225.076L303.639 223.66C303.711 223.227 303.893 222.82 304.167 222.477L304.648 221.876C305.364 220.981 306.342 220.331 307.444 220.016L309.249 219.5L312.249 218.5L314.374 218.075C314.624 218.025 314.877 218 315.132 218H316.779C317.365 218 317.892 217.643 318.109 217.099C318.442 216.268 317.939 215.338 317.06 215.162L316.249 215L314.919 214.778C313.87 214.603 312.968 213.937 312.492 212.986L312.147 212.295C311.896 211.794 311.896 211.206 312.147 210.705L312.536 209.926C312.887 209.225 312.447 208.385 311.671 208.275L311.435 208.241C310.676 208.132 310.311 207.251 310.771 206.638C311.051 206.264 311.038 205.747 310.739 205.388L309.686 204.124C309.125 203.451 309.051 202.497 309.502 201.745C309.95 200.998 310.819 200.614 311.673 200.785L313.747 201.199C314.726 201.395 315.626 201.877 316.333 202.584L316.881 203.132C317.448 203.699 318.165 204.092 318.948 204.266L319.836 204.464C321.246 204.777 322.249 206.047 322.249 207.492C322.249 208.141 322.46 208.781 322.849 209.3L322.929 209.406C323.445 210.095 324.256 210.5 325.117 210.5C325.842 210.5 326.537 210.788 327.05 211.301L329.536 213.786C329.999 214.25 330.299 214.851 330.392 215.499L330.442 215.849C330.62 217.095 329.882 218.289 328.688 218.687C328.083 218.889 327.426 218.861 326.84 218.61L324.249 217.5L322.301 216.85C321.697 216.649 321.038 216.922 320.754 217.491C320.465 218.068 320.652 218.768 321.188 219.126L321.749 219.5C323.625 221.063 324.604 223.456 324.361 225.886L324.321 226.278C324.273 226.758 324.183 227.233 324.05 227.698L323.847 228.407C323.455 229.78 322.719 231.03 321.71 232.039C320.134 233.615 317.997 234.5 315.769 234.5Z" fill="white"/>
<path d="M190.196 319.5H190.049C189.85 319.5 189.651 319.48 189.455 319.441L186.773 318.905C185.466 318.643 184.293 317.929 183.46 316.889C182.991 316.302 182.643 315.628 182.437 314.906L181.749 312.5L180.527 309.648C180.343 309.218 180.101 308.815 179.809 308.449L179.467 308.022C178.697 307.06 177.532 306.5 176.3 306.5C175.611 306.5 174.933 306.324 174.331 305.99L173.657 305.615C171.816 304.593 170.531 302.799 170.154 300.727L169.909 299.38C169.803 298.795 169.749 298.2 169.749 297.605V296.376C169.749 294.17 169.129 292.008 167.96 290.137C167.488 289.381 166.931 288.682 166.301 288.052L164.486 286.237C163.667 285.418 162.721 284.736 161.684 284.218L161.292 284.021C158.726 282.738 156.849 280.398 156.153 277.615L155.993 276.976C155.832 276.33 155.78 275.661 155.84 274.998L155.922 274.095C156.116 271.97 157.702 270.236 159.801 269.854C161.048 269.628 162.333 269.909 163.372 270.636L164.242 271.245C165.846 272.367 166.931 274.088 167.252 276.019L167.604 278.13C167.701 278.708 167.866 279.272 168.096 279.81L170.051 284.37C170.446 285.291 171.481 285.756 172.431 285.439C173.218 285.177 174.085 285.448 174.583 286.111L177.454 289.939C177.981 290.642 178.613 291.26 179.328 291.77L182.792 294.245C184.426 295.412 185.933 296.746 187.29 298.226L189.753 300.913C190.412 301.632 190.939 302.461 191.31 303.363L193.566 308.841C193.951 309.776 193.549 310.85 192.645 311.302C191.466 311.892 191.211 313.462 192.143 314.394L192.386 314.636C192.625 314.876 192.805 315.167 192.912 315.488L192.967 315.654C193.598 317.546 192.19 319.5 190.196 319.5Z" fill="white"/>
<path d="M157.288 265.077L157.092 265.705C156.293 268.26 153.927 270 151.249 270C149.305 270 147.416 269.352 145.881 268.158L143.749 266.5L139.749 263.5L136.612 261.059C135.833 260.454 134.726 260.523 134.029 261.22C133.307 261.942 132.151 261.987 131.375 261.322L129.734 259.915C129.413 259.64 129.134 259.319 128.907 258.962L127.953 257.463C126.507 255.19 125.649 252.593 125.457 249.906L125.351 248.42C125.283 247.476 125.308 246.527 125.426 245.587L125.589 244.282C126.008 240.928 127.868 237.921 130.681 236.046C131.719 235.353 132.863 234.833 134.067 234.504L139.062 233.142C141.497 232.478 144.062 233.625 145.19 235.882C145.558 236.617 145.749 237.428 145.749 238.25L145.749 240.653C145.749 242.704 146.908 244.579 148.743 245.497C150.028 246.139 151.005 247.266 151.459 248.628L152.692 252.326C153.062 253.438 153.563 254.502 154.184 255.496L156.541 259.266C157.625 261.002 157.898 263.124 157.288 265.077Z" fill="white"/>
<path d="M96.8174 189.423L97.4947 190.524C99.236 193.354 102.168 195.24 105.464 195.652L107.749 195.938L109.379 195.428C109.929 195.256 110.034 194.523 109.555 194.204C109.364 194.076 109.249 193.862 109.249 193.633V191.314C109.249 190.775 109.336 190.239 109.507 189.727L109.749 189C110.08 188.007 110.249 186.966 110.249 185.919V184.91C110.249 183.646 110.47 182.393 110.902 181.205C111.772 178.812 111.772 176.188 110.902 173.795L110.646 173.09C110.382 172.365 110.054 171.665 109.665 170.998L107.909 167.988C107.139 166.668 106.202 165.453 105.122 164.373C103.554 162.805 101.707 161.544 99.6748 160.655L95.1635 158.681C94.8881 158.561 94.6267 158.411 94.3836 158.234L92.1739 156.627C90.793 155.623 88.8352 156.363 88.4648 158.03C88.3269 158.651 87.9458 159.19 87.4068 159.527L85.8763 160.483C84.9777 161.045 83.794 160.772 83.2323 159.873C82.518 158.73 80.879 158.66 80.0703 159.739L78.9239 161.267C78.8077 161.422 78.7057 161.587 78.6191 161.76L78.5425 161.914C77.276 164.447 78.3027 167.527 80.8357 168.793L80.9062 168.828C81.1346 168.943 81.3543 169.074 81.5635 169.22L83.4801 170.562C85.2346 171.79 86.3521 173.734 86.53 175.869C86.6716 177.568 87.4108 179.162 88.6164 180.367L89.7663 181.517C90.4149 182.166 91.1884 182.676 92.0399 183.016L93.0129 183.405C94.7012 184.081 95.8893 185.62 96.1148 187.424C96.2034 188.133 96.443 188.815 96.8174 189.423Z" fill="white"/>
<path d="M59.2281 119.848L61.4269 124.001C62.304 125.658 63.4239 127.174 64.7493 128.5L68.1316 132.258C68.8511 133.058 69.2493 134.095 69.2493 135.171C69.2493 136.891 68.236 138.45 66.6638 139.149L66.3334 139.296C65.3083 139.752 64.1581 139.842 63.0742 139.553L58.8097 138.416C57.7716 138.139 56.7102 137.959 55.6389 137.878L53.0801 137.684C51.4659 137.562 49.8732 137.238 48.3391 136.721L45.5323 135.775C43.0862 134.951 41.0015 133.304 39.6334 131.115L39.2863 130.559C37.6851 127.997 37.3527 124.841 38.3851 122.001C38.6272 121.336 38.7965 120.646 38.8901 119.944L39.3079 116.81C39.5915 114.683 40.6733 112.744 42.334 111.385L42.5201 111.233C44.2572 109.812 46.5162 109.195 48.7345 109.536C50.6748 109.835 52.4348 110.844 53.6728 112.367L56.9317 116.378C57.8085 117.457 58.5776 118.619 59.2281 119.848Z" fill="white"/>
<path d="M311.691 185.584L311.642 186.068C311.413 188.361 309.612 190.182 307.322 190.436C306.942 190.479 306.557 190.476 306.177 190.429L304.289 190.193C303.361 190.077 302.6 189.402 302.373 188.494C302.291 188.169 302.283 187.829 302.349 187.501L302.643 186.03C302.713 185.68 302.719 185.319 302.66 184.966L302.646 184.882C302.417 183.507 301.228 182.5 299.834 182.5C299.448 182.5 299.066 182.578 298.711 182.73L297.363 183.308C296.321 183.755 295.471 184.557 294.964 185.571L294.808 185.882C294.445 186.608 293.857 187.196 293.131 187.559C291.962 188.144 290.573 188.078 289.465 187.385L287.249 186L285.757 184.757C284.82 183.976 284.354 182.765 284.527 181.557C284.668 180.566 285.225 179.683 286.058 179.128L287.422 178.218C288.61 177.426 289.519 176.281 290.02 174.944L290.17 174.544C290.548 173.538 291.216 172.666 292.091 172.042C293.452 171.069 295.187 170.781 296.79 171.262L298.677 171.828C299.057 171.942 299.423 172.099 299.768 172.296L301.401 173.23C302.219 173.697 303.237 173.634 303.992 173.068C304.478 172.704 304.805 172.165 304.905 171.566L305.027 170.833C305.172 169.966 305.583 169.166 306.205 168.544L306.811 167.938C307.431 167.319 308.163 166.823 308.969 166.477L312.228 165.081C313.872 164.376 315.715 164.176 317.475 164.496C319.264 164.821 320.938 165.689 322.224 166.974L322.48 167.231C322.989 167.74 323.414 168.329 323.736 168.973L324.523 170.547C325.264 172.031 325.035 173.816 323.943 175.064L323.649 175.4C322.794 176.378 322.575 177.76 323.087 178.954C323.504 179.928 323.44 181.041 322.915 181.96L322.894 181.997C322.201 183.21 320.846 183.887 319.46 183.714L318.232 183.56C317.911 183.52 317.595 183.449 317.288 183.346L315.874 182.875C314.368 182.373 312.722 183.055 312.012 184.475C311.838 184.822 311.729 185.198 311.691 185.584Z" fill="white"/>
</g>
</g>
<path id="Sumatera" fill-rule="evenodd" clip-rule="evenodd" d="M111.121 126.111L111.133 126.119C111.924 126.635 112.671 127.123 113.115 128.096C113.8 129.585 113.446 130.796 112.998 132.328L112.997 132.334L112.864 132.79C112.524 133.971 112.478 135.134 112.561 136.278C111.568 136.041 110.454 136.037 109.159 136.365C108.364 136.565 107.572 136.856 106.781 137.145C104.41 138.014 102.049 138.879 99.6757 137.318C94.9445 134.206 93.905 130.673 95.3725 125.977C96.3774 122.76 97.0869 118.424 94.7328 115.715C93.6418 114.458 92.3361 113.491 91.0256 112.52C89.3886 111.307 87.7441 110.089 86.5014 108.295C83.5449 104.026 81.3329 99.428 79.3513 94.6412C77.7404 90.7518 76.4853 90.8138 72.978 90.987C72.7744 90.9971 72.5632 91.0075 72.3437 91.0175C72.2016 91.024 72.0561 91.0304 71.9069 91.0364L71.6779 91.0452C69.624 91.1196 67.4562 91.1754 65.4675 90.6265C64.5925 90.3847 64.0266 90.05 63.4274 89.6956C62.9836 89.433 62.5214 89.1597 61.9018 88.9053C61.7773 86.0076 60.1218 83.9015 58.4426 81.7649C57.7993 80.9465 57.1525 80.1237 56.5869 79.2502L56.1711 78.6067C54.6337 76.2247 53.1616 73.9436 51.1464 71.8838C49.5485 70.2509 47.8156 68.767 45.6293 68.0552C44.9758 67.8423 44.0927 67.759 43.1848 67.6733C41.9306 67.555 40.6293 67.4323 39.8212 66.9574C37.1137 65.3664 34.7924 59.605 33.8481 56.8254L33.7368 56.4967C33.1254 54.6937 32.5036 52.8592 31.3571 51.3245C31.1669 51.0698 30.989 50.8431 30.8237 50.6364C30.7412 50.5333 30.6618 50.4351 30.5856 50.3409C29.6203 49.1464 29.1706 48.5901 29.3474 46.6307C29.5461 44.4147 29.3766 42.8674 29.142 40.7282L29.1413 40.7216L29.1406 40.7175L29.1288 40.6111C29.0102 39.5155 28.852 37.6501 29.2846 36.6406C29.5078 36.1199 29.7619 35.9656 30.0334 35.8008C30.2372 35.677 30.4511 35.5473 30.6686 35.252C31.0693 34.7075 31.4013 34.1599 31.7121 33.6473C32.8642 31.7466 33.7245 30.327 36.716 31.3327C38.5583 31.952 39.8124 33.3603 41.0544 34.7549C42.061 35.8853 43.0595 37.0068 44.3569 37.692C44.8925 37.9752 45.5056 38.0598 46.124 38.1451C46.7192 38.2272 47.319 38.3099 47.8598 38.5712C49.0021 39.1226 49.9487 40.1072 50.8654 41.0607L50.8698 41.0654C51.2509 41.4617 51.6266 41.8524 52.0095 42.2043C55.0471 44.9978 58.008 47.368 62.0158 48.6194C66.1955 49.9266 69.7914 50.8756 73.2805 47.4355C75.9343 44.8187 77.8439 44.4419 81.7841 45.7282C82.5673 45.9834 83.0969 46.5047 83.6298 47.029C84.3061 47.6946 84.9877 48.3652 86.1989 48.5031C88.2761 48.738 91.0671 46.9982 92.6721 45.8677C92.9465 45.6741 93.226 45.404 93.5112 45.1285C94.0551 44.6032 94.6191 44.0586 95.205 43.9884C96.6752 43.8139 100.576 45.9143 101.474 47.047C101.902 47.5876 102.062 48.2646 102.222 48.9398L102.223 48.9431C102.342 49.4434 102.46 49.9427 102.688 50.3848C103.611 52.1724 104.935 53.7643 106.263 55.36L106.265 55.3625C107.423 56.7537 108.583 58.1478 109.482 59.6771C110.49 61.3951 111.508 61.9114 112.748 62.5402C113.333 62.8367 113.968 63.1583 114.674 63.6428C115.539 64.236 115.918 64.5988 116.388 65.5874C116.735 66.32 116.819 67.076 116.904 67.834C116.995 68.6428 117.086 69.454 117.495 70.2417C117.995 71.2093 118.688 72.0583 119.497 72.8188C119.4 72.7979 119.307 72.7793 119.205 72.7584C117.623 72.4257 115.65 72.0117 114.52 73.2026C113.278 74.5098 113.645 76.1357 113.971 77.5708C114.313 79.085 114.608 80.3922 113.49 81.5366C113.131 81.9018 112.738 82.2158 112.32 82.5507L112.3 82.5659C111.474 83.2287 110.618 83.9151 110.101 85.0116C109.856 85.5326 109.677 85.9815 109.512 86.4049C109.14 87.3515 108.845 88.0982 107.94 89.1937C105.304 92.3896 106.572 93.9457 107.916 95.5948C108.524 96.3391 109.212 97.1835 109.675 98.2999C110.41 100.072 110.368 101.41 109.545 102.51C109.168 103.012 108.828 103.231 108.5 103.44C107.817 103.878 107.365 104.264 107.354 105.603C107.344 106.715 108.096 107.922 108.824 109.09L108.849 109.13L108.854 109.138C109.206 109.705 109.542 110.246 109.766 110.737C109.132 110.992 108.498 111.2 107.92 111.39L107.854 111.411C106.17 111.963 104.841 112.398 104.595 113.523C104.374 114.526 105.149 115.759 107.186 117.645C107.477 117.913 107.777 118.145 108.065 118.366L108.068 118.368C108.857 118.972 109.426 119.407 109.468 120.411C109.505 121.295 109.242 121.655 108.987 122.004C108.426 122.772 108.335 123.36 109.342 124.63C109.866 125.288 110.503 125.705 111.12 126.109L111.121 126.111ZM130.327 151.779C130.896 151.976 131.531 151.864 132.115 151.761C133.021 151.601 133.807 151.462 134.042 152.53C135.777 153.893 135.288 157.156 134.859 160.022C134.636 161.511 134.43 162.893 134.558 163.846C134.868 166.136 135.975 168.023 137.065 169.879C138.028 171.521 138.978 173.139 139.35 174.992C139.983 178.142 139.215 182.531 138.64 185.81L138.519 186.501C138.465 186.818 138.392 187.183 138.313 187.581C137.798 190.165 137.005 194.149 138.964 195.726C140.266 196.773 141.931 196.966 143.646 197.164C145.273 197.352 146.945 197.545 148.391 198.48C149.068 197.863 149.735 197.224 150.382 196.519C152.28 194.456 153.364 193.807 156.455 193.751C157.935 193.737 158.393 193.96 159.074 194.377L159.085 194.383C159.333 194.535 159.615 194.707 160.044 194.895C161.737 195.635 165.015 196.254 166.673 195.23C167.289 194.851 167.611 194.274 167.655 193.467C167.731 192.058 167.159 190.946 166.552 189.769C165.65 188.017 164.719 186.208 166.101 183.547L166.301 183.161L166.722 183.27C167.289 183.417 167.953 183.712 168.653 184.024L168.665 184.029C170.463 184.828 172.494 185.731 173.788 184.682C174.723 183.926 174.437 183.191 173.805 181.851C173.572 181.36 173.332 180.851 173.2 180.323C172.719 178.415 173.218 177.131 173.702 175.887L173.702 175.885C173.935 175.29 174.174 174.673 174.307 173.98C174.616 172.347 174.069 171.315 173.435 170.12L173.433 170.114L173.43 170.11C173.047 169.388 172.65 168.64 172.432 167.721L172.321 167.251L172.772 167.081C173.886 166.663 175.433 166.577 177.07 166.487L177.098 166.486C181.464 166.249 184.541 165.811 184.369 162.35C184.23 159.557 181.459 158.554 178.78 157.587C176.391 156.724 173.923 155.833 174.342 153.488C174.654 151.744 176.375 150.664 178.04 149.622C179.945 148.429 181.743 147.303 181.478 145.347C181.388 144.688 181.035 144.104 180.663 143.487L180.652 143.47L180.65 143.467C180.153 142.646 179.589 141.717 179.578 140.467C179.566 139.021 179.968 137.006 180.578 135.457C180.896 134.652 181.324 134.094 181.704 133.603L181.707 133.599C182.257 132.882 182.692 132.315 182.667 131.145C182.662 130.905 182.632 130.67 182.606 130.433C182.032 130.026 181.506 129.596 181.18 129.119C180.716 128.44 180.725 127.936 180.734 127.362C180.74 127.011 180.747 126.634 180.645 126.174C180.199 124.151 178.261 122.325 176.135 121.406C175.851 121.709 175.61 122.132 175.365 122.561L175.364 122.564C174.727 123.681 174.065 124.845 172.549 124.076C171.247 123.417 171.161 120.905 171.1 119.143C171.084 118.661 171.069 118.236 171.032 117.919C170.853 116.37 170.525 114.81 169.539 113.572C169.367 113.356 169.076 113.151 168.78 112.942C168.406 112.678 168.025 112.408 167.869 112.107C167.471 111.341 167.372 110.51 167.269 109.654C167.145 108.616 167.017 107.541 166.348 106.501C165.011 104.425 163.773 104.436 162.252 104.449C161.301 104.458 160.239 104.468 158.974 103.968C158.018 103.592 157.217 102.837 156.413 102.078L156.412 102.077C155.79 101.491 155.167 100.903 154.469 100.486C152.865 99.5284 151.492 99.2965 149.931 99.0328C149.384 98.9405 148.814 98.8442 148.203 98.7115C147.311 98.5177 146.551 98.01 145.791 97.5027L145.789 97.5015C145.272 97.1568 144.757 96.8124 144.2 96.5669C143.769 96.377 143.356 96.2412 142.955 96.1089C142.121 95.8347 141.334 95.5757 140.529 94.8806C139.912 94.3488 139.491 93.5783 139.088 92.8405C138.721 92.168 138.369 91.5227 137.896 91.1102C137.343 90.6276 136.318 90.131 135.483 89.7261C135.243 89.61 135.019 89.5014 134.826 89.4029C134.34 89.1542 133.88 88.9616 133.446 88.7799C132.183 88.2514 131.139 87.815 130.334 86.3559C128.831 83.6332 129.501 81.4614 130.32 78.8052C130.387 78.5886 130.455 78.3688 130.523 78.1452C127.632 77.2729 123.966 76.0751 121.117 74.1049C120.877 74.098 120.637 74.0887 120.395 74.0654C119.987 74.0268 119.518 73.9284 119.023 73.8241L118.986 73.8165L118.971 73.8132C117.659 73.5393 116.027 73.1985 115.318 73.9445C114.478 74.8283 114.739 75.982 115.043 77.3171C115.404 78.9104 115.813 80.7177 114.278 82.2877C113.873 82.7017 113.434 83.053 113.008 83.3926C112.236 84.009 111.508 84.5928 111.094 85.4674C110.861 85.9628 110.692 86.3908 110.533 86.7955L110.53 86.8038L110.53 86.8056C110.138 87.7968 109.799 88.6534 108.789 89.8797C106.723 92.3825 107.451 93.2756 108.77 94.8945L108.774 94.8991C109.427 95.7004 110.167 96.6089 110.692 97.8718C111.578 100.007 111.489 101.733 110.429 103.154C109.933 103.815 109.452 104.124 109.101 104.35C108.626 104.654 108.466 104.757 108.459 105.603C108.452 106.394 109.115 107.46 109.758 108.492L109.763 108.501C110.28 109.33 110.768 110.113 111.001 110.862L111.145 111.328L110.698 111.525C109.836 111.907 108.97 112.191 108.205 112.439L108.201 112.441C106.959 112.847 105.786 113.231 105.674 113.747C105.593 114.121 105.919 114.963 107.942 116.835C108.196 117.069 108.458 117.271 108.711 117.466L108.745 117.491L108.749 117.495C109.615 118.159 110.51 118.845 110.573 120.357C110.626 121.619 110.18 122.231 109.884 122.636L109.882 122.639C109.615 123.004 109.545 123.102 110.212 123.941C110.626 124.464 111.163 124.816 111.734 125.19L111.745 125.197C112.59 125.749 113.546 126.377 114.122 127.63C114.977 129.491 114.533 131.014 114.061 132.628L114.06 132.634L113.929 133.082C113.587 134.28 113.578 135.467 113.706 136.667C115.837 137.655 117.373 139.809 118.975 142.053L119.212 142.385C119.335 142.556 119.457 142.727 119.581 142.898C119.684 143.041 119.788 143.184 119.893 143.326C122.37 146.71 126.297 150.381 130.327 151.779ZM64.5952 131.261C64.9655 131.628 65.2653 131.924 64.9116 132.475C65.3569 132.703 65.2018 132.831 64.9567 133.035C64.9008 133.081 64.8403 133.131 64.7812 133.187C64.7241 133.241 64.6691 133.314 64.6147 133.397C64.5932 133.429 64.572 133.463 64.5505 133.497L64.4953 133.587C64.3557 133.816 64.2094 134.055 64.0253 134.139C63.5346 134.362 62.5414 134.011 62.0878 133.822C61.3996 133.535 60.8388 133.051 60.2775 132.565C59.6833 132.052 59.0883 131.538 58.3408 131.257C57.8278 131.065 57.332 130.959 56.8598 130.858C55.8483 130.642 54.9462 130.449 54.2214 129.487C53.5739 128.628 52.8063 128.342 51.9626 128.028C51.5634 127.88 51.1472 127.725 50.7184 127.5C49.174 126.691 48.0016 126.854 46.3967 127.3C45.0895 127.663 43.8708 126.742 42.8823 125.993C41.5495 124.981 41.0563 124.002 41.2983 122.323C41.4204 121.47 41.8456 120.718 42.2695 119.968C42.5644 119.447 42.8588 118.926 43.0497 118.373C43.1379 118.119 43.1679 117.841 43.1977 117.566C43.2394 117.181 43.2805 116.801 43.4799 116.505C44.0405 115.677 46.5734 115.035 47.5505 115.412C48.0256 115.595 48.2394 116.078 48.4389 116.529C48.4699 116.599 48.5007 116.668 48.5319 116.736C48.6386 116.965 48.7414 117.209 48.8464 117.459C49.2958 118.527 49.7871 119.694 50.8068 120.25C51.5829 120.673 52.4738 120.628 53.3549 120.583C53.8784 120.556 54.3984 120.529 54.8889 120.601C56.1445 120.787 56.2866 121.514 56.4565 122.384C56.5319 122.769 56.6127 123.183 56.7985 123.59C56.9921 124.014 57.3864 124.265 57.8 124.528C58.0624 124.695 58.3327 124.867 58.5639 125.091C59.0009 125.512 59.33 126.02 59.6557 126.524C59.904 126.908 60.1503 127.289 60.4411 127.626C60.7253 127.956 61.0629 128.139 61.4167 128.33C61.6013 128.43 61.7902 128.532 61.9785 128.659C62.6367 129.102 63.1872 129.721 63.7292 130.331L63.7307 130.332L63.7365 130.339C63.9775 130.61 64.2167 130.878 64.4626 131.129L64.5204 131.187L64.5952 131.261ZM106.405 174.525C106.063 174.025 105.717 173.512 105.367 172.992L105.365 172.989C103.435 170.126 101.362 167.053 98.9848 164.695C98.2033 163.921 97.3073 163.197 96.4243 162.484L96.4206 162.481L96.4184 162.48C95.9472 162.099 95.4797 161.722 95.0353 161.341C94.6569 161.017 94.226 160.594 93.7712 160.146L93.7631 160.139L93.7587 160.134C92.8027 159.194 91.7426 158.151 90.8439 157.708C90.7841 157.809 90.7221 157.916 90.6579 158.027C89.9616 159.225 88.9985 160.882 87.6806 161.329C86.8786 161.601 86.0212 161.479 85.1828 161.359C83.9741 161.187 82.8046 161.021 81.8981 162.048C80.9933 163.074 80.9538 164.397 81.9494 165.27C82.9067 166.109 84.1342 166.275 85.2853 166.431C86.9645 166.658 88.4811 166.863 88.7597 169.103C88.8813 170.081 88.8598 171.012 88.8398 171.88C88.7824 174.347 88.737 176.296 92.0324 177.318C92.1752 177.363 92.3168 177.404 92.4575 177.444C92.5568 177.473 92.6557 177.5 92.7538 177.528L92.7641 177.531L92.7663 177.531C93.8791 177.843 94.9099 178.131 95.8005 179.125C95.9953 179.343 96.2116 179.58 96.4404 179.83C97.5739 181.069 99.0097 182.639 99.6291 183.856C100.047 184.678 100.086 185.545 100.125 186.394C100.172 187.44 100.218 188.458 100.971 189.327C102.274 190.832 105.056 191.393 106.958 191.521C106.979 191.272 107.005 190.974 105.688 190.567C105.662 189.538 105.865 188.546 106.066 187.561C106.316 186.335 106.564 185.122 106.365 183.866C106.29 183.395 106.175 182.948 106.061 182.505L106.06 182.502C105.862 181.731 105.666 180.97 105.688 180.116C105.718 178.978 106.198 178.373 106.617 177.846C107.237 177.064 107.723 176.453 106.405 174.525ZM133.924 204.077C133.62 203.921 133.325 203.771 133.067 203.713C131.935 203.462 130.911 203.692 129.877 203.923C129.225 204.069 128.57 204.216 127.883 204.244C126.606 204.295 125.724 203.337 125.529 202.106C125.471 201.741 125.466 201.522 125.696 201.213C126.059 200.727 127.238 200.003 127.829 199.838C128.011 199.787 128.231 199.823 128.433 199.857C128.514 199.87 128.591 199.883 128.662 199.889C129.21 199.94 129.756 199.919 130.302 199.898C130.609 199.886 130.915 199.875 131.223 199.875C131.248 199.763 131.427 199.816 131.665 199.887C131.775 199.92 131.898 199.957 132.025 199.982C132.267 200.032 132.526 200.073 132.791 200.115C133.443 200.218 134.132 200.328 134.695 200.576C135.775 201.052 136.356 202.427 136.019 203.516L136.001 203.576C135.872 203.997 135.734 204.447 135.314 204.509C134.893 204.571 134.396 204.318 133.924 204.077ZM124.924 212.75C124.112 212.008 124.399 210.876 124.661 209.84C124.773 209.397 124.881 208.972 124.896 208.602C124.953 207.29 123.68 207.058 122.452 206.833C121.708 206.697 120.98 206.564 120.574 206.195C120.418 206.053 120.289 205.86 120.163 205.671C119.826 205.166 119.513 204.696 118.765 205.346C118.292 205.758 118.337 206.514 118.404 207.088C118.447 207.454 118.627 207.736 118.804 208.013C118.946 208.235 119.086 208.454 119.151 208.71C119.306 209.315 118.843 209.729 118.358 210.163C117.863 210.606 117.346 211.069 117.444 211.775C117.55 212.538 118.167 212.871 118.855 212.989C119.14 213.038 119.432 213.005 119.723 212.971C119.874 212.954 120.025 212.937 120.174 212.931C120.402 212.922 120.585 212.987 120.77 213.053C120.863 213.086 120.957 213.119 121.058 213.143C121.132 213.161 121.209 213.174 121.293 213.178C121.598 213.194 121.76 213.264 122.042 213.392C122.098 213.417 122.158 213.441 122.221 213.466C122.474 213.566 122.754 213.678 122.87 213.924C122.973 214.142 122.899 214.387 122.826 214.63L122.825 214.632C122.777 214.794 122.728 214.955 122.733 215.106C122.74 215.333 122.809 215.369 122.9 215.416C122.917 215.425 122.935 215.434 122.954 215.445C123.003 215.475 123.056 215.517 123.107 215.597C123.177 215.704 123.212 215.883 123.221 216.064C123.226 216.151 123.227 216.239 123.223 216.318C123.221 216.349 123.219 216.38 123.216 216.408C123.212 216.442 123.208 216.474 123.203 216.501C123.119 216.988 122.884 217.169 122.456 217.169C122.394 217.169 122.33 217.168 122.263 217.167L122.219 217.167C121.611 217.159 120.868 217.149 120.418 217.567C120.333 217.647 120.238 217.73 120.139 217.818C119.639 218.261 119.028 218.802 118.923 219.425C118.869 219.744 119.006 220.075 119.142 220.402C119.287 220.754 119.431 221.101 119.332 221.423C119.285 221.578 119.208 221.695 119.131 221.811C119.033 221.959 118.935 222.107 118.897 222.335C118.839 222.684 118.876 223.01 118.979 223.345C119.133 223.849 119.34 224.352 119.546 224.853C119.679 225.177 119.812 225.5 119.93 225.822L119.958 225.898C120.122 226.353 120.486 227.357 120.909 227.589C121.614 227.978 122.04 226.766 122.11 226.268C122.118 226.207 122.125 226.147 122.131 226.089C122.14 226.006 122.147 225.925 122.154 225.847L122.154 225.837C122.21 225.199 122.251 224.727 123.024 224.47C124.124 224.104 124.176 223.29 124.248 222.15L124.252 222.093C124.256 222.022 124.26 221.951 124.264 221.881C124.289 221.408 124.312 220.952 124.577 220.535C124.858 220.091 125.288 219.861 125.723 219.628C125.889 219.538 126.057 219.449 126.217 219.346C127.506 218.518 127.731 217.602 127.657 216.201C127.583 214.731 126.834 214.192 125.931 213.541C125.607 213.308 125.263 213.06 124.924 212.75ZM141.929 243.318C144.39 244.565 145.293 245.972 146.549 248.409C147.195 249.666 147.431 251.027 147.668 252.397C147.868 253.556 148.069 254.72 148.521 255.834C148.622 256.082 148.796 256.434 148.995 256.838C149.581 258.024 150.387 259.659 150.219 260.437C149.76 262.556 146.754 261.289 145.095 260.589C144.836 260.48 144.611 260.385 144.432 260.318C142.688 259.667 142.094 259.402 141.129 257.888L140.986 257.661C140.203 256.425 139.6 255.473 138.231 254.727C136.47 253.766 134.026 253.101 132.051 253.759C131.954 253.184 131.672 252.599 131.394 252.02C131.22 251.658 131.047 251.298 130.921 250.945C130.111 248.679 129.36 246.153 129.018 243.764C128.709 241.615 129.156 240.798 129.962 239.329C130.083 239.108 130.212 238.872 130.348 238.615C130.595 238.147 130.753 237.712 130.899 237.311C131.257 236.328 131.54 235.55 132.865 235.012C133.229 234.863 133.601 234.771 134.044 234.661C134.887 234.453 135.985 234.181 137.768 233.339C137.772 234.975 137.991 236.499 138.216 238.062L138.217 238.065L138.217 238.069L138.218 238.074L138.219 238.079C138.255 238.332 138.292 238.585 138.328 238.841C138.356 239.042 138.383 239.244 138.41 239.447C138.704 241.697 139.539 242.116 141.517 243.11C141.649 243.177 141.787 243.246 141.929 243.318ZM337.063 270.743C335.63 270.725 334.132 270.594 332.711 270.404L332.649 270.395C331.054 270.182 327.519 269.709 326.94 267.864C326.324 265.87 329.459 264.519 330.841 264.217C331.048 264.171 331.273 264.133 331.504 264.094C332.364 263.948 333.318 263.785 333.846 263.177C334.274 262.682 334.265 262.285 334.255 261.781C334.25 261.551 334.245 261.298 334.281 261.004C334.404 259.983 334.967 258.483 335.923 258.176C336.54 257.979 337.151 258.022 337.747 258.064C338.669 258.129 339.555 258.191 340.37 257.36C340.891 256.828 341.235 255.973 341.585 255.104C342.065 253.912 342.555 252.693 343.527 252.249C344.626 251.747 345.671 252.816 346.661 253.83C347.702 254.896 348.684 255.901 349.607 254.952C349.923 254.627 350.062 254.009 350.202 253.39C350.312 252.903 350.422 252.414 350.619 252.068C351.33 250.817 351.712 250.286 353.112 250.717C354.764 251.224 355.521 252.551 356.294 253.904C356.852 254.882 357.418 255.873 358.334 256.578C358.979 257.075 359.851 257.434 360.734 257.799C362.771 258.64 364.871 259.508 364.412 262.139C364.252 263.052 363.818 263.872 363.382 264.696C362.914 265.58 362.443 266.469 362.302 267.487C362.02 269.536 362.353 271.378 363.423 273.137C364.851 275.484 366.817 277.412 369.489 278.338C370 278.515 370.517 278.543 371.033 278.571C371.439 278.593 371.843 278.616 372.243 278.71C372.932 278.871 373.531 279.251 374.134 279.632C374.247 279.703 374.36 279.775 374.473 279.845C374.583 279.912 374.693 279.979 374.804 280.042C375.098 280.211 375.503 280.488 375.966 280.805C377.419 281.799 379.448 283.188 380.445 282.862C381.74 282.14 384.278 283.406 383.512 284.75C383.261 285.191 382.781 285.425 382.296 285.66C381.647 285.975 380.99 286.293 380.859 287.118C380.752 287.791 381.086 288.451 381.429 289.127C381.758 289.774 382.094 290.437 382.056 291.142C380.503 291.442 378.407 292.07 377.751 293.696C377.047 295.44 378.118 296.969 379.07 298.327L379.193 298.503L379.256 298.593L379.337 298.711L379.386 298.783C380.377 300.234 381.535 302.353 379.714 303.626C377.209 305.377 374.697 302.649 373.206 300.802C373.045 300.603 372.917 300.418 372.798 300.246C372.461 299.759 372.202 299.385 371.503 299.132C370.856 298.897 370.208 298.79 369.559 298.684C368.793 298.558 368.025 298.432 367.254 298.094C366.605 297.811 365.99 297.432 365.377 297.054C364.403 296.454 363.434 295.857 362.339 295.65C361.738 295.536 361.17 295.497 360.624 295.46C359.355 295.372 358.204 295.293 357.031 294.308C355.938 293.389 354.487 291.944 354.987 290.472C355.212 289.809 355.693 289.107 356.189 288.384C357.029 287.158 357.912 285.871 357.657 284.613C357.422 283.454 356.196 282.312 355.301 281.478L355.284 281.463C355.192 281.377 355.103 281.294 355.019 281.215C354.626 280.843 354.164 280.468 353.683 280.078C352.067 278.768 350.251 277.296 350.226 275.232C350.217 274.558 350.472 274.022 350.73 273.48C350.906 273.109 351.084 272.737 351.179 272.316C351.528 270.776 350.67 268.785 349.014 268.503C348.459 268.409 348.056 268.579 347.645 268.752C347.355 268.874 347.06 268.998 346.706 269.031C346.456 269.055 346.238 268.988 346.026 268.923C345.839 268.866 345.658 268.811 345.464 268.82C344.778 268.847 344.087 269.157 343.427 269.452C343.143 269.58 342.864 269.705 342.594 269.803C340.761 270.471 339 270.766 337.063 270.743ZM409.962 303.698C408.893 304.589 407.264 305.948 405.909 305.084C403.966 303.844 403.987 300.804 404.003 298.439V298.438C404.007 297.901 404.01 297.4 403.99 296.962L403.98 296.748C403.915 295.388 403.839 293.809 404.621 292.649C404.927 292.194 405.48 291.843 406.021 291.5C406.576 291.149 407.117 290.805 407.365 290.367C407.622 289.915 407.563 289.162 407.513 288.512C407.494 288.266 407.476 288.036 407.477 287.841C407.479 287.042 407.342 286.232 407.205 285.425L407.204 285.423V285.421V285.419V285.417V285.415V285.413V285.411V285.409V285.407V285.406V285.404V285.402L407.204 285.396V285.395V285.394V285.392V285.391V285.389V285.388V285.386V285.384V285.383V285.381V285.38V285.378V285.376V285.375V285.373V285.371V285.369V285.368V285.366V285.364V285.362V285.36V285.358V285.356C407.048 284.443 406.892 283.535 406.944 282.652C407.739 282.508 407.97 282.102 408.185 281.725C408.317 281.494 408.442 281.274 408.686 281.131C409.086 280.899 410.156 280.974 410.842 281.022L411.033 281.035C411.114 281.041 411.187 281.045 411.247 281.047C413.255 281.126 415.329 281.985 417.006 283.068C418.73 284.185 420.372 284.79 422.289 285.439L422.445 285.491C425.497 286.526 431.375 288.517 430.767 292.649C430.477 294.623 428.971 296.2 427.58 297.658L427.578 297.659C427.108 298.152 426.65 298.632 426.257 299.108C425.335 300.226 425.638 300.903 426.039 301.8C426.221 302.207 426.424 302.659 426.54 303.218C427.017 305.496 424.961 308.822 422.865 309.703C420.733 310.601 419.432 309.089 418.672 307.359C418.578 307.146 418.475 306.886 418.362 306.602L418.359 306.594L418.359 306.593C417.876 305.376 417.211 303.7 416.288 303.2C416.145 303.121 415.897 303.128 415.652 303.135C415.463 303.141 415.276 303.146 415.141 303.111C414.592 302.969 414.434 302.813 414.185 302.565C414.083 302.464 413.966 302.348 413.801 302.211C413.752 302.17 413.708 302.132 413.669 302.096C413.626 302.056 413.588 302.02 413.555 301.986L413.486 301.916C413.249 301.673 413.219 301.642 412.51 301.811C411.821 301.976 411.187 302.573 410.623 303.105C410.43 303.288 410.245 303.462 410.068 303.609L409.962 303.698ZM382.791 295.636C382.601 296.211 383.198 297.92 383.482 298.448C383.676 298.807 383.932 299.032 384.189 299.259C384.389 299.435 384.59 299.612 384.764 299.853C384.872 300.002 384.963 300.278 385.064 300.582C385.266 301.192 385.506 301.914 385.992 301.942C386.892 301.995 388.081 299.311 388.225 298.513C388.339 297.883 388.332 296.622 388.076 296.043C387.162 293.973 385.824 293.824 384.706 294.568C384.649 294.586 384.591 294.603 384.531 294.62C384.456 294.641 384.378 294.661 384.299 294.682C383.685 294.843 382.995 295.024 382.791 295.636ZM164.582 273.907L164.416 273.584L164.414 273.58L164.413 273.578C163.872 272.529 163.358 271.533 162.684 270.56C162.602 270.441 162.511 270.32 162.419 270.197C162.087 269.754 161.731 269.278 161.642 268.75C161.625 268.649 161.615 268.558 161.606 268.472C161.581 268.237 161.56 268.041 161.412 267.794C161.044 267.185 159.13 266.219 158.663 266.924C158.477 267.205 158.449 267.632 158.424 268.008V268.009L158.421 268.064C158.414 268.166 158.404 268.264 158.393 268.352C158.334 268.797 158.251 268.876 157.914 269.187C157.81 269.284 157.68 269.38 157.547 269.479C157.302 269.661 157.043 269.853 156.902 270.076C156.704 270.388 156.799 270.722 156.916 271.062C157.178 271.816 157.341 272.451 157.404 273.242C157.46 273.946 157.737 274.621 158.102 275.219C158.828 276.405 159.907 277.352 161.002 278.189C161.1 278.264 161.217 278.359 161.347 278.464L161.352 278.468L161.355 278.47C161.892 278.905 162.645 279.514 163.163 279.626C164.443 279.903 165.117 279.19 165.808 278.459L165.81 278.458C166.122 278.128 166.437 277.794 166.813 277.547C166.659 277.649 164.749 274.228 164.582 273.907ZM177.453 289.569C179.523 291.119 181.588 292.665 182.922 294.943C183.623 296.14 184.549 297.152 185.482 298.173L185.483 298.174C186.252 299.016 187.027 299.864 187.688 300.827C187.729 300.887 187.774 300.949 187.822 301.014L187.895 301.111L187.943 301.174L187.976 301.219L187.983 301.228L187.988 301.234C188.527 301.943 189.241 302.883 188.821 303.723C188.631 304.103 188.27 304.229 187.934 304.347C187.713 304.424 187.504 304.497 187.36 304.635C186.16 305.791 186.286 306.44 187.086 307.754C188.079 309.385 188.416 310.106 188.344 312.169C186.179 312.231 184.851 310.156 183.668 308.31C183.206 307.587 182.765 306.9 182.306 306.389C181.092 305.037 180.747 304.284 180.182 302.598C179.773 301.379 178.994 299.364 177.849 298.615C177.146 298.154 176.411 298.217 175.609 298.286C175.1 298.33 174.564 298.376 173.993 298.292C172.346 298.049 172.067 297.432 171.421 296.005C171.363 295.876 171.302 295.741 171.237 295.599C170.312 293.587 170.335 291.881 170.36 289.982V289.981V289.98V289.978V289.977V289.976V289.974V289.973V289.972V289.97V289.969V289.968V289.966V289.965V289.964V289.962V289.961V289.96V289.958V289.957V289.956C170.371 289.163 170.382 288.336 170.322 287.439C169.888 286.839 168.304 284.222 169.35 283.085C170.516 281.819 171.343 283.177 171.965 284.198L171.967 284.201L171.979 284.22L171.986 284.232L172.004 284.263L172.017 284.283C172.096 284.412 172.171 284.535 172.244 284.643C173.599 286.683 175.529 288.128 177.453 289.569ZM89.7995 142.354C89.8901 142.36 89.9775 142.364 90.0627 142.368C90.4279 142.386 90.7502 142.401 91.0881 142.563C91.1164 142.577 91.1445 142.594 91.1718 142.615C91.1862 142.625 91.2006 142.637 91.215 142.649C91.2697 142.694 91.3234 142.749 91.3771 142.804C91.4897 142.918 91.6035 143.034 91.7324 143.075C92.9045 143.44 93.393 141.947 93.1303 141.03C92.9641 140.449 92.6769 139.935 92.4047 139.447C92.0793 138.864 91.7748 138.319 91.7231 137.741C90.8815 137.805 90.2128 137.387 89.5349 136.964C88.8505 136.536 88.1569 136.103 87.2665 136.153C87.2758 137.158 87.0361 137.946 85.9662 138.228C85.6489 138.311 85.2604 138.284 84.8652 138.258C84.2121 138.213 83.541 138.167 83.1425 138.614C81.8796 140.026 83.9286 140.902 84.9335 141.144C85.52 141.286 86.0754 141.461 86.6249 141.635C87.6489 141.959 88.6523 142.277 89.7995 142.354ZM306.939 226.066C305.668 226.39 304.503 226.687 302.98 226.287C301.006 225.77 301.122 225.22 301.361 224.086C301.412 223.848 301.467 223.584 301.51 223.289C301.617 222.553 301.331 221.751 301.06 220.991C300.795 220.244 300.544 219.538 300.694 218.976C300.988 217.872 302.338 217.699 303.517 217.549C304.115 217.473 304.668 217.402 305.018 217.218C305.403 216.563 305.94 216.499 306.541 216.427C307.019 216.37 307.537 216.308 308.051 215.941C309.711 214.759 312.47 215.492 314.012 216.388C316.164 217.639 317.708 218.716 315.603 220.439C315.506 220.519 315.408 220.598 315.31 220.677C314.37 221.435 313.441 222.184 313.156 223.375C313.05 223.822 313.071 224.269 313.092 224.717C313.119 225.28 313.145 225.844 312.921 226.415C311.8 229.276 309.328 227.827 308.379 225.736C307.87 225.828 307.398 225.949 306.939 226.066ZM314.622 204.976C313.754 203.657 312.016 202.697 310.549 202.143C310.184 202.006 309.88 201.928 309.612 201.859C308.964 201.692 308.526 201.58 307.948 200.813C307.882 200.725 307.819 200.632 307.756 200.54C307.359 199.959 306.962 199.38 305.764 199.875C306.567 200.425 306.805 201.167 307.03 201.871C307.281 202.653 307.517 203.39 308.497 203.767C309.607 204.195 310.932 204.96 309.874 206.253C309.645 206.533 309.362 206.695 309.091 206.851C308.711 207.068 308.356 207.272 308.211 207.765C307.96 208.616 308.416 209.242 308.974 209.793C310.067 210.873 311.353 210.712 312.777 210.517C312.85 210.507 312.92 210.496 312.99 210.486C313.076 210.473 313.16 210.459 313.243 210.446C314.064 210.316 314.686 210.217 315.526 210.696C316.037 210.988 316.458 211.377 316.879 211.767L316.881 211.768C317.326 212.179 317.772 212.592 318.327 212.892C319.666 213.617 324.332 214.164 322.655 211.468C322.15 210.657 321.015 210.409 320.056 210.2C319.796 210.143 319.549 210.09 319.331 210.028C318.25 209.724 317.234 209.244 316.392 208.477C315.821 207.961 315.585 207.282 315.336 206.568C315.151 206.039 314.96 205.491 314.622 204.976ZM310.467 175.425C310.049 174.63 309.632 173.838 309.302 172.98C307.995 174.636 299.717 174.171 301.084 171.04C301.216 170.741 301.417 170.604 301.61 170.474C301.853 170.309 302.083 170.153 302.143 169.691C302.172 169.467 302.107 169.259 302.042 169.047C301.981 168.852 301.92 168.652 301.929 168.433C302.001 166.539 303.317 164.741 305.232 165.027C305.78 165.109 306.446 165.108 307.121 165.106C308.162 165.104 309.224 165.102 309.909 165.404C310.092 164.52 310.681 164.883 311.279 165.252L311.349 165.295C312.09 165.75 312.721 166.022 313.405 166.317C313.742 166.463 314.092 166.614 314.475 166.795C315.484 167.272 317.313 169.142 317.162 170.407C317.073 171.144 316.508 171.663 315.94 172.184C315.337 172.737 314.732 173.293 314.689 174.113C314.665 174.569 314.81 174.997 314.955 175.43C315.137 175.97 315.321 176.517 315.185 177.134C315.017 177.888 313.514 179.667 312.6 179.465C311.995 179.33 311.713 178.409 311.484 177.658C311.397 177.374 311.317 177.114 311.23 176.93C310.989 176.415 310.728 175.919 310.467 175.425ZM299.779 180.218C300.057 180.919 299.99 181.702 299.924 182.483C299.842 183.439 299.761 184.392 300.31 185.189C301.108 186.345 302.622 186.294 303.301 185.059C304.674 182.565 303.283 181.436 301.821 180.251C300.914 179.515 299.981 178.758 299.665 177.639C299.541 177.198 299.482 176.67 299.422 176.134C299.276 174.821 299.123 173.454 297.993 173.173C297.989 173.727 297.866 174.341 297.742 174.962C297.559 175.88 297.372 176.81 297.565 177.576C297.715 178.162 298.189 178.55 298.671 178.946C299.116 179.311 299.568 179.682 299.779 180.218ZM289.18 182.851C287.503 183 285.058 181.786 283.693 180.853C282.514 180.046 282.269 178.223 283.488 177.32C284.056 176.899 284.656 176.839 285.21 176.784C285.982 176.707 286.663 176.64 287.035 175.613C287.114 175.397 287.166 175.175 287.219 174.951C287.304 174.592 287.391 174.225 287.591 173.857C287.86 173.367 288.268 172.887 288.683 172.397C289.406 171.547 290.152 170.669 290.229 169.663C290.514 169.769 290.799 169.855 291.074 169.938C292.237 170.288 293.206 170.58 293.188 172.11C293.186 172.226 293.173 172.336 293.154 172.443C293.14 172.525 293.123 172.605 293.106 172.685C293.051 172.947 292.996 173.208 293.043 173.52C293.104 173.919 293.27 174.298 293.438 174.681C293.643 175.146 293.849 175.617 293.869 176.134C293.978 178.82 292.622 179.193 290.466 179.239C290.359 179.241 290.261 179.242 290.172 179.241L289.998 179.239C289.309 179.231 289.199 179.229 289.054 180.07C288.981 180.493 289.061 180.924 289.141 181.355C289.233 181.856 289.326 182.358 289.18 182.851ZM239.93 161.597C240.241 162.318 240.404 163.16 240.565 163.992C240.669 164.532 240.773 165.067 240.916 165.563C241.03 165.961 241.176 166.361 241.321 166.76C241.58 167.47 241.838 168.181 241.927 168.893C241.997 169.446 241.963 170.063 241.927 170.692C241.853 172.021 241.776 173.405 242.669 174.348C243.72 175.455 245.387 175.443 247.008 175.432C248.059 175.424 249.091 175.417 249.924 175.715C251.047 176.117 251.915 177.263 252.686 178.281C252.894 178.556 253.095 178.821 253.292 179.06C254.585 180.63 256.125 181.475 258.051 182.221C259.354 182.727 260.289 182.484 261.37 182.204C261.8 182.092 262.254 181.974 262.764 181.896C262.82 179.993 262.061 179.065 260.668 177.802C261.458 176.971 262.924 177.25 264.279 177.508C265.02 177.649 265.727 177.783 266.274 177.727C267.088 175.808 265.632 173.638 263.922 172.82C262.689 172.229 261.587 171.451 260.484 170.672C259.615 170.057 258.745 169.443 257.809 168.919C257.186 168.57 256.895 168.414 256.009 168.544C255.214 168.661 254.206 169.035 253.734 169.747C253.606 169.941 253.552 170.171 253.499 170.403C253.429 170.705 253.359 171.008 253.122 171.236C251.48 172.822 247.896 169.268 247.789 167.479C247.728 166.442 248.988 165.32 250.244 164.202C252.207 162.455 254.159 160.717 251.038 159.327C250.183 158.945 249.637 158.348 249.07 157.727C248.728 157.352 248.378 156.969 247.947 156.619C246.773 155.667 245.076 155.849 243.462 156.022C242.739 156.1 242.033 156.176 241.397 156.147C240.617 156.111 239.841 155.536 239.07 154.965C238.154 154.287 237.246 153.614 236.348 153.858C235.21 154.165 235.233 155.98 235.861 156.891C236.223 157.291 236.654 157.709 237.103 158.144L237.108 158.149C238.201 159.207 239.396 160.363 239.93 161.597ZM219.115 150.779C218 150.888 216.881 150.997 215.798 150.199C214.716 149.402 214 147.72 214.049 146.385C214.065 145.979 214.111 145.585 214.156 145.192C214.243 144.451 214.329 143.715 214.211 142.917C214.138 142.418 214.165 141.988 214.191 141.554V141.553V141.551V141.548C214.211 141.221 214.231 140.893 214.209 140.533C214.311 140.195 214.481 139.744 214.679 139.279C215.695 140.065 218.64 140.421 219.392 139.079C219.541 138.811 219.637 138.561 219.726 138.332C219.957 137.73 220.133 137.272 221.069 137.03C221.678 136.871 222.315 136.874 222.783 137.299C223.214 137.692 223.468 138.211 223.723 138.732C224.035 139.372 224.35 140.016 224.997 140.435C225.369 140.676 225.783 140.869 226.189 141.059C227.461 141.653 228.658 142.212 228.251 144.091C228.17 144.467 227.953 144.825 227.74 145.177L227.727 145.198C227.685 145.267 227.643 145.336 227.603 145.405C227.584 145.438 227.565 145.47 227.547 145.502C227.527 145.538 227.508 145.573 227.489 145.608C227.474 145.637 227.458 145.665 227.444 145.694C227.223 146.129 227.036 146.58 226.85 147.031L226.848 147.034L226.848 147.037C226.663 147.482 226.479 147.927 226.262 148.355C225.632 149.595 224.32 151.269 222.792 151.302C222.396 151.311 222.158 151.191 221.904 151.062L221.826 151.023C221.784 151.002 221.742 150.981 221.697 150.962C221.618 150.925 221.533 150.891 221.438 150.862C220.675 150.627 219.896 150.703 219.115 150.779ZM181.592 135.865C181.036 137.272 180.657 139.165 180.668 140.465C180.678 141.414 181.117 142.14 181.585 142.91L181.592 142.922C182.009 143.609 182.439 144.32 182.559 145.206C182.92 147.86 180.636 149.29 178.619 150.553C177.089 151.511 175.644 152.416 175.416 153.686C175.172 155.056 176.675 155.673 179.15 156.566C181.883 157.552 185.283 158.78 185.46 162.302C185.699 167.116 180.964 167.375 177.158 167.582C175.837 167.654 174.577 167.723 173.637 167.961C173.832 168.54 174.109 169.061 174.4 169.605C175.07 170.868 175.763 172.175 175.381 174.187C175.23 174.978 174.972 175.643 174.723 176.285C174.263 177.467 173.865 178.488 174.26 180.058C174.367 180.484 174.574 180.923 174.795 181.389C175.365 182.593 176.044 184.08 174.637 185.375C177.277 187.859 178.312 189.453 177.256 193.002C177.152 193.351 177.033 193.632 176.919 193.895C176.695 194.409 176.549 194.749 176.621 195.465C176.744 196.718 177.153 196.979 177.893 197.452L177.896 197.454C178.308 197.717 178.819 198.043 179.35 198.596C180.268 199.554 180.827 200.696 181.364 201.801C182.255 203.625 183.025 205.202 185.216 205.621C187.438 206.048 187.92 205.356 188.794 204.101L188.795 204.099L188.803 204.089C189.208 203.508 189.667 202.849 190.375 202.22C191.456 201.259 192.384 200.887 193.21 201.092C194.08 201.306 194.747 202.101 195.313 203.597C196.057 205.567 195.48 209.263 194.857 211.14C194.666 211.714 194.285 212.441 193.879 213.212L193.875 213.22L193.866 213.237L193.864 213.239L193.864 213.24C193.042 214.797 191.917 216.929 192.468 217.878C192.705 218.288 193.31 218.513 194.264 218.546C194.936 218.569 195.622 218.23 196.362 217.864L196.408 217.841C197.464 217.323 198.66 216.736 199.885 217.223C201.778 217.976 202.351 220.262 202.811 222.101L202.812 222.105C202.935 222.603 203.049 223.063 203.182 223.438C204.023 225.828 205.987 226.026 208.473 226.277L208.476 226.278L208.499 226.28C210.001 226.433 211.553 226.591 213.002 227.28C214.578 228.028 215.688 229.482 216.761 230.886L216.768 230.895L216.796 230.932C217.369 231.681 217.91 232.388 218.503 232.965C219.334 233.773 220.36 234.483 221.353 235.169L221.364 235.177C221.643 235.37 221.917 235.561 222.187 235.751C222.305 235.835 222.42 235.916 222.533 235.994L222.716 236.122L222.891 236.242C223.013 236.326 223.132 236.407 223.248 236.486C224.567 237.389 225.541 238.066 226.441 239.294C227.153 238.58 228.121 238.408 228.949 238.273L229.026 238.26C229.26 238.22 229.492 238.181 229.718 238.128C230.507 237.942 231.349 237.603 232.24 237.242L232.243 237.241C234.14 236.478 236.104 235.689 237.948 236.2C239.525 236.637 241.165 238.052 242.904 239.552L242.909 239.556L242.91 239.557C245.402 241.707 247.975 243.926 250.255 243.15C251.09 242.866 252.381 241.513 253.518 240.317C254.204 239.596 254.853 238.917 255.409 238.454C256.86 237.252 257.723 235.905 258.721 234.346L258.789 234.241C258.901 234.066 259.014 233.889 259.13 233.711L259.226 233.563C259.306 233.44 259.388 233.317 259.47 233.193C262.057 229.311 265.459 230.446 268.746 231.544C269.381 231.755 270.023 231.969 270.663 232.148C274.766 233.295 278.415 232.758 281.737 230.518C281.499 230.315 281.269 230.106 281.069 229.869C279.799 228.364 277.755 223.819 278.097 221.777C278.276 220.708 279.225 220.238 280.198 219.755C280.843 219.435 281.499 219.11 281.948 218.602C283.023 217.385 284.414 215.608 283.66 214.096C282.523 211.816 280.871 212.77 279.165 213.755C278.007 214.424 276.823 215.107 275.759 214.801C275.497 212.585 276.126 212.398 277.176 212.086C277.654 211.944 278.22 211.776 278.829 211.377C280.099 210.546 279.965 210.094 279.779 209.463C279.645 209.011 279.484 208.468 279.79 207.628C280.265 206.325 281.81 206.413 283.389 206.504C285.352 206.616 287.368 206.731 287.459 204.188C287.531 202.105 285.39 199.802 283.883 198.181L283.599 197.876C283.482 197.748 283.37 197.626 283.265 197.51C281.719 195.787 279.821 194.161 278.053 192.647L277.708 192.351C275.972 190.865 275.735 190.95 274.673 191.333C274.418 191.424 274.116 191.533 273.735 191.641C273.335 191.755 272.945 191.836 272.567 191.915C271.51 192.136 270.54 192.339 269.684 193.17C269.052 193.781 268.614 194.593 268.174 195.406C267.695 196.294 267.214 197.184 266.481 197.815C265.287 198.84 259.386 200.031 258.593 197.861C258.253 196.929 259.288 196.38 260.172 195.911C260.51 195.732 260.827 195.564 261.036 195.391C263.029 193.74 264.976 190.492 264.906 187.743C264.821 184.453 262.851 184.539 260.374 184.646L260.026 184.661C257.272 184.774 255.66 183.452 253.968 182.063C252.867 181.16 251.731 180.228 250.224 179.646C249.256 179.273 248.104 179.142 246.934 179.01C244.878 178.778 242.767 178.539 241.5 176.962C240.1 175.221 239.523 172.123 239.038 169.522L239.037 169.515L239.035 169.505L239.033 169.495C238.893 168.743 238.76 168.034 238.618 167.412C238.574 167.22 238.531 167.026 238.488 166.831L238.487 166.829C238.159 165.347 237.822 163.827 236.829 162.657C236.366 162.111 235.776 161.674 235.184 161.235C234.394 160.649 233.6 160.06 233.093 159.203C232.735 158.597 232.505 157.837 232.269 157.061C231.797 155.503 231.306 153.879 229.714 153.309C228.738 152.961 227.561 153.372 226.44 153.764C225.849 153.971 225.273 154.173 224.75 154.254C223.266 154.484 222.299 154.296 220.854 153.968C218.521 153.44 216.623 152.628 214.728 151.107C211.695 148.671 211.501 146.957 211.294 143.384C211.18 141.424 210.589 140.797 209.598 139.746C209.336 139.468 209.047 139.161 208.731 138.793C208.511 138.536 208.277 138.248 208.03 137.944C206.604 136.19 204.732 133.888 202.512 133.797C201.34 133.748 201.172 133.999 200.77 134.598C200.613 134.832 200.421 135.118 200.121 135.46C198.884 136.866 198.114 137.036 196.843 137.316C196.464 137.4 196.041 137.493 195.548 137.632C195.473 137.653 195.401 137.672 195.33 137.69C195.237 137.714 195.148 137.735 195.061 137.756L195.059 137.757C194.287 137.941 193.764 138.066 193.447 139.116C193.174 140.022 193.588 140.883 194.006 141.751C194.36 142.486 194.717 143.227 194.661 144.005C192.781 144.06 192.181 142.511 191.602 141.017C191.494 140.737 191.386 140.459 191.27 140.193C189.93 137.111 187.474 134.308 184.953 132.092C184.618 131.799 184.195 131.508 183.75 131.215C183.757 132.713 183.153 133.508 182.564 134.274L182.55 134.292C182.206 134.744 181.849 135.213 181.592 135.865ZM291.05 234.914C291.796 235.195 292.542 235.476 293.171 235.886C293.516 236.111 293.79 236.434 294.058 236.751C294.325 237.066 294.586 237.374 294.906 237.573C296.396 238.504 297.093 238.174 298.175 237.662C298.62 237.451 299.131 237.209 299.789 237.012C303.591 235.87 306.339 236.712 307.455 240.259C307.524 240.479 307.59 240.675 307.649 240.852C308.04 242.024 308.164 242.395 307.434 243.804C307.219 244.218 307.012 244.578 306.823 244.906C305.988 246.355 305.51 247.185 306.329 249.361C307.185 251.631 308.115 253.578 309.548 255.262C310.272 256.111 310.697 256.839 310.748 257.467C310.414 257.653 310.069 257.834 309.714 258.018C308.592 258.595 307.434 259.192 306.515 260.111C306.194 260.432 305.911 260.902 305.636 261.358C305.355 261.823 305.036 262.351 304.764 262.544C303.791 263.235 303.129 262.937 301.942 262.307C301.749 262.205 301.552 262.1 301.349 262C299.193 260.932 298.042 260.483 295.602 260.521C292.22 260.546 287.472 261.872 285.34 264.279C285.012 264.647 284.816 265.196 284.628 265.726L284.612 265.771C284.508 266.058 284.363 266.456 284.284 266.538C283.537 267.071 281.734 267.191 280.285 267.287C279.576 267.333 278.904 267.378 278.404 267.466L278.027 267.533L277.962 267.91C277.747 269.145 277.803 270.534 277.859 271.878C277.978 274.758 278.09 277.477 275.722 278.712C273.996 279.612 272.626 279.836 271.958 279.321C271.193 278.731 268.916 275.046 268.89 273.955L268.881 273.537L268.474 273.439C268.139 273.36 267.734 273.348 267.234 273.411L266.941 273.448L266.811 273.711C265.962 275.439 266.341 277.072 266.708 278.652L266.712 278.667C266.936 279.636 267.15 280.559 267.099 281.508C265.595 281.659 263.496 280.767 261.462 279.904L261.449 279.898C257.909 278.396 253.897 276.693 251.871 280.094C251.166 281.275 250.95 283.194 250.743 285.05C250.566 286.632 250.364 288.425 249.864 288.86C249.694 289.007 249.01 289.179 248.557 289.293C248.04 289.423 247.552 289.546 247.217 289.721C246.847 289.912 246.463 290.249 246.059 290.605C245.598 291.01 245.023 291.514 244.679 291.565C243.972 291.667 243.186 291.367 242.421 291.075L242.414 291.072L242.354 291.049C242.046 290.931 241.743 290.815 241.448 290.728C237.195 289.449 235.483 291.404 233.113 294.111L233.112 294.112L232.914 294.34C232.696 294.152 232.466 293.966 232.212 293.789C231.307 293.156 228.367 291.249 226.785 290.812C225.622 290.488 224.436 290.705 223.289 290.914L223.286 290.915C221.852 291.175 220.5 291.421 219.282 290.626C217.917 289.73 217.768 288.208 217.609 286.594V286.592L217.609 286.586C217.523 285.716 217.434 284.816 217.14 284.018C216.677 282.764 215.925 282.482 215.321 282.257L215.317 282.255C214.928 282.11 214.592 281.984 214.274 281.606C213.813 281.059 213.82 280.629 213.834 279.847C213.837 279.626 213.841 279.389 213.834 279.131C213.723 275.044 210.343 271.848 207.366 270.269C207.205 268.471 206.393 267.338 205.598 266.247L205.591 266.238C205.126 265.596 204.645 264.934 204.289 264.121C203.754 262.895 203.688 261.972 204.093 261.37C205.028 259.983 208.436 260.081 210.922 260.153L210.984 260.155C212.1 260.187 213.063 260.214 213.767 260.121L214.141 260.072L214.143 260.071C217.299 259.664 220.875 259.203 221.727 255.185C222.103 253.403 221.64 250.782 220.931 249.133C222.199 248.512 223.134 248.351 224.583 248.102L225.59 247.932C226.951 247.716 228.125 247.53 228.088 245.318C228.072 244.428 227.656 243.73 227.287 243.111L227.285 243.109L227.276 243.094C226.816 242.329 226.45 241.722 226.748 240.845C227.123 239.733 227.897 239.554 229.125 239.352L229.202 239.339C229.462 239.295 229.72 239.251 229.97 239.191C230.835 238.985 231.751 238.617 232.639 238.26L232.647 238.256L232.659 238.252C234.385 237.558 236.169 236.841 237.657 237.254C238.997 237.626 240.548 238.963 242.19 240.38C244.916 242.732 247.733 245.158 250.606 244.188C251.694 243.815 253.025 242.422 254.309 241.073C254.972 240.375 255.6 239.717 256.107 239.296C257.684 237.988 258.63 236.513 259.632 234.95L259.633 234.948L259.64 234.937C259.879 234.565 260.124 234.186 260.38 233.8C262.505 230.614 265.237 231.524 268.398 232.577L268.402 232.579C269.055 232.797 269.714 233.016 270.37 233.2C274.954 234.481 279.008 233.83 282.681 231.206C283.714 231.841 284.919 232.299 286.112 232.752C287.192 233.162 288.263 233.568 289.189 234.1C289.759 234.427 290.404 234.67 291.05 234.914ZM205.861 281.313C207.626 280.027 207.457 279.719 206.827 278.576L206.827 278.575C206.596 278.159 206.31 277.64 206.078 276.993C205.557 275.549 205.797 274.289 206.028 273.073V273.071L206.031 273.055L206.035 273.037C206.185 272.252 206.34 271.441 206.291 270.562C206.206 268.945 205.514 267.995 204.714 266.896L204.707 266.887L204.699 266.874C204.199 266.187 203.682 265.476 203.279 264.556C202.584 262.968 202.551 261.688 203.179 260.758C204.448 258.877 208.031 258.978 210.92 259.059L210.946 259.06C211.997 259.09 212.988 259.118 213.618 259.037L213.995 258.988C217.061 258.592 219.959 258.218 220.65 254.957C221.003 253.289 220.452 250.514 219.722 249.144L219.468 248.665L219.943 248.407C221.612 247.5 222.713 247.31 224.374 247.023L224.39 247.021L225.411 246.849L225.416 246.848C226.798 246.628 227.011 246.593 226.988 245.332C226.979 244.73 226.665 244.206 226.332 243.653L226.329 243.647C225.823 242.802 225.249 241.845 225.706 240.492C225.769 240.308 225.846 240.15 225.925 239.999L225.706 240.147C224.875 238.931 223.983 238.319 222.638 237.398L222.636 237.396L222.622 237.386C222.468 237.281 222.308 237.171 222.143 237.057C221.952 236.925 221.754 236.787 221.548 236.64C221.404 236.538 221.259 236.437 221.113 236.335L220.946 236.219L220.736 236.075C219.703 235.361 218.633 234.621 217.733 233.746C217.083 233.115 216.491 232.341 215.919 231.591L215.891 231.555L215.888 231.552C214.893 230.248 213.864 228.898 212.525 228.264C211.246 227.656 209.789 227.507 208.38 227.364L208.357 227.362L208.352 227.361C205.826 227.105 203.214 226.841 202.142 223.798C202 223.396 201.877 222.903 201.742 222.368L201.74 222.36C201.34 220.763 200.844 218.782 199.472 218.234C198.695 217.927 197.813 218.36 196.881 218.818C196.036 219.235 195.145 219.653 194.217 219.632C192.864 219.586 191.954 219.179 191.515 218.423C190.662 216.954 191.843 214.711 192.888 212.73L192.889 212.726C193.28 211.987 193.648 211.287 193.813 210.791C194.394 209.04 194.897 205.604 194.282 203.978C193.869 202.881 193.417 202.264 192.94 202.148C192.494 202.039 191.873 202.336 191.091 203.032C190.48 203.574 190.079 204.148 189.691 204.704L189.688 204.709L189.682 204.718C188.777 206.021 187.919 207.249 184.999 206.688C182.271 206.165 181.306 204.188 180.371 202.274L180.363 202.257C179.863 201.234 179.346 200.176 178.549 199.345C178.118 198.893 177.709 198.631 177.314 198.378L177.312 198.377L177.298 198.368C176.475 197.843 175.7 197.347 175.524 195.568C175.426 194.568 175.67 194.002 175.907 193.456C176.005 193.23 176.11 192.988 176.2 192.686C177.08 189.73 176.452 188.555 173.691 185.985C171.986 186.694 169.915 185.78 168.204 185.019L168.149 184.995C167.692 184.792 167.253 184.598 166.869 184.459C166.038 186.392 166.727 187.732 167.518 189.267C168.164 190.52 168.832 191.818 168.739 193.523C168.676 194.679 168.157 195.591 167.241 196.156C165.231 197.396 161.563 196.749 159.602 195.891C159.117 195.681 158.794 195.484 158.532 195.324L158.5 195.305L158.49 195.299C157.968 194.977 157.697 194.81 156.471 194.84C153.722 194.889 152.92 195.37 151.185 197.254C150.557 197.936 149.917 198.557 149.27 199.154C149.484 199.334 149.688 199.508 149.884 199.677L150.211 199.959L150.213 199.961C152.306 201.767 153.588 202.875 157.041 203.162C161.807 203.56 166.285 204.606 164.652 210.394C164.443 211.135 164.227 211.688 164.052 212.137C163.575 213.362 163.398 213.817 164.468 215.245C164.905 215.829 165.48 216.368 166.038 216.891C166.303 217.14 166.565 217.385 166.806 217.63C170.12 220.998 174.223 224.014 178.298 226.422C181.305 228.198 181.845 230.816 182.435 233.682C182.587 234.415 182.741 235.164 182.941 235.919C183.328 237.381 183.877 238.747 184.426 240.111C185.303 242.291 186.177 244.465 186.379 247.016C186.637 250.291 187.13 252.198 189.158 254.848C190.149 256.141 191.529 257.342 192.919 258.551L192.92 258.552C194.947 260.316 196.995 262.098 197.888 264.212C198.977 266.793 198.136 269.209 197.289 271.641C196.781 273.097 196.272 274.558 196.174 276.065C195.985 278.954 198.011 282.134 200.172 283.994C201.07 283.478 202.084 283.062 203.051 282.671L203.067 282.665C204.154 282.225 205.181 281.81 205.861 281.313ZM337.469 380.7C336.487 380.252 335.507 379.804 334.869 378.985C334.031 377.907 334.04 377.027 334.052 375.825V375.822V375.819C334.055 375.521 334.058 375.204 334.048 374.858C331.822 376.261 330.168 377.985 330.31 380.729C330.331 381.129 330.501 381.688 330.689 382.306C331.244 384.134 331.956 386.479 329.443 386.74C328.38 386.85 326.044 384.489 324.457 382.886C323.935 382.359 323.495 381.913 323.207 381.664C322.879 381.381 322.565 381.069 322.247 380.752L322.247 380.751L322.245 380.749C321.418 379.925 320.562 379.072 319.35 378.627C318.76 378.41 318.117 378.418 317.487 378.427C316.858 378.435 316.241 378.443 315.703 378.227C315.413 378.11 315.185 377.843 314.954 377.572C314.674 377.244 314.389 376.91 313.982 376.829C312.307 376.496 310.832 379.562 311.23 381.248C311.513 382.448 312.545 383.016 313.587 383.589C314.259 383.959 314.936 384.331 315.417 384.876C316.001 385.537 318.938 390.168 318.68 390.84C317.468 393.98 309.79 385.922 307.078 383.075C306.651 382.628 306.347 382.309 306.211 382.183C305.111 381.167 304.378 380.092 303.669 379.052C302.762 377.722 301.893 376.448 300.347 375.426C297.321 373.429 293.888 372.045 290.486 370.674L290.483 370.672C288.506 369.876 286.539 369.083 284.668 368.176C281.197 366.492 281.076 362.063 281.537 358.451C281.585 358.072 281.66 357.742 281.727 357.445C281.904 356.667 282.029 356.113 281.497 355.492L281.888 355.278C282.456 354.967 283.079 354.864 283.739 354.757C284.635 354.611 285.617 354.448 286.349 353.673C286.931 354.869 287.717 356.02 288.45 356.6C289.717 357.602 291.464 357.795 293.12 357.795C293.597 357.795 294.064 357.777 294.511 357.761L294.706 357.753L295.083 357.739C296.46 357.691 297.134 357.37 297.845 357.032L297.853 357.028C298.237 356.844 298.635 356.655 299.191 356.493C300.054 356.24 300.938 356.207 301.795 356.174L301.808 356.174C303.087 356.127 304.294 356.083 304.983 355.211C305.525 354.522 305.627 353.448 305.304 351.834C305.192 351.278 305.029 350.68 304.859 350.059C304.229 347.752 303.578 345.365 305.141 343.86C306.437 342.612 308.129 342.95 309.92 343.308L309.925 343.309L309.939 343.312C311.556 343.634 313.226 343.967 314.691 343.123C315.735 342.522 316.031 341.488 316.293 340.573L316.296 340.564C316.608 339.478 316.848 338.799 317.806 338.559C318.206 338.459 318.587 338.522 318.992 338.59C319.615 338.692 320.325 338.808 321.125 338.348C322.393 337.622 322.944 336.357 323.248 335.468C323.762 333.966 324.943 333.527 326.312 333.019L326.319 333.017C327.031 332.754 327.768 332.479 328.452 332.04C329.533 331.344 329.322 329.851 329.133 328.534L329.133 328.527V328.526V328.524C329.026 327.774 328.915 326.997 329.059 326.515C329.182 326.101 329.529 325.808 329.931 325.469C330.187 325.252 330.45 325.029 330.678 324.755C330.831 324.571 330.945 324.376 331.055 324.185C331.215 323.903 331.308 323.752 331.483 323.671C331.766 323.54 332.459 323.529 332.918 323.522C333.141 323.52 333.346 323.515 333.506 323.503C333.774 323.482 334.053 323.459 334.337 323.434L334.342 323.433C335.634 323.317 337.099 323.185 338.239 323.529C338.792 323.695 339.496 324.148 340.12 324.55L340.137 324.562L340.164 324.579L340.167 324.58C340.417 324.741 340.655 324.895 340.87 325.022C341.645 325.48 342.236 326.408 342.529 327.125C342.796 327.777 342.926 328.503 343.053 329.211L343.057 329.232L343.062 329.26C343.223 330.163 343.389 331.094 343.843 331.921C345.587 335.108 348.832 335.219 351.933 335.003C351.765 335.231 351.602 335.443 351.449 335.622C348.802 338.715 348.157 341.004 349.716 344.681C350.986 347.676 351.234 350.935 351.48 354.163V354.165V354.168C351.555 355.148 351.629 356.126 351.732 357.093C352.063 360.179 351.986 363.161 351.265 366.162C351.005 367.245 350.64 368.317 350.273 369.392C349.732 370.981 349.189 372.575 348.981 374.219C348.847 375.284 348.898 376.369 348.949 377.453V377.456V377.457V377.458C348.99 378.307 349.03 379.155 348.981 379.992C348.962 380.32 348.943 380.651 348.924 380.984L348.919 381.074V381.077C348.733 384.384 348.534 387.924 347.671 391.068C345.864 390.715 342.454 388.156 341.421 386.588C341.005 385.956 340.918 385.283 340.832 384.615V384.614C340.765 384.094 340.698 383.578 340.477 383.085C339.907 381.814 338.687 381.257 337.469 380.7ZM319.915 276.574C319.796 275.635 320.544 275.063 321.294 274.489C322.305 273.716 323.32 272.94 322.232 271.259C321.518 270.157 320.12 269.668 318.771 269.378C317.51 269.108 316.913 269.427 316.296 269.757C315.875 269.982 315.445 270.212 314.789 270.262C312.07 270.469 312.328 268.308 312.577 266.225C312.724 264.992 312.868 263.786 312.391 263.114C311.944 262.484 311.076 262.311 310.205 262.137C309.091 261.914 307.972 261.69 307.725 260.509C307.576 260.63 307.425 260.751 307.29 260.886C307.062 261.113 306.814 261.523 306.573 261.923L306.571 261.925L306.568 261.932C306.215 262.513 305.851 263.115 305.397 263.437C303.831 264.551 302.557 263.872 301.431 263.272C301.247 263.174 301.061 263.074 300.868 262.979C298.789 261.953 297.867 261.588 295.611 261.614C292.42 261.637 288.01 262.914 286.156 265.005C285.97 265.214 285.803 265.682 285.656 266.096L285.654 266.1L285.654 266.102C285.447 266.679 285.269 267.178 284.919 267.429C283.921 268.143 282.028 268.268 280.357 268.378C279.855 268.41 279.373 268.443 278.978 268.489C278.853 269.509 278.899 270.64 278.948 271.83V271.834V271.835C279.069 274.784 279.206 278.126 276.224 279.682C274.703 280.477 272.612 281.208 271.289 280.187C270.458 279.547 268.281 276.225 267.865 274.46C267.832 274.46 267.799 274.461 267.764 274.462L267.697 274.464L267.664 274.465C267.151 275.751 267.451 277.042 267.767 278.402C268.037 279.558 268.314 280.754 268.139 282.047L268.09 282.419L267.725 282.508C265.856 282.956 263.512 281.962 261.03 280.911L261.017 280.905C256.986 279.193 254.237 278.251 252.804 280.654C252.22 281.636 252.008 283.515 251.822 285.173C251.594 287.213 251.397 288.974 250.573 289.688C250.211 290.002 249.543 290.172 248.835 290.352L248.82 290.356C248.384 290.465 247.936 290.579 247.712 290.695C247.464 290.826 247.112 291.133 246.773 291.43C246.145 291.982 245.498 292.549 244.835 292.649C243.853 292.8 242.883 292.429 242.027 292.102L242.016 292.098C241.714 291.982 241.416 291.868 241.128 291.779C237.547 290.7 236.261 292.171 233.93 294.834L233.926 294.838L233.726 295.066L232.976 294.409C233.537 294.905 234.008 295.436 234.466 295.954C235.489 297.115 236.457 298.211 238.404 298.871C239.202 299.141 240.239 299.199 241.339 299.259L241.341 299.26C243.343 299.369 245.61 299.493 246.88 301.081C247.931 302.397 247.794 304.128 247.659 305.802C247.54 307.266 247.431 308.647 248.11 309.608C249.369 311.383 251.855 311.043 254.486 310.678L254.5 310.676C256.768 310.365 259.113 310.043 260.633 311.273C261.878 312.28 262.345 313.283 262.019 314.253C261.275 316.479 256.446 317.384 254.376 317.618C255.828 321.361 254.89 322.529 251.308 324.308C251.155 324.385 251.003 324.457 250.856 324.527L250.659 324.622C248.989 325.413 248.299 325.741 248.95 327.657C249.548 329.418 252.234 331.877 254.165 331.372C254.814 331.2 255.025 330.835 255.318 330.328L255.32 330.325L255.32 330.324C255.599 329.843 255.946 329.245 256.728 328.848C259.477 327.455 264.655 329.816 265.874 331.879C266.388 332.746 266.587 333.507 266.762 334.179L266.767 334.198V334.198C267.044 335.264 267.244 336.033 268.576 336.88C269.981 337.771 271.47 337.922 272.912 338.066C274.98 338.275 277.12 338.492 278.811 340.871C279.891 342.388 280.257 343.993 280.579 345.411L280.581 345.416C281.176 348.031 281.607 349.919 286.063 350.24L286.566 350.275L286.57 350.778C286.584 352.087 288.024 354.881 289.136 355.762C290.505 356.845 292.811 356.756 294.669 356.683L294.674 356.683L295.053 356.669C296.209 356.627 296.732 356.379 297.393 356.062C297.798 355.869 298.254 355.653 298.893 355.464C299.891 355.174 300.891 355.136 301.775 355.104L301.786 355.103C302.844 355.064 303.758 355.03 304.131 354.555C304.452 354.148 304.487 353.313 304.238 352.071C304.131 351.538 303.973 350.961 303.81 350.368L303.81 350.365V350.364C303.163 347.995 302.36 345.05 304.389 343.095C306.099 341.45 308.251 341.881 310.146 342.26C311.635 342.558 313.042 342.839 314.154 342.199C314.816 341.818 315.019 341.11 315.253 340.29L315.254 340.287C315.554 339.236 315.929 337.927 317.548 337.522C318.164 337.368 318.701 337.454 319.173 337.533L319.178 337.534C319.725 337.622 320.122 337.686 320.585 337.422C321.306 337.008 321.827 336.282 322.218 335.135C322.9 333.14 324.446 332.568 325.944 332.014L325.955 332.01L325.956 332.01C326.61 331.767 327.285 331.516 327.866 331.142C328.359 330.825 328.205 329.748 328.056 328.709L328.053 328.686C327.931 327.821 327.805 326.928 328.017 326.222C328.233 325.499 328.761 325.05 329.228 324.655C329.456 324.461 329.673 324.278 329.84 324.075C329.939 323.956 330.013 323.827 330.084 323.702L330.108 323.661L330.109 323.659V323.658C330.295 323.333 330.526 322.93 331.022 322.698C331.515 322.468 332.252 322.456 332.901 322.447C333.099 322.445 333.283 322.443 333.427 322.431C333.659 322.414 333.896 322.393 334.14 322.37L334.239 322.361L334.256 322.36C335.642 322.237 337.212 322.098 338.553 322.498C339.26 322.71 340.042 323.215 340.73 323.661L340.859 323.744C341.059 323.873 341.249 323.995 341.424 324.099C342.28 324.603 343.07 325.585 343.538 326.727C343.852 327.492 343.994 328.288 344.131 329.058L344.132 329.064C344.285 329.924 344.43 330.736 344.801 331.414C346.378 334.293 349.437 334.138 352.712 333.863C354.195 331.472 355.707 327.957 355.117 325.845C354.767 324.597 353.446 323.908 352.169 323.242C351.426 322.854 350.697 322.474 350.183 321.996C348.47 320.401 349.06 319.623 350.06 318.302V318.302C350.266 318.03 350.489 317.736 350.714 317.407C351.287 316.563 351.588 315.466 351.883 314.393L351.884 314.391V314.391C352.19 313.276 352.489 312.187 353.079 311.434C353.786 310.528 355.031 310.034 356.291 309.533C357.704 308.973 359.136 308.404 359.85 307.24C359.72 307.12 359.581 306.995 359.436 306.864C358.287 305.829 356.79 304.48 356.636 302.969C356.59 302.522 356.817 302.005 357.01 301.563C357.155 301.234 357.281 300.945 357.264 300.757C357.122 299.215 355.754 298.185 354.063 297.238C353.828 296.822 353.727 296.52 353.633 296.238C353.516 295.888 353.409 295.569 353.068 295.101C352.552 294.394 351.912 294.3 351.223 294.198C350.793 294.135 350.344 294.069 349.895 293.849C347.113 292.484 346.215 289.451 345.973 286.602C345.928 286.066 345.902 285.539 345.877 285.028C345.725 281.883 345.603 279.376 341.059 279.568C339.15 279.648 337.165 279.196 335.161 278.739C333.236 278.3 331.292 277.856 329.377 277.877C328.888 277.882 328.432 277.905 328 277.927C326.523 278.002 325.332 278.063 324.058 277.34C323.826 277.208 323.702 276.928 323.577 276.648C323.44 276.34 323.303 276.032 323.023 275.918C322.561 275.722 321.608 276.04 320.817 276.304C320.465 276.422 320.145 276.528 319.915 276.574ZM285.861 352.513C285.377 353.387 284.605 353.52 283.572 353.69C282.883 353.801 282.104 353.929 281.372 354.325L280.899 354.583C280.799 354.639 280.695 354.697 280.592 354.753C280.53 354.714 280.466 354.674 280.4 354.633C280.347 354.6 280.292 354.567 280.234 354.534C278.957 353.794 277.06 353.585 275.213 353.382C273.908 353.238 272.629 353.097 271.612 352.773C268.155 351.673 266.057 349.357 263.904 346.593C262.844 345.233 261.581 344.642 260.271 344.028C259.326 343.585 258.357 343.131 257.421 342.369C256.13 341.32 256.135 341.154 256.172 339.725C256.18 339.434 256.189 339.09 256.188 338.676C256.184 333.848 254.589 333.762 250.945 333.565C250.227 333.526 249.429 333.483 248.547 333.398C242.87 332.851 240.827 328.662 240.09 323.543C240.03 323.123 239.981 322.729 239.935 322.357C239.676 320.256 239.499 318.821 237.769 317.128L237.698 317.059C235.241 314.652 232.504 311.971 229.014 311.28C228.501 311.178 227.949 311.212 227.4 311.245C226.997 311.269 226.595 311.294 226.213 311.264C224.086 311.099 222.978 310.167 221.538 308.955C221.196 308.669 220.837 308.366 220.44 308.054C219.679 307.456 218.672 306.94 217.647 306.416C216.141 305.644 214.598 304.854 213.746 303.753C213.243 303.102 213.116 302.229 212.992 301.379C212.945 301.051 212.898 300.727 212.83 300.42C212.057 296.952 210.964 292.626 208.927 289.684C207.742 287.971 205.878 287.1 204.015 286.229C203.018 285.763 202.021 285.296 201.128 284.701C201.853 284.325 202.66 283.994 203.461 283.671L203.464 283.67C204.618 283.203 205.71 282.761 206.503 282.185C208.924 280.422 208.566 279.461 207.782 278.037C207.561 277.635 207.31 277.179 207.105 276.614C206.685 275.445 206.879 274.429 207.105 273.253L207.105 273.251C207.212 272.692 207.315 272.118 207.363 271.506C209.936 273.02 212.643 275.758 212.737 279.147C212.743 279.354 212.74 279.546 212.738 279.727L212.737 279.817C212.723 280.652 212.711 281.438 213.434 282.299C213.939 282.896 214.49 283.103 214.932 283.269C215.467 283.469 215.819 283.601 216.109 284.385C216.356 285.055 216.435 285.848 216.516 286.688L216.518 286.699C216.687 288.413 216.878 290.351 218.679 291.528C220.261 292.563 221.973 292.251 223.48 291.977C224.552 291.782 225.567 291.598 226.488 291.854C227.814 292.221 230.491 293.915 231.579 294.675C232.41 295.257 233.012 295.938 233.649 296.662C234.722 297.878 235.833 299.136 238.055 299.89C238.99 300.207 240.097 300.269 241.266 300.333L241.281 300.334L241.286 300.335C243.146 300.437 245.066 300.542 246.028 301.748C246.812 302.728 246.696 304.172 246.573 305.7V305.702C246.445 307.295 246.312 308.943 247.222 310.224C248.864 312.541 251.932 312.12 254.637 311.746C256.774 311.45 258.793 311.173 259.949 312.108C260.803 312.799 261.152 313.399 260.987 313.892C260.447 315.507 255.267 316.521 253.574 316.579L252.778 316.607L253.09 317.34C254.665 321.024 254.151 321.668 250.824 323.32C250.606 323.427 250.394 323.527 250.192 323.624C248.524 324.413 246.949 325.159 247.915 327.997C248.671 330.225 251.899 333.093 254.441 332.416C255.53 332.13 255.937 331.428 256.263 330.863L256.272 330.846C256.519 330.425 256.734 330.059 257.223 329.811C259.356 328.727 263.952 330.765 264.934 332.423C265.371 333.168 265.543 333.826 265.708 334.463C266.008 335.622 266.292 336.715 267.99 337.792C269.614 338.82 271.233 338.985 272.8 339.143C274.794 339.346 276.515 339.52 277.92 341.495C278.876 342.837 279.201 344.265 279.515 345.649L279.516 345.653C280.118 348.292 280.688 350.787 285.523 351.28C285.584 351.655 285.705 352.076 285.861 352.513Z" fill="#D9D9D9"/>
</g>
</svg>
