<svg width="402" height="361" viewBox="0 0 402 361" fill="none" xmlns="http://www.w3.org/2000/svg">
<path d="M303.711 239.404C305.132 239.594 306.63 239.725 308.063 239.743C310 239.766 311.761 239.471 313.594 238.803C314.492 238.476 315.483 237.859 316.464 237.82C316.878 237.801 317.236 238.075 317.706 238.031C318.562 237.95 319.067 237.343 320.014 237.503C321.67 237.785 322.528 239.776 322.179 241.316C321.944 242.353 321.211 243.097 321.225 244.232C321.258 246.91 324.305 248.591 326.019 250.215C326.915 251.061 328.396 252.327 328.657 253.613C329.062 255.613 326.594 257.686 325.987 259.472C325.487 260.944 326.938 262.389 328.031 263.308C329.708 264.717 331.341 264.273 333.339 264.65C335.123 264.987 336.574 266.362 338.254 267.094C339.68 267.718 341.092 267.62 342.503 268.132C343.448 268.474 343.59 269.039 344.206 269.802C345.697 271.649 348.209 274.377 350.714 272.626C352.535 271.353 351.377 269.234 350.386 267.783C349.384 266.313 347.967 264.638 348.751 262.696C349.407 261.07 351.503 260.442 353.056 260.142C353.133 258.702 351.649 257.437 351.859 256.118C352.089 254.676 353.926 254.781 354.512 253.75C355.278 252.406 352.74 251.14 351.444 251.862C350.13 252.292 347.018 249.738 345.804 249.042C344.96 248.559 344.185 247.931 343.243 247.71C342.334 247.496 341.401 247.654 340.489 247.338C337.817 246.412 335.851 244.484 334.423 242.137C333.353 240.378 333.02 238.536 333.302 236.487C333.574 234.519 335.081 233.03 335.411 231.139C336.07 227.367 331.469 227.22 329.334 225.578C327.15 223.896 326.957 220.591 324.112 219.717C322.712 219.286 322.33 219.817 321.618 221.068C321.172 221.854 321.172 223.371 320.607 223.952C318.806 225.804 316.783 220.219 314.527 221.249C312.847 222.017 312.605 225.099 311.37 226.36C310.028 227.73 308.493 226.674 306.923 227.176C305.967 227.483 305.404 228.983 305.281 230.004C305.167 230.942 305.469 231.456 304.846 232.177C304.176 232.949 302.82 233.003 301.841 233.217C300.459 233.519 297.324 234.87 297.94 236.864C298.526 238.734 302.148 239.194 303.711 239.404Z" fill="#D9D9D9"/>
<path d="M376.909 274.084C378.309 274.977 380.003 273.495 381.068 272.609C381.759 272.035 382.585 271.032 383.51 270.811C384.443 270.588 384.201 270.713 384.801 271.211C385.371 271.683 385.369 271.911 386.141 272.111C386.45 272.19 387.034 272.06 387.288 272.2C388.43 272.818 389.176 275.235 389.672 276.359C390.432 278.089 391.733 279.601 393.866 278.703C395.961 277.822 398.017 274.496 397.541 272.218C397.166 270.427 395.917 269.734 397.257 268.108C398.813 266.222 401.378 264.291 401.767 261.649C402.386 257.446 396.292 255.457 393.289 254.439C391.372 253.79 389.73 253.185 388.006 252.068C386.329 250.985 384.255 250.126 382.247 250.047C381.696 250.026 380.18 249.845 379.686 250.131C379.042 250.508 379.226 251.419 377.944 251.652C377.847 253.336 378.482 255.113 378.477 256.841C378.475 257.551 378.719 258.744 378.365 259.367C377.874 260.233 376.242 260.728 375.621 261.649C374.797 262.87 374.925 264.557 374.99 265.962C375.097 268.332 374.525 272.563 376.909 274.084Z" fill="#D9D9D9"/>
<path d="M353.791 264.636C353.6 265.211 354.198 266.92 354.482 267.448C354.826 268.085 355.366 268.302 355.764 268.853C356.089 269.302 356.264 270.9 356.992 270.942C357.892 270.995 359.08 268.311 359.225 267.513C359.339 266.883 359.332 265.622 359.076 265.043C358.162 262.973 356.824 262.824 355.705 263.568C355.029 263.782 354.042 263.882 353.791 264.636Z" fill="#D9D9D9"/>
<path d="M117.549 217.409C116.293 214.972 115.39 213.565 112.929 212.318C110.652 211.164 109.724 210.848 109.41 208.447C109.138 206.382 108.773 204.454 108.768 202.339C106.047 203.623 104.921 203.581 103.865 204.012C102 204.77 102.2 206 101.348 207.615C100.309 209.582 99.662 210.292 100.018 212.764C100.36 215.153 101.111 217.679 101.921 219.945C102.249 220.863 102.893 221.824 103.051 222.759C105.026 222.101 107.47 222.766 109.231 223.727C110.682 224.518 111.273 225.541 112.129 226.888C113.095 228.402 113.688 228.667 115.432 229.318C116.756 229.812 120.689 231.886 121.219 229.437C121.445 228.395 119.919 225.813 119.521 224.834C118.535 222.403 118.742 219.728 117.549 217.409Z" fill="#D9D9D9"/>
<path d="M135.582 242.907C134.977 241.737 134.429 240.634 133.684 239.56C133.305 239.013 132.756 238.425 132.642 237.75C132.579 237.376 132.614 237.131 132.412 236.794C132.044 236.185 130.13 235.219 129.663 235.924C129.467 236.22 129.446 236.675 129.421 237.064C129.414 237.166 129.404 237.264 129.393 237.352C129.335 237.797 129.251 237.876 128.914 238.187C128.621 238.459 128.12 238.732 127.902 239.076C127.704 239.387 127.799 239.722 127.916 240.062C128.179 240.816 128.341 241.451 128.404 242.241C128.46 242.946 128.737 243.621 129.102 244.219C129.828 245.405 130.907 246.351 132.003 247.189C132.505 247.573 133.517 248.487 134.163 248.626C136.022 249.029 136.603 247.342 137.813 246.547C137.659 246.649 135.75 243.228 135.582 242.907Z" fill="#D9D9D9"/>
<path d="M153.922 263.943C151.348 259.549 146.058 257.879 143.244 253.643C142.595 252.669 141.699 250.62 140.35 252.085C139.304 253.222 140.888 255.839 141.323 256.439C141.523 259.495 140.923 261.738 142.237 264.599C143.028 266.318 143.197 267.027 144.993 267.292C146.465 267.508 147.7 266.862 148.849 267.615C149.994 268.364 150.773 270.379 151.182 271.597C151.748 273.284 152.092 274.037 153.306 275.389C154.939 277.205 156.332 281.255 159.344 281.169C159.416 279.106 159.079 278.385 158.086 276.754C157.286 275.44 157.16 274.791 158.36 273.635C158.723 273.286 159.507 273.351 159.821 272.723C160.328 271.709 159.184 270.551 158.688 269.827C157.225 267.695 155.202 266.127 153.922 263.943Z" fill="#D9D9D9"/>
<path d="M95.9241 181.75C94.7657 180.691 95.845 178.835 95.8961 177.602C95.9869 175.495 92.6491 176.172 91.5745 175.195C91 174.674 90.793 173.453 89.7649 174.346C89.2927 174.758 89.3369 175.514 89.4043 176.088C89.4811 176.747 90.0044 177.135 90.151 177.709C90.465 178.933 88.2507 179.377 88.4437 180.775C88.5507 181.538 89.1671 181.871 89.8556 181.989C90.2882 182.064 90.7395 181.947 91.1744 181.931C91.6024 181.915 91.8699 182.157 92.2932 182.178C92.5979 182.194 92.7607 182.264 93.0422 182.392C93.326 182.52 93.726 182.617 93.8702 182.924C94.0423 183.287 93.7214 183.727 93.733 184.106C93.7446 184.49 93.933 184.327 94.1075 184.597C94.1772 184.704 94.2121 184.883 94.2214 185.064C94.2307 185.227 94.2238 185.392 94.2028 185.501C94.1191 185.988 93.8842 186.169 93.4562 186.169C92.8165 186.169 91.928 186.092 91.4186 186.567C90.8999 187.051 90.0486 187.679 89.923 188.425C89.8114 189.088 90.5231 189.802 90.3324 190.423C90.2254 190.775 89.9649 190.928 89.8974 191.335C89.8393 191.684 89.8765 192.01 89.9789 192.345C90.2324 193.175 90.6301 194.003 90.9302 194.822C91.079 195.229 91.4605 196.343 91.9094 196.589C92.6142 196.978 93.0399 195.766 93.1096 195.268C93.2259 194.41 93.0864 193.782 94.0237 193.47C95.1425 193.098 95.1774 192.263 95.2519 191.093C95.2867 190.544 95.2728 190.014 95.5775 189.535C95.9659 188.921 96.6381 188.716 97.2173 188.346C98.5059 187.518 98.7315 186.602 98.6571 185.201C98.5571 183.203 97.2103 182.924 95.9241 181.75Z" fill="#D9D9D9"/>
<path d="M104.067 172.713C104.726 172.86 105.621 173.611 106.314 173.509C106.754 173.444 106.884 172.953 107.019 172.516C107.356 171.427 106.775 170.052 105.696 169.576C104.902 169.227 103.863 169.152 103.025 168.982C102.625 168.901 102.26 168.71 102.223 168.875C101.367 168.873 100.518 168.969 99.6619 168.889C99.413 168.866 99.0827 168.766 98.8292 168.838C98.2384 169.003 97.0591 169.727 96.6963 170.213C96.466 170.522 96.4707 170.741 96.5288 171.106C96.7242 172.337 97.6058 173.295 98.8827 173.244C100.662 173.172 102.223 172.304 104.067 172.713Z" fill="#D9D9D9"/>
<path d="M77.4048 143.525C75.1789 140.268 72.7948 136.482 69.985 133.695C68.7848 132.506 67.3148 131.437 66.0355 130.341C64.8585 129.334 63.1745 127.364 61.8441 126.708C61.137 127.908 60.1205 129.841 58.6807 130.329C56.7223 130.992 54.4335 129.308 52.8984 131.048C51.9935 132.074 51.954 133.397 52.9495 134.27C55.3034 136.333 59.2901 134.328 59.76 138.103C60.2275 141.862 58.5784 144.937 63.0326 146.318C64.4259 146.751 65.7168 146.916 66.8007 148.125C67.9614 149.421 69.885 151.393 70.6293 152.856C71.562 154.692 70.6083 156.752 71.9714 158.327C73.2739 159.832 76.0558 160.393 77.9584 160.521C77.9794 160.272 78.0049 159.974 76.6884 159.567C76.6303 157.257 77.7235 155.131 77.3653 152.866C77.1606 151.577 76.6535 150.463 76.6884 149.116C76.7629 146.29 79.6122 146.753 77.4048 143.525Z" fill="#D9D9D9"/>
<path d="M35.9116 101.475C36.307 100.859 35.886 100.561 35.4627 100.129C34.6602 99.3123 33.9322 98.3005 32.9785 97.6586C32.4296 97.2887 31.8737 97.1282 31.4411 96.6258C30.7689 95.8466 30.3339 94.8325 29.564 94.0905C28.9685 93.5137 28.1149 93.2834 27.7986 92.5903C27.1938 91.2645 27.7009 89.8689 25.889 89.6014C24.5724 89.4083 23.0443 89.9247 21.8069 89.2502C20.5485 88.564 20.0949 86.9475 19.5321 85.7356C19.2995 85.2355 19.0994 84.6238 18.5505 84.4121C17.5736 84.0353 15.0406 84.6773 14.48 85.5053C14.1381 86.0124 14.2614 86.7637 14.0497 87.3731C13.5845 88.7198 12.5053 89.8758 12.2983 91.3226C12.0564 93.002 12.5495 93.9812 13.8823 94.993C14.8708 95.742 16.0896 96.6631 17.3968 96.3002C19.0017 95.8536 20.174 95.6908 21.7185 96.5002C23.0536 97.2004 24.2677 97.2213 25.2214 98.4866C26.2844 99.8985 27.7288 99.6543 29.3407 100.257C30.7944 100.803 31.6713 102.231 33.0879 102.822C33.5414 103.011 34.5346 103.362 35.0254 103.139C35.3347 102.999 35.5371 102.418 35.7813 102.187C36.1 101.885 36.4582 101.755 35.9116 101.475Z" fill="#D9D9D9"/>
<path d="M60.7995 111.354C61.2787 111.386 61.6718 111.363 62.0881 111.563C62.3091 111.67 62.4952 112.001 62.7324 112.075C63.9047 112.44 64.3932 110.947 64.1304 110.03C63.7652 108.753 62.8185 107.802 62.7231 106.741C61.0321 106.869 60.039 105.053 58.2666 105.153C58.2759 106.158 58.0363 106.946 56.9663 107.228C56.1243 107.449 54.7822 106.897 54.1426 107.614C52.8796 109.026 54.9288 109.902 55.9336 110.144C57.613 110.549 59.0365 111.235 60.7995 111.354Z" fill="#D9D9D9"/>
<path d="M273.98 195.287C276.052 195.831 277.462 195.085 279.379 194.736C280.328 196.827 282.8 198.276 283.921 195.415C284.324 194.389 283.917 193.382 284.156 192.375C284.47 191.061 285.57 190.284 286.603 189.439C288.708 187.716 287.164 186.639 285.012 185.388C283.47 184.492 280.711 183.759 279.051 184.941C277.89 185.769 276.708 185.043 276.018 186.218C274.98 186.765 272.138 186.311 271.694 187.976C271.391 189.109 272.722 190.83 272.51 192.289C272.263 193.987 271.591 194.661 273.98 195.287Z" fill="#D9D9D9"/>
<path d="M285.622 173.976C284.754 172.657 283.016 171.697 281.549 171.143C280.302 170.673 279.765 170.897 278.948 169.813C278.465 169.171 278.153 168.301 276.764 168.875C278.46 170.036 277.634 172.05 279.497 172.767C280.607 173.195 281.933 173.96 280.874 175.253C280.323 175.925 279.46 175.921 279.211 176.765C278.96 177.616 279.416 178.242 279.974 178.793C281.067 179.873 282.354 179.712 283.777 179.517C284.847 179.37 285.535 179.131 286.526 179.696C287.578 180.298 288.248 181.308 289.327 181.892C290.667 182.617 295.333 183.164 293.655 180.468C293.014 179.438 291.355 179.317 290.332 179.028C289.25 178.724 288.234 178.244 287.392 177.477C286.398 176.579 286.417 175.186 285.622 173.976Z" fill="#D9D9D9"/>
<path d="M280.302 141.98C280.837 143.371 281.6 144.587 282.23 145.93C282.547 146.599 282.765 148.279 283.6 148.465C284.514 148.667 286.017 146.888 286.184 146.134C286.431 145.022 285.635 144.139 285.689 143.113C285.773 141.519 287.98 140.924 288.161 139.407C288.313 138.142 286.484 136.272 285.475 135.795C284.317 135.246 283.456 134.974 282.349 134.295C281.728 133.914 281.1 133.486 280.909 134.404C279.781 133.907 277.627 134.235 276.232 134.027C274.317 133.741 273.001 135.539 272.929 137.433C272.91 137.891 273.198 138.261 273.143 138.691C273.036 139.519 272.382 139.363 272.084 140.04C270.717 143.171 278.995 143.636 280.302 141.98Z" fill="#D9D9D9"/>
<path d="M270.78 149.218C271.396 150.777 270.312 152.74 271.31 154.189C272.108 155.345 273.622 155.294 274.301 154.059C276.527 150.016 271.489 149.56 270.666 146.639C270.238 145.118 270.584 142.568 268.993 142.173C268.984 143.545 268.242 145.292 268.565 146.576C268.854 147.702 270.338 148.1 270.78 149.218Z" fill="#D9D9D9"/>
<path d="M254.693 149.853C256.058 150.786 258.503 152 260.18 151.851C260.452 150.933 259.896 149.986 260.054 149.07C260.227 148.067 260.35 148.262 261.466 148.239C263.623 148.193 264.979 147.82 264.869 145.134C264.832 144.192 264.178 143.406 264.044 142.52C263.962 141.987 264.181 141.603 264.188 141.11C264.211 139.219 262.725 139.219 261.229 138.663C261.108 140.247 259.326 141.515 258.591 142.857C258.266 143.455 258.24 144.05 258.036 144.613C257.396 146.376 255.847 145.311 254.488 146.32C253.27 147.223 253.514 149.046 254.693 149.853Z" fill="#D9D9D9"/>
<path d="M210.93 130.597C211.444 131.785 211.553 133.304 211.916 134.563C212.234 135.67 212.788 136.779 212.928 137.893C213.144 139.612 212.353 141.959 213.67 143.348C215.402 145.174 218.808 143.957 220.924 144.715C222.35 145.225 223.364 146.934 224.292 148.06C225.586 149.63 227.125 150.475 229.051 151.221C230.873 151.928 231.975 151.172 233.764 150.896C233.82 148.993 233.061 148.065 231.668 146.802C232.889 145.518 235.727 146.886 237.274 146.727C238.088 144.808 236.632 142.638 234.922 141.82C232.717 140.764 230.933 139.107 228.809 137.919C228.186 137.57 227.895 137.414 227.009 137.544C226.214 137.661 225.206 138.035 224.734 138.747C224.439 139.194 224.541 139.833 224.123 140.236C222.48 141.822 218.896 138.268 218.789 136.479C218.633 133.821 227.156 130.606 222.038 128.327C220.666 127.715 220.092 126.547 218.947 125.619C217.247 124.24 214.451 125.24 212.397 125.147C210.69 125.068 209.001 122.409 207.348 122.858C206.21 123.165 206.233 124.98 206.861 125.891C208.104 127.266 210.176 128.855 210.93 130.597Z" fill="#D9D9D9"/>
<path d="M186.798 119.199C188.64 120.555 190.585 119.29 192.438 119.862C192.943 120.018 193.178 120.316 193.792 120.302C195.32 120.269 196.632 118.595 197.262 117.355C197.7 116.492 198.004 115.559 198.444 114.694C198.707 114.173 199.13 113.652 199.251 113.091C199.788 110.612 197.532 110.43 195.997 109.435C194.822 108.674 194.743 107.174 193.783 106.299C193.315 105.874 192.678 105.871 192.068 106.03C190.778 106.365 190.933 107.109 190.391 108.079C189.64 109.421 186.695 109.065 185.679 108.279C185.481 108.744 185.312 109.195 185.209 109.533C185.26 110.372 185.084 111.04 185.211 111.917C185.391 113.138 185.095 114.212 185.049 115.385C185 116.72 185.716 118.402 186.798 119.199Z" fill="#D9D9D9"/>
<path d="M152.592 104.865C152.036 106.272 151.657 108.165 151.668 109.465C151.678 110.414 152.117 111.14 152.585 111.91C153.004 112.601 153.438 113.315 153.559 114.206C153.92 116.86 151.636 118.29 149.619 119.553C148.089 120.511 146.644 121.416 146.416 122.686C146.172 124.056 147.675 124.673 150.15 125.566C152.883 126.552 156.283 127.78 156.46 131.302C156.699 136.116 151.964 136.375 148.159 136.582C146.837 136.654 145.577 136.723 144.637 136.961C144.832 137.54 145.109 138.061 145.4 138.605C146.07 139.868 146.763 141.175 146.381 143.187C146.23 143.978 145.972 144.643 145.723 145.285C145.263 146.467 144.865 147.488 145.26 149.058C145.367 149.484 145.574 149.923 145.795 150.389C146.365 151.593 147.044 153.08 145.637 154.375C148.277 156.859 149.312 158.453 148.256 162.002C148.152 162.351 148.033 162.632 147.919 162.895C147.696 163.409 147.549 163.749 147.621 164.465C147.744 165.719 148.154 165.98 148.896 166.454C149.308 166.717 149.819 167.043 150.35 167.596C151.268 168.554 151.827 169.696 152.364 170.801C153.255 172.625 154.025 174.202 156.216 174.621C158.439 175.049 158.921 174.355 159.795 173.099C160.202 172.516 160.663 171.853 161.375 171.22C162.456 170.259 163.384 169.887 164.21 170.092C165.08 170.306 165.748 171.101 166.313 172.597C167.057 174.567 166.48 178.263 165.857 180.14C165.664 180.722 165.275 181.459 164.864 182.24C164.043 183.797 162.917 185.929 163.468 186.878C163.705 187.288 164.31 187.513 165.264 187.546C165.95 187.569 166.65 187.216 167.408 186.841C168.464 186.323 169.66 185.736 170.886 186.223C172.779 186.976 173.351 189.265 173.812 191.105C173.935 191.603 174.049 192.063 174.182 192.438C175.024 194.829 176.989 195.026 179.475 195.278C180.985 195.431 182.546 195.587 184.002 196.28C185.581 197.029 186.693 198.487 187.768 199.895C188.351 200.658 188.9 201.379 189.503 201.965C190.338 202.777 191.368 203.488 192.364 204.177C192.643 204.37 192.917 204.561 193.187 204.751C193.569 205.021 193.92 205.263 194.248 205.486C195.567 206.389 196.541 207.066 197.441 208.294C198.153 207.58 199.121 207.408 199.949 207.273C200.209 207.228 200.467 207.187 200.719 207.128C201.507 206.942 202.349 206.603 203.24 206.242C205.138 205.479 207.103 204.688 208.948 205.2C210.525 205.637 212.165 207.052 213.905 208.552C216.398 210.703 218.973 212.927 221.255 212.15C222.09 211.866 223.381 210.513 224.518 209.317C225.204 208.596 225.853 207.917 226.409 207.454C227.86 206.252 228.723 204.905 229.721 203.346C229.963 202.97 230.21 202.583 230.47 202.193C233.057 198.311 236.46 199.446 239.746 200.544C240.381 200.755 241.023 200.969 241.663 201.148C245.766 202.295 249.415 201.758 252.737 199.518C252.499 199.315 252.269 199.106 252.069 198.869C250.799 197.364 248.755 192.819 249.097 190.777C249.394 189 251.823 188.876 252.948 187.602C254.023 186.385 255.414 184.608 254.66 183.096C252.751 179.268 249.39 184.557 246.759 183.801C246.378 180.575 247.885 181.65 249.829 180.377C252.006 178.952 250.057 178.642 250.79 176.628C251.855 173.706 258.296 177.779 258.459 173.188C258.542 170.797 255.709 168.117 254.265 166.51C252.618 164.675 250.571 162.949 248.708 161.351C246.557 159.509 246.708 160.081 244.735 160.641C243.219 161.072 241.847 161.042 240.684 162.17C239.362 163.449 238.886 165.607 237.481 166.815C236.287 167.84 230.386 169.031 229.593 166.861C229.123 165.573 231.28 165.017 232.036 164.391C234.029 162.739 235.976 159.492 235.906 156.743C235.818 153.301 233.664 153.554 231.026 153.661C226.479 153.847 225.046 150.121 221.224 148.646C218.554 147.616 214.488 148.437 212.5 145.962C210.69 143.711 210.255 139.191 209.618 136.412C209.236 134.753 208.953 132.981 207.829 131.657C206.748 130.383 204.98 129.701 204.094 128.203C203.014 126.38 203.098 123.163 200.714 122.309C199.223 121.777 197.262 123.019 195.75 123.254C194.266 123.484 193.299 123.296 191.854 122.968C189.521 122.44 187.623 121.628 185.728 120.107C182.695 117.671 182.502 115.957 182.295 112.384C182.15 109.907 181.243 109.558 179.731 107.793C178.243 106.055 176.117 102.904 173.512 102.797C171.883 102.729 172.193 103.241 171.121 104.46C169.516 106.286 168.697 106.028 166.548 106.632C165.503 106.928 164.826 106.858 164.447 108.116C163.943 109.789 165.782 111.307 165.661 113.005C163.429 113.071 163.001 110.873 162.27 109.193C160.93 106.111 158.474 103.308 155.953 101.092C155.618 100.799 155.195 100.508 154.75 100.215C154.757 101.713 154.153 102.508 153.564 103.274C153.215 103.732 152.852 104.204 152.592 104.865Z" fill="#D9D9D9"/>
<path d="M264.171 204.886C262.997 204.121 261.417 203.805 260.189 203.1C258.24 201.981 255.649 201.416 253.681 200.206C250.008 202.83 245.954 203.481 241.37 202.2C240.714 202.016 240.056 201.797 239.402 201.579C236.239 200.525 233.506 199.613 231.38 202.8C231.124 203.186 230.88 203.565 230.64 203.937C229.635 205.505 228.688 206.984 227.107 208.296C226.6 208.717 225.972 209.375 225.309 210.073C224.025 211.422 222.694 212.815 221.606 213.188C218.733 214.157 215.917 211.732 213.19 209.38C211.548 207.963 209.997 206.626 208.657 206.254C207.166 205.84 205.378 206.561 203.647 207.256C202.756 207.615 201.837 207.984 200.97 208.191C200.695 208.257 200.412 208.303 200.125 208.352C198.897 208.554 198.123 208.733 197.748 209.845C197.451 210.722 197.816 211.329 198.276 212.094C198.648 212.718 199.072 213.42 199.088 214.318C199.125 216.53 197.951 216.716 196.59 216.932L195.583 217.102C194.134 217.351 193.199 217.512 191.931 218.133C192.64 219.782 193.103 222.403 192.727 224.185C191.875 228.204 188.298 228.665 185.142 229.072L184.767 229.121C184.051 229.216 183.064 229.186 181.922 229.153C179.436 229.081 176.028 228.983 175.093 230.37C174.689 230.972 174.754 231.895 175.289 233.121C175.647 233.938 176.131 234.603 176.598 235.247C177.394 236.338 178.205 237.471 178.366 239.269C181.343 240.848 184.723 244.044 184.834 248.131C184.841 248.389 184.837 248.626 184.834 248.847C184.821 249.629 184.814 250.059 185.274 250.606C185.593 250.985 185.93 251.11 186.321 251.257C186.926 251.482 187.677 251.764 188.14 253.018C188.435 253.818 188.523 254.72 188.61 255.592C188.768 257.207 188.917 258.73 190.282 259.626C191.501 260.421 192.854 260.175 194.29 259.914C195.436 259.705 196.623 259.488 197.786 259.812C199.367 260.249 202.307 262.156 203.212 262.789C203.466 262.966 203.696 263.152 203.914 263.34L204.112 263.112C206.482 260.405 208.194 258.449 212.448 259.728C212.763 259.821 213.086 259.947 213.414 260.072C214.181 260.365 214.97 260.668 215.679 260.565C216.024 260.514 216.598 260.009 217.059 259.605C217.463 259.249 217.847 258.912 218.217 258.721C218.552 258.546 219.04 258.423 219.557 258.293C220.01 258.179 220.694 258.007 220.864 257.86C221.364 257.425 221.566 255.632 221.743 254.05C221.95 252.194 222.166 250.275 222.871 249.094C224.897 245.693 228.909 247.396 232.45 248.898C234.487 249.764 236.592 250.659 238.099 250.508C238.151 249.554 237.934 248.626 237.709 247.652C237.341 246.072 236.962 244.439 237.811 242.711L237.941 242.448L238.234 242.411C238.734 242.348 239.139 242.36 239.474 242.439L239.881 242.537L239.89 242.955C239.916 244.046 242.193 247.731 242.958 248.321C243.626 248.836 244.996 248.612 246.722 247.712C249.09 246.477 248.978 243.758 248.859 240.878C248.803 239.534 248.748 238.145 248.962 236.91L249.027 236.533L249.404 236.466C249.904 236.378 250.576 236.333 251.285 236.287C252.734 236.191 254.537 236.071 255.284 235.538C255.367 235.452 255.523 235.015 255.628 234.726C255.816 234.196 256.012 233.647 256.34 233.279C258.473 230.872 263.22 229.546 266.602 229.521C269.042 229.483 270.193 229.932 272.349 231C272.552 231.1 272.749 231.205 272.942 231.307C274.129 231.937 274.792 232.235 275.764 231.544C276.036 231.351 276.355 230.823 276.636 230.358C276.911 229.902 277.194 229.432 277.515 229.111C278.434 228.192 279.592 227.595 280.714 227.018C281.069 226.834 281.414 226.653 281.749 226.467C281.697 225.839 281.272 225.111 280.548 224.262C279.116 222.578 278.185 220.631 277.329 218.361C276.324 215.693 277.271 215.048 278.434 212.804C279.274 211.183 278.983 210.936 278.455 209.259C277.339 205.712 274.592 204.87 270.789 206.012C268.532 206.689 268.009 207.887 265.906 206.572C265.264 206.175 264.86 205.335 264.171 204.886Z" fill="#D9D9D9"/>
<path d="M101.327 120.779C102.779 121.281 104.656 119.774 105.042 121.53C107.677 123.6 105.182 130.057 105.558 132.846C106.142 137.16 109.557 140.045 110.35 143.992C111.029 147.369 110.096 152.17 109.519 155.501C109.108 157.88 107.703 162.907 109.964 164.726C112.501 166.768 116.421 165.561 119.391 167.48C120.068 166.863 120.735 166.224 121.382 165.519C123.28 163.456 124.364 162.807 127.455 162.751C128.934 162.737 129.393 162.96 130.074 163.377C130.325 163.53 130.609 163.705 131.044 163.895C132.737 164.635 136.015 165.254 137.673 164.23C138.29 163.851 138.61 163.274 138.655 162.467C138.731 161.058 138.159 159.946 137.552 158.769C136.65 157.017 135.719 155.208 137.101 152.547L137.301 152.161L137.722 152.27C138.289 152.417 138.952 152.712 139.653 153.024C141.453 153.824 143.49 154.733 144.788 153.682C145.723 152.926 145.437 152.191 144.805 150.851C144.572 150.36 144.332 149.851 144.2 149.323C143.718 147.413 144.218 146.129 144.702 144.885C144.935 144.29 145.174 143.673 145.307 142.98C145.616 141.345 145.067 140.312 144.432 139.114C144.049 138.391 143.651 137.642 143.432 136.721L143.321 136.251L143.772 136.081C144.893 135.66 146.451 135.576 148.098 135.486C152.464 135.249 155.541 134.811 155.369 131.35C155.23 128.557 152.459 127.554 149.78 126.587C147.391 125.724 144.923 124.833 145.342 122.488C145.654 120.744 147.375 119.664 149.04 118.622C150.945 117.429 152.743 116.303 152.478 114.347C152.387 113.682 152.029 113.094 151.652 112.47C151.154 111.649 150.589 110.719 150.578 109.467C150.566 108.021 150.968 106.006 151.578 104.457C151.896 103.652 152.324 103.094 152.704 102.603C153.255 101.885 153.692 101.317 153.667 100.145C153.662 99.9053 153.632 99.6704 153.606 99.4331C153.032 99.0261 152.506 98.5958 152.18 98.119C151.431 97.0234 151.913 96.3838 151.645 95.1743C151.199 93.1507 149.261 91.3248 147.135 90.406C146.112 91.4969 145.649 94.1415 143.549 93.0762C141.892 92.2366 142.204 88.3964 142.032 86.9194C141.853 85.3703 141.525 83.8096 140.539 82.5721C140.15 82.0837 139.148 81.6464 138.869 81.1068C137.989 79.4134 138.569 77.3992 137.347 75.5012C135.175 72.1262 133.263 74.2661 129.974 72.9682C128.278 72.3006 127.071 70.4422 125.469 69.4862C123.303 68.1929 121.559 68.2232 119.203 67.7115C117.705 67.3858 116.577 66.174 115.2 65.5669C113.876 64.9831 112.722 64.911 111.529 63.8806C110.35 62.8641 109.887 60.9754 108.896 60.1102C108.184 59.4891 106.691 58.8448 105.826 58.4029C103.928 57.4306 102.416 57.3167 101.334 55.3559C99.7085 52.4112 100.625 50.1108 101.523 47.1452C98.6316 46.2729 94.9658 45.0751 92.1165 43.105C91.8769 43.098 91.6374 43.0887 91.3955 43.0654C90.9768 43.0259 90.4953 42.9235 89.9859 42.8165C88.6718 42.5421 87.0296 42.1955 86.3179 42.9445C85.4782 43.8283 85.7387 44.982 86.0434 46.3171C86.4039 47.9104 86.8133 49.7177 85.2781 51.2877C84.8734 51.7018 84.4338 52.053 84.0082 52.3926C83.2359 53.009 82.5079 53.5928 82.0939 54.4674C81.8613 54.9628 81.6915 55.3908 81.5333 55.7955C81.1402 56.791 80.803 57.6493 79.7888 58.8797C77.7234 61.3825 78.4514 62.2756 79.7702 63.8945C80.4238 64.697 81.1658 65.6065 81.6915 66.8718C82.5777 69.007 82.4893 70.7329 81.4287 72.1541C80.9332 72.8146 80.4517 73.124 80.1005 73.3496C79.626 73.6543 79.4655 73.7567 79.4586 74.6033C79.4516 75.3965 80.1191 76.4664 80.7634 77.5015C81.2798 78.3295 81.7683 79.1134 82.0009 79.8624L82.1451 80.3276L81.6985 80.5253C80.8355 80.9067 79.9703 81.1905 79.205 81.4394C77.9606 81.8464 76.786 82.2302 76.6744 82.7466C76.593 83.1211 76.9186 83.9631 78.9422 85.8355C79.2073 86.0797 79.4818 86.289 79.7447 86.4914C80.6122 87.1566 81.5101 87.8428 81.5729 89.357C81.6264 90.6223 81.1775 91.2341 80.8821 91.6388C80.6146 92.004 80.5448 92.1017 81.2123 92.9413C81.6287 93.467 82.1706 93.8205 82.7452 94.1973C83.5895 94.7486 84.5455 95.3766 85.1223 96.6303C85.9783 98.4934 85.5317 100.017 85.0595 101.634L84.9292 102.082C84.5873 103.28 84.578 104.467 84.706 105.667C87.2389 106.841 88.9323 109.663 90.8931 112.326C93.3702 115.71 97.2965 119.381 101.327 120.779Z" fill="#D9D9D9"/>
<path d="M82.1334 95.1186C81.5124 94.7116 80.8704 94.2929 80.3424 93.63C79.3353 92.36 79.426 91.7715 79.9866 91.004C80.2424 90.6551 80.5053 90.2945 80.468 89.4107C80.4262 88.4058 79.8563 87.9709 79.0655 87.3661C78.7771 87.1452 78.477 86.9126 78.1863 86.6451C76.1487 84.7587 75.3742 83.5259 75.5951 82.5234C75.8417 81.3977 77.1698 80.9627 78.8538 80.4115C79.4493 80.2161 80.1075 80.0021 80.7658 79.7369C80.5355 79.2322 80.1866 78.674 79.8237 78.0901C79.0957 76.9225 78.3444 75.7153 78.3537 74.6035C78.3654 73.2637 78.8166 72.8776 79.5004 72.4403C79.8284 72.231 80.168 72.0123 80.5448 71.5099C81.3682 70.4097 81.4101 69.0723 80.6751 67.2999C80.2122 66.1834 79.5237 65.3391 78.9166 64.5948C77.5722 62.9457 76.3046 61.3896 78.9399 58.1937C79.8447 57.0982 80.1401 56.3516 80.5122 55.4049C80.6774 54.9816 80.8565 54.5326 81.1007 54.0116C81.6217 52.9068 82.487 52.2183 83.3197 51.5507C83.7384 51.2158 84.1315 50.9018 84.4897 50.5366C85.6085 49.3922 85.3131 48.085 84.9711 46.5708C84.6455 45.1357 84.278 43.5098 85.5201 42.2026C86.6505 41.0117 88.6229 41.4257 90.2046 41.7584C90.3069 41.7793 90.4 41.7979 90.4977 41.8188C89.6882 41.0582 88.9951 40.2093 88.495 39.2417C87.7018 37.7158 88.1042 36.1016 87.3878 34.5874C86.918 33.5988 86.5388 33.236 85.6736 32.6429C83.4709 31.131 81.966 31.2054 80.482 28.6771C78.5514 25.3928 75.416 22.7319 73.6878 19.3848C73.1528 18.3451 73.2203 16.989 72.4737 16.047C71.5758 14.9143 67.6752 12.8139 66.2052 12.9884C65.312 13.0954 64.47 14.3049 63.6722 14.8678C62.0672 15.9982 59.2761 17.738 57.199 17.5031C55.0335 17.2565 54.5613 15.3074 52.7843 14.7282C48.8441 13.4419 46.9344 13.8187 44.2805 16.4355C40.7915 19.8756 37.1956 18.9266 33.0158 17.6194C29.0081 16.368 26.0472 13.9978 23.0094 11.2043C21.7046 10.0041 20.4788 8.35269 18.8599 7.57116C17.7574 7.03851 16.4083 7.24785 15.357 6.69195C12.4588 5.16145 11.0516 1.45384 7.71614 0.332721C3.91782 -0.94424 3.55497 1.68876 1.6686 4.25199C1.16154 4.94048 0.675408 4.72881 0.284644 5.6406C-0.147988 6.65007 0.0101755 8.5155 0.1288 9.61104C0.370702 11.8114 0.549806 13.3745 0.347446 15.6307C0.128804 18.0543 0.868461 18.3311 2.35709 20.3245C3.57357 21.9527 4.19926 23.9181 4.84821 25.8254C5.79255 28.605 8.11388 34.3664 10.8213 35.9574C12.2146 36.7761 15.0732 36.5482 16.6293 37.0552C18.8157 37.767 20.5486 39.251 22.1465 40.8838C24.3422 43.1284 25.8936 45.6358 27.587 48.2502C29.6292 51.4042 32.7297 53.8976 32.9018 57.9053C34.3579 58.5031 34.944 59.2055 36.4675 59.6265C38.4562 60.1754 40.6241 60.1196 42.6779 60.0452C47.2019 59.88 48.5556 59.3055 50.3513 63.6412C52.333 68.428 54.545 73.0265 57.5013 77.2946C59.7389 80.5254 63.2791 81.8885 65.733 84.7145C68.0869 87.4243 67.3774 91.7599 66.3726 94.9767C64.9049 99.6729 65.9446 103.206 70.6757 106.318C73.8413 108.4 76.9837 106.167 80.1587 105.365C81.4543 105.037 82.5684 105.041 83.5616 105.278C83.4779 104.134 83.5244 102.971 83.864 101.789L83.9966 101.334C84.4455 99.7985 84.8013 98.5866 84.1152 97.0957C83.6709 96.1234 82.9243 95.635 82.1334 95.1186Z" fill="#D9D9D9"/>
<path d="M176.861 250.313C178.627 249.026 178.457 248.719 177.826 247.575C177.596 247.159 177.31 246.64 177.078 245.993C176.554 244.542 176.798 243.276 177.031 242.055C177.182 241.265 177.34 240.448 177.292 239.562C177.205 237.941 176.51 236.989 175.708 235.887C175.205 235.196 174.684 234.482 174.279 233.556C173.584 231.968 173.551 230.688 174.179 229.758C175.452 227.872 179.052 227.979 181.946 228.06C182.997 228.09 183.988 228.118 184.618 228.037L184.995 227.988C188.061 227.592 190.959 227.218 191.65 223.957C192.003 222.289 191.452 219.514 190.722 218.144L190.468 217.665L190.943 217.407C192.617 216.498 193.72 216.309 195.39 216.021L196.411 215.849C197.797 215.628 198.011 215.595 197.988 214.332C197.979 213.73 197.665 213.206 197.332 212.653C196.825 211.806 196.248 210.848 196.706 209.492C196.769 209.308 196.846 209.15 196.925 208.999L196.706 209.147C195.871 207.926 194.976 207.315 193.622 206.386C193.29 206.159 192.934 205.914 192.548 205.64C192.282 205.451 192.01 205.263 191.736 205.075C190.703 204.361 189.633 203.621 188.733 202.746C188.072 202.104 187.472 201.316 186.891 200.555C185.895 199.25 184.865 197.899 183.525 197.264C182.239 196.652 180.774 196.506 179.357 196.362C176.829 196.106 174.214 195.843 173.142 192.798C173 192.396 172.877 191.903 172.742 191.368C172.342 189.77 171.846 187.783 170.472 187.234C169.695 186.927 168.813 187.36 167.881 187.818C167.036 188.235 166.145 188.653 165.217 188.632C163.864 188.586 162.954 188.179 162.515 187.423C161.661 185.953 162.845 183.708 163.889 181.726C164.28 180.987 164.648 180.287 164.813 179.791C165.394 178.04 165.897 174.604 165.283 172.978C164.868 171.881 164.417 171.264 163.94 171.148C163.494 171.039 162.873 171.336 162.091 172.032C161.475 172.578 161.073 173.158 160.682 173.718C159.777 175.021 158.919 176.249 156 175.688C153.271 175.165 152.306 173.188 151.371 171.274C150.868 170.245 150.35 169.18 149.55 168.345C149.112 167.887 148.698 167.624 148.298 167.368C147.475 166.843 146.7 166.347 146.524 164.568C146.426 163.568 146.67 163.002 146.907 162.456C147.005 162.23 147.11 161.988 147.2 161.686C148.08 158.73 147.452 157.555 144.691 154.985C142.986 155.694 140.916 154.78 139.204 154.019C138.727 153.808 138.269 153.603 137.869 153.459C137.038 155.392 137.727 156.732 138.517 158.267C139.164 159.52 139.832 160.818 139.739 162.523C139.676 163.679 139.157 164.591 138.241 165.156C136.231 166.396 132.563 165.749 130.602 164.891C130.097 164.672 129.767 164.468 129.5 164.305C128.972 163.979 128.704 163.809 127.471 163.84C124.722 163.889 123.92 164.37 122.184 166.254C121.556 166.936 120.917 167.557 120.27 168.154C122.987 170.439 124.101 171.834 128.041 172.162C132.807 172.56 137.285 173.606 135.652 179.394C134.873 182.159 134.005 182.294 135.468 184.246C136.112 185.106 137.059 185.871 137.806 186.63C141.12 189.998 145.223 193.014 149.298 195.422C153.073 197.652 152.959 201.209 153.941 204.919C154.946 208.719 157.051 211.869 157.379 216.016C157.637 219.291 158.13 221.198 160.158 223.848C162.594 227.027 167.383 229.649 168.888 233.212C170.63 237.338 167.436 241.041 167.174 245.065C166.985 247.954 169.011 251.134 171.172 252.994C172.07 252.478 173.084 252.062 174.051 251.671C175.145 251.229 176.177 250.813 176.861 250.313Z" fill="#D9D9D9"/>
<path d="M305.869 347.985C307.3 349.822 310.449 349.79 311.477 352.086C311.982 353.211 311.682 354.465 312.421 355.588C313.454 357.156 316.864 359.715 318.671 360.068C319.63 356.577 319.769 352.597 319.981 348.992C320.093 347.085 319.741 345.119 319.981 343.219C320.33 340.463 321.621 337.846 322.265 335.162C322.986 332.161 323.063 329.179 322.733 326.093C322.291 321.943 322.372 317.587 320.716 313.681C319.158 310.004 319.802 307.715 322.449 304.622C322.602 304.443 322.765 304.231 322.933 304.003C319.832 304.219 316.587 304.108 314.843 300.921C314.385 300.086 314.219 299.144 314.057 298.232C313.929 297.518 313.798 296.783 313.529 296.125C313.236 295.408 312.645 294.48 311.87 294.022C311.647 293.89 311.398 293.729 311.138 293.562C310.51 293.157 309.798 292.696 309.24 292.529C308.097 292.185 306.63 292.317 305.337 292.434C305.053 292.459 304.774 292.482 304.506 292.503C304.346 292.515 304.141 292.52 303.918 292.522C303.459 292.529 302.766 292.541 302.483 292.671C302.308 292.752 302.215 292.903 302.055 293.185C301.945 293.376 301.831 293.571 301.678 293.755C301.45 294.029 301.187 294.252 300.931 294.469C300.529 294.808 300.182 295.101 300.059 295.515C299.915 295.999 300.026 296.781 300.133 297.534C300.322 298.851 300.533 300.344 299.452 301.04C298.768 301.479 298.031 301.754 297.319 302.017C295.947 302.526 294.763 302.963 294.249 304.468C293.944 305.357 293.393 306.622 292.125 307.348C291.325 307.808 290.615 307.692 289.992 307.59C289.587 307.522 289.206 307.459 288.806 307.559C287.848 307.799 287.608 308.478 287.296 309.564C287.033 310.481 286.738 311.52 285.691 312.123C284.221 312.97 282.547 312.632 280.925 312.309C279.132 311.951 277.439 311.611 276.141 312.86C274.578 314.365 275.229 316.752 275.859 319.059C276.029 319.68 276.192 320.278 276.304 320.834C276.627 322.448 276.525 323.523 275.983 324.211C275.294 325.083 274.087 325.127 272.808 325.174C271.947 325.207 271.059 325.239 270.191 325.493C269.635 325.655 269.237 325.844 268.854 326.028C268.14 326.367 267.465 326.69 266.083 326.739L265.707 326.753C265.202 326.772 264.667 326.795 264.12 326.795C262.464 326.795 260.717 326.602 259.45 325.6C258.717 325.02 257.931 323.869 257.349 322.674C256.617 323.448 255.635 323.611 254.74 323.757C254.079 323.864 253.456 323.967 252.888 324.278L252.497 324.492C253.232 325.351 252.711 326.081 252.537 327.451C252.076 331.063 252.197 335.492 255.668 337.176C260.759 339.644 266.563 341.267 271.347 344.426C274.103 346.247 274.706 348.869 277.211 351.183C278.216 352.111 288.278 363.473 289.68 359.84C289.939 359.168 287.001 354.537 286.417 353.877C285.191 352.486 282.695 352.223 282.23 350.248C281.833 348.562 283.307 345.496 284.982 345.829C285.726 345.977 286.061 346.968 286.703 347.227C287.78 347.659 289.171 347.194 290.35 347.627C292.03 348.243 293.025 349.643 294.207 350.664C295.37 351.669 299.031 355.886 300.443 355.74C303.806 355.391 301.394 351.311 301.31 349.729C301.168 346.985 302.822 345.261 305.048 343.859C305.097 345.601 304.823 346.638 305.869 347.985Z" fill="#D9D9D9"/>
<path d="M290.916 245.574C290.636 243.372 295.128 243.188 293.232 240.259C292.518 239.157 291.12 238.668 289.771 238.378C287.65 237.924 287.406 239.138 285.789 239.262C281.463 239.592 284.675 233.923 283.391 232.114C282.372 230.679 279.165 231.614 278.725 229.509C278.576 229.63 278.425 229.751 278.29 229.886C278.062 230.114 277.813 230.525 277.571 230.925C277.218 231.509 276.853 232.114 276.397 232.437C274.831 233.551 273.557 232.872 272.431 232.272C272.247 232.174 272.061 232.074 271.868 231.979C269.789 230.953 268.868 230.588 266.611 230.614C263.42 230.637 259.01 231.914 257.156 234.005C256.97 234.214 256.803 234.682 256.656 235.096C256.449 235.675 256.27 236.177 255.919 236.429C254.921 237.143 253.028 237.268 251.358 237.378C250.855 237.41 250.374 237.443 249.978 237.489C249.853 238.51 249.899 239.643 249.948 240.834C250.069 243.783 250.206 247.126 247.224 248.682C245.703 249.477 243.612 250.208 242.289 249.187C241.458 248.547 239.281 245.225 238.865 243.46C238.802 243.46 238.739 243.462 238.665 243.465C238.151 244.751 238.451 246.042 238.767 247.403C239.037 248.559 239.314 249.754 239.139 251.047L239.09 251.419L238.725 251.508C236.853 251.957 234.504 250.959 232.017 249.905C227.986 248.193 225.237 247.251 223.804 249.654C223.22 250.636 223.009 252.515 222.823 254.173C222.595 256.213 222.397 257.974 221.574 258.688C221.208 259.004 220.534 259.174 219.82 259.356C219.385 259.465 218.936 259.579 218.713 259.695C218.464 259.826 218.112 260.133 217.773 260.43C217.145 260.982 216.498 261.549 215.835 261.649C214.849 261.8 213.875 261.426 213.016 261.098C212.714 260.982 212.416 260.868 212.128 260.779C208.546 259.7 207.259 261.172 204.926 263.838L204.726 264.066L203.905 263.347C204.499 263.861 204.989 264.415 205.466 264.954C206.49 266.115 207.457 267.211 209.404 267.871C210.202 268.141 211.239 268.199 212.339 268.26C214.342 268.369 216.61 268.492 217.88 270.081C218.931 271.397 218.794 273.128 218.659 274.803C218.54 276.266 218.431 277.647 219.11 278.608C220.369 280.383 222.855 280.043 225.486 279.678C227.758 279.366 230.11 279.04 231.633 280.273C232.878 281.28 233.345 282.283 233.02 283.253C232.275 285.479 227.447 286.384 225.376 286.618C226.828 290.361 225.891 291.529 222.309 293.308C222.085 293.42 221.867 293.522 221.66 293.622C219.99 294.413 219.299 294.741 219.95 296.657C220.548 298.418 223.234 300.877 225.165 300.372C225.814 300.2 226.025 299.835 226.319 299.328C226.598 298.846 226.944 298.246 227.728 297.848C230.477 296.455 235.655 298.816 236.874 300.879C237.392 301.754 237.59 302.521 237.767 303.198C238.044 304.263 238.244 305.033 239.577 305.88C240.981 306.771 242.47 306.922 243.912 307.066C245.98 307.275 248.12 307.492 249.811 309.871C250.892 311.39 251.258 312.997 251.581 314.416C252.176 317.031 252.607 318.919 257.063 319.24L257.566 319.275L257.57 319.778C257.584 321.087 259.024 323.881 260.136 324.762C261.506 325.846 263.816 325.755 265.674 325.683L266.053 325.669C267.209 325.627 267.733 325.379 268.393 325.062C268.798 324.869 269.254 324.653 269.893 324.464C270.891 324.174 271.891 324.136 272.775 324.104C273.838 324.064 274.757 324.032 275.131 323.555C275.452 323.148 275.487 322.313 275.238 321.071C275.131 320.538 274.973 319.961 274.81 319.368C274.164 316.998 273.359 314.051 275.39 312.095C277.099 310.45 279.251 310.881 281.146 311.26C282.635 311.558 284.042 311.839 285.154 311.199C285.817 310.818 286.019 310.109 286.254 309.287C286.554 308.236 286.929 306.927 288.548 306.522C289.164 306.368 289.701 306.454 290.174 306.533C290.722 306.622 291.12 306.687 291.585 306.422C292.306 306.008 292.827 305.282 293.218 304.135C293.9 302.14 295.447 301.568 296.944 301.014C297.603 300.77 298.282 300.519 298.866 300.142C299.359 299.825 299.205 298.748 299.056 297.709C298.933 296.837 298.803 295.934 299.017 295.222C299.233 294.499 299.761 294.05 300.229 293.655C300.457 293.461 300.673 293.278 300.84 293.075C300.95 292.943 301.029 292.799 301.108 292.661C301.294 292.336 301.524 291.931 302.022 291.698C302.515 291.468 303.253 291.457 303.901 291.447C304.099 291.445 304.283 291.443 304.427 291.431C304.69 291.412 304.96 291.387 305.239 291.361C306.63 291.238 308.207 291.096 309.554 291.498C310.261 291.71 311.042 292.215 311.731 292.661C311.977 292.82 312.212 292.973 312.424 293.099C313.28 293.603 314.071 294.585 314.538 295.727C314.852 296.492 314.994 297.288 315.131 298.058C315.285 298.921 315.429 299.735 315.801 300.414C317.378 303.293 320.437 303.138 323.712 302.863C325.196 300.472 326.708 296.957 326.117 294.845C325.563 292.871 322.581 292.296 321.183 290.996C319.118 289.072 320.4 288.337 321.714 286.407C322.884 284.686 322.921 281.913 324.079 280.434C325.58 278.512 329.499 278.443 330.85 276.24C329.685 275.165 327.81 273.67 327.636 271.969C327.557 271.188 328.306 270.197 328.264 269.757C328.122 268.215 326.754 267.185 325.063 266.238C324.535 265.303 324.684 264.945 324.068 264.101C323.23 262.952 322.063 263.422 320.895 262.849C318.113 261.484 317.215 258.451 316.973 255.602C316.648 251.768 317.341 248.345 312.059 248.568C308.316 248.726 304.285 246.835 300.378 246.877C298.212 246.9 296.705 247.275 295.058 246.34C294.572 246.063 294.558 245.135 294.023 244.918C293.355 244.635 291.662 245.425 290.916 245.574Z" fill="#D9D9D9"/>
<path d="M254.572 322.69C255.605 322.52 256.377 322.387 256.861 321.513C256.705 321.076 256.584 320.655 256.523 320.28C251.685 319.787 251.118 317.289 250.515 314.649C250.201 313.265 249.876 311.837 248.92 310.495C247.515 308.52 245.794 308.346 243.8 308.143C242.233 307.985 240.614 307.82 238.99 306.792C237.292 305.715 237.008 304.622 236.708 303.463C236.543 302.826 236.371 302.168 235.934 301.423C234.952 299.765 230.356 297.727 228.223 298.811C227.728 299.063 227.514 299.435 227.263 299.863C226.937 300.428 226.53 301.13 225.441 301.416C222.899 302.093 219.671 299.225 218.915 296.997C217.949 294.159 219.524 293.413 221.192 292.624C221.394 292.527 221.606 292.427 221.824 292.32C225.151 290.668 225.665 290.024 224.09 286.339L223.778 285.607L224.574 285.579C226.267 285.521 231.447 284.507 231.987 282.892C232.152 282.399 231.803 281.799 230.949 281.108C229.793 280.173 227.774 280.45 225.637 280.746C222.932 281.12 219.864 281.541 218.222 279.224C217.312 277.943 217.445 276.294 217.573 274.7C217.696 273.172 217.812 271.728 217.028 270.748C216.065 269.541 214.142 269.437 212.281 269.334C211.106 269.269 209.995 269.209 209.055 268.89C206.834 268.136 205.722 266.878 204.649 265.662C204.012 264.938 203.41 264.257 202.579 263.675C201.491 262.915 198.814 261.221 197.488 260.854C196.567 260.598 195.553 260.782 194.48 260.977C192.973 261.251 191.261 261.563 189.679 260.528C187.875 259.349 187.686 257.404 187.516 255.688C187.435 254.848 187.356 254.055 187.109 253.385C186.819 252.601 186.467 252.469 185.932 252.269C185.49 252.103 184.939 251.896 184.434 251.299C183.711 250.438 183.723 249.652 183.737 248.817C183.739 248.61 183.744 248.389 183.737 248.147C183.644 244.758 180.936 242.02 178.364 240.506C178.315 241.118 178.212 241.692 178.105 242.251C177.88 243.428 177.684 244.444 178.105 245.614C178.31 246.179 178.561 246.635 178.782 247.037C179.566 248.461 179.924 249.422 177.503 251.185C176.71 251.761 175.617 252.203 174.461 252.671C173.66 252.994 172.853 253.325 172.128 253.701C174.691 255.409 178.108 256.055 179.927 258.684C181.964 261.626 183.057 265.952 183.83 269.42C184.074 270.521 184.048 271.851 184.746 272.753C186.177 274.603 189.559 275.575 191.44 277.054C193.51 278.682 194.583 280.059 197.213 280.264C198.116 280.334 199.125 280.104 200.014 280.28C203.538 280.978 206.294 283.704 208.769 286.128C210.806 288.121 210.69 289.756 211.09 292.543C211.827 297.662 213.87 301.851 219.547 302.398C224.897 302.912 227.184 301.896 227.188 307.676C227.191 310.123 226.867 310.106 228.421 311.369C230.656 313.188 233.08 313.253 234.903 315.593C237.057 318.357 239.155 320.673 242.612 321.773C245.068 322.555 249.055 322.271 251.234 323.534C251.364 323.609 251.481 323.683 251.592 323.753C251.695 323.697 251.799 323.639 251.899 323.583L252.372 323.325C253.104 322.929 253.883 322.801 254.572 322.69Z" fill="#D9D9D9"/>
</svg>
