<svg width="419" height="348" viewBox="0 0 419 348" fill="none" xmlns="http://www.w3.org/2000/svg">
<path fill-rule="evenodd" clip-rule="evenodd" d="M317.38 40.0452C315.593 39.8343 314.147 40.3971 312.618 40.9925L312.602 40.9989L312.592 41.0026C311.628 41.3782 310.635 41.7648 309.536 41.9572C308.011 46.4324 303.903 50.4447 299.079 49.2724C297.991 49.0074 297.214 48.5735 296.462 48.1538L296.441 48.1419L296.437 48.1398C295.559 47.6475 294.732 47.1834 293.436 47.0208C291.546 46.7837 289.745 46.3562 288.002 45.9425L287.998 45.9416C286.679 45.6276 285.432 45.3322 284.153 45.1135C282.041 44.753 277.836 45.1484 276.296 46.558C275.566 47.228 275.152 48.1846 274.714 49.1974L274.71 49.2072C274.142 50.5214 273.556 51.8775 272.228 52.8427C270.246 54.2825 267.694 54.657 265.224 55.0175C263.615 55.2525 262.093 55.4758 260.798 55.9758C257.179 57.3668 255.716 60.3277 256.786 64.1005C256.993 64.8285 257.518 65.6659 258.076 66.552L258.077 66.5524C258.867 67.8083 259.686 69.1084 259.728 70.3597C259.795 72.3437 258.567 73.3276 257.269 74.3673L257.227 74.4009C256.736 74.7952 256.228 75.2025 255.746 75.6978L255.667 75.7792C253.822 77.6656 252.08 79.4496 252.599 81.95C252.722 82.5402 253.098 83.0607 253.498 83.6136L253.499 83.6154C254.029 84.3504 254.632 85.1855 254.639 86.2856C254.662 89.8816 250.498 91.4888 246.472 93.0426L246.457 93.0486C244.131 93.9469 241.731 94.8736 240.52 96.1129C239.376 97.2829 237.815 99.8484 239.234 102.03C239.722 102.781 240.636 102.981 241.695 103.212C242.416 103.368 243.162 103.53 243.821 103.898C246.912 105.619 248.286 108.375 247.905 112.092L247.847 112.655L246.128 112.409L246.124 112.408C241.812 111.764 235.3 110.791 232.912 114.604C231.977 116.096 232.081 116.516 232.425 117.904L232.426 117.907C232.509 118.242 232.602 118.621 232.695 119.066C233.391 122.432 232.394 124.281 231.015 126.838L231.014 126.841C230.686 127.448 230.335 128.102 229.976 128.83C228.946 130.93 227.971 132.914 225.303 133.831C224.22 134.203 223.094 134.398 222.003 134.587C220.886 134.78 219.833 134.964 218.816 135.32C218.714 135.355 218.608 135.387 218.502 135.419L218.502 135.42L218.502 135.42C218.422 135.444 218.342 135.468 218.263 135.494C219.535 136.227 221.214 136.396 222.982 136.564C225.431 136.797 227.967 137.038 229.702 138.855C230.202 139.381 230.6 139.974 230.983 140.551L230.989 140.559C231.552 141.403 232.084 142.199 232.912 142.76C233.728 143.316 236.584 144.689 237.124 144.596C237.529 144.496 237.638 144.23 237.829 143.554L237.835 143.532C237.943 143.151 238.064 142.721 238.343 142.367C239.39 141.037 240.964 140.141 243.025 139.709C245.267 139.239 247.7 139.348 250.056 139.455L250.09 139.457L250.09 139.457L250.092 139.457C251.309 139.512 252.461 139.564 253.585 139.539C255.445 139.497 255.502 139.297 255.625 138.86L255.625 138.86L255.627 138.853C255.757 138.388 255.953 137.688 256.941 136.913C258.323 135.826 260.492 135.762 262.593 135.699L262.605 135.699L262.607 135.699C265.258 135.622 267.762 135.549 268.599 133.633C268.855 133.049 268.727 132.175 268.601 131.326C268.469 130.43 268.334 129.505 268.583 128.697C268.836 127.876 269.243 127.409 269.639 126.955L269.658 126.934C269.824 126.742 270.002 126.539 270.181 126.29C270.478 125.874 270.759 125.391 271.055 124.881L271.09 124.82L271.104 124.797C271.623 123.901 272.159 122.977 272.846 122.294C273.766 121.381 274.822 120.914 275.753 120.501L275.77 120.494L275.773 120.492C277.209 119.858 278.248 119.399 278.58 117.693C278.814 116.493 278.68 114.953 278.539 113.324L278.538 113.313C278.236 109.838 277.896 105.898 281.262 104.251C282.057 103.863 284.534 103.226 285.676 104.028C286.335 104.49 286.439 105.146 286.522 105.675L286.523 105.68L286.523 105.68L286.523 105.68C286.574 106.008 286.619 106.292 286.774 106.512C287.24 107.173 287.837 107.538 288.554 107.601C289.684 107.706 291.096 107.033 292.32 105.817L292.638 105.498C294.618 103.519 296.183 101.956 299.642 101.839C300.256 101.819 300.856 101.974 301.435 102.126L301.472 102.135C302.007 102.273 302.51 102.404 302.928 102.353C303.707 102.265 303.777 102.174 303.894 102.023C304.084 101.774 304.298 101.528 304.84 101.253C309.934 98.6645 313.679 99.4646 317.368 103.926C317.61 104.217 317.849 104.524 318.091 104.835C319.224 106.291 320.396 107.796 322.129 108.08C325.039 108.559 327.747 106.871 330.365 105.239L330.37 105.235L330.376 105.232C331.823 104.328 333.191 103.474 334.613 102.944C335.566 102.591 336.636 102.346 337.713 102.195C337.561 102.147 337.408 102.101 337.255 102.055L337.254 102.055L337.253 102.055C336.368 101.789 335.484 101.523 334.769 100.879C333.874 100.074 333.75 99.4458 333.583 98.5925C333.499 98.1661 333.404 97.6835 333.196 97.0944C332.554 95.2778 331.4 94.6801 330.262 94.0907C329.137 93.5081 328.028 92.9336 327.444 91.1981C326.708 90.646 326.794 90.1988 326.931 89.4849C326.942 89.4318 326.952 89.3772 326.963 89.321C326.995 89.1492 327.027 88.9993 327.055 88.8657L327.056 88.8635C327.223 88.0857 327.271 87.8589 326.497 87.0416C326.393 86.9308 326.196 86.7841 325.985 86.6269C325.651 86.3783 325.283 86.1037 325.19 85.9042C324.958 85.3968 325.062 85.2734 325.26 85.0375C325.366 84.9123 325.498 84.7553 325.621 84.4923C326.093 83.4805 325.907 82.813 325.523 81.7407C324.316 81.7314 322.483 81.6616 321.466 80.9033C321.094 80.6264 320.822 80.2334 320.549 79.8392C320.315 79.5016 320.081 79.1632 319.782 78.896C319.597 78.7298 319.401 78.5729 319.208 78.4187C318.254 77.6537 317.385 76.9575 318.275 75.5443C318.905 74.5464 319.859 74.7116 320.796 75.1419L320.935 75.2058L321.007 75.2391C322.356 75.8626 323.268 76.2841 324.832 75.5606C326.153 74.9495 326.069 73.8159 325.969 72.4756L325.96 72.3484L325.958 72.3191C325.91 71.683 325.793 70.1319 325.383 69.6991C325.033 69.3268 324.445 69.2267 323.847 69.1251C323.261 69.0255 322.667 68.9245 322.283 68.564C322.961 68.3338 322.791 67.7183 322.637 67.1623C322.587 66.9826 322.539 66.809 322.522 66.6567C321.72 66.4365 320.869 66.7555 320.011 67.0773C319.193 67.3843 318.367 67.6939 317.57 67.5406C317.566 67.4313 317.565 67.3211 317.563 67.2106C317.558 66.8366 317.553 66.4597 317.44 66.1078C317.688 65.9443 317.985 65.7266 318.311 65.4878L318.313 65.4865L318.314 65.4862L318.315 65.4853C319.375 64.7088 320.739 63.7102 321.692 63.6213C322.22 63.5728 322.6 63.8692 322.975 64.1622C323.139 64.2909 323.303 64.4189 323.478 64.5168C324.537 65.1053 326.165 65.8543 327.307 65.41C329.086 64.7169 330.742 63.2608 330.417 61.2558C330.317 60.6394 329.814 58.653 329.27 58.225C328.861 57.9028 328.201 57.9444 327.595 57.9827C327.404 57.9947 327.219 58.0064 327.049 58.0064C326.881 58.0064 326.634 58.0305 326.349 58.0583C325.537 58.1374 324.425 58.2457 324.027 57.9064C323.777 57.6922 323.77 57.3602 323.763 57.0328V57.0325C323.759 56.8375 323.755 56.6441 323.699 56.4782C323.395 55.5592 322.67 55.1647 321.946 54.77C321.425 54.4864 320.904 54.2027 320.538 53.7243C319.817 52.7823 320.62 50.3353 321.645 49.9143C322.75 49.4595 323.644 50.2461 324.467 50.9699C324.868 51.3232 325.253 51.6616 325.637 51.8333C326.74 51.6105 327.22 52.2254 327.712 52.8562C328.109 53.3648 328.514 53.8838 329.261 53.9825C332.568 50.5226 330.405 48.9366 328.316 47.4043C326.594 46.1419 324.922 44.9159 326.4 42.7085C325.686 42.1967 324.99 41.8083 324.346 41.6292L324.185 41.5849L324.185 41.5848C322.382 41.0875 319.504 40.2935 317.38 40.0452ZM330.944 106.168L330.937 106.173C328.151 107.913 325.271 109.712 321.95 109.164C319.794 108.81 318.431 107.059 317.228 105.512C316.993 105.21 316.761 104.912 316.526 104.628C313.183 100.586 309.943 99.8924 305.335 102.232C304.973 102.416 304.87 102.551 304.763 102.693C304.44 103.116 304.117 103.326 303.054 103.447C302.428 103.516 301.786 103.351 301.165 103.191C300.635 103.053 300.144 102.93 299.681 102.939C296.654 103.042 295.296 104.399 293.416 106.276L293.412 106.28L293.092 106.601C291.622 108.064 289.935 108.824 288.46 108.699C287.425 108.608 286.535 108.073 285.886 107.15C285.583 106.719 285.511 106.261 285.448 105.856C285.374 105.377 285.323 105.119 285.053 104.931C284.488 104.533 282.578 104.835 281.745 105.242C279.052 106.559 279.345 109.95 279.629 113.23C279.778 114.942 279.917 116.56 279.654 117.914C279.213 120.181 277.69 120.854 276.216 121.505L276.214 121.505C275.321 121.899 274.4 122.306 273.618 123.082C273.03 123.666 272.525 124.539 272.039 125.381C271.732 125.913 271.413 126.462 271.074 126.939C270.867 127.23 270.662 127.465 270.467 127.688L270.465 127.69L270.465 127.69C270.103 128.105 269.815 128.436 269.629 129.035C269.453 129.603 269.571 130.404 269.684 131.177L269.685 131.177L269.685 131.182L269.687 131.194L269.687 131.195C269.833 132.191 269.984 133.218 269.604 134.084C268.489 136.628 265.522 136.717 262.65 136.803L262.64 136.803C260.712 136.859 258.721 136.917 257.618 137.785C256.909 138.343 256.792 138.762 256.681 139.167C256.39 140.216 255.883 140.597 253.613 140.646C252.44 140.669 251.205 140.616 250.012 140.562C247.726 140.457 245.36 140.35 243.255 140.792C241.452 141.172 240.089 141.932 239.206 143.056C239.058 143.244 238.975 143.537 238.885 143.852L238.885 143.852L238.882 143.863C238.701 144.514 238.45 145.405 237.382 145.67C237.308 145.689 237.224 145.696 237.131 145.696C235.772 145.696 232.553 143.849 232.3 143.674C231.295 142.99 230.676 142.065 230.079 141.167L230.072 141.158C229.7 140.6 229.348 140.073 228.916 139.62C227.462 138.097 225.238 137.885 222.884 137.662C220.73 137.457 218.516 137.231 216.941 135.901L216.558 136.006C216.56 136.043 216.561 136.084 216.562 136.124C216.563 136.145 216.563 136.166 216.564 136.187C216.565 136.2 216.565 136.213 216.566 136.226C216.566 136.231 216.566 136.237 216.567 136.243L216.567 136.243C216.611 136.934 216.653 137.585 215.995 138.415C215.339 139.241 214.248 139.585 213.192 139.916C212.285 140.199 211.345 140.495 210.824 141.076C210.196 141.774 210.119 142.788 210.038 143.862L210.038 143.863L210.037 143.87C209.912 145.498 209.77 147.344 207.647 148.377C206.797 148.791 205.912 148.764 205.059 148.739L205.025 148.738C204.193 148.708 203.413 148.684 202.774 149.078C201.767 149.696 201.153 150.529 200.946 151.552C200.706 152.743 201.048 154.137 201.864 155.279C203.386 157.407 203.865 158.93 203.49 160.275C204.039 160.414 204.504 160.7 204.923 160.977C205.591 161.417 206.119 161.763 206.93 161.515C207.484 161.345 207.828 160.91 208.226 160.405L208.228 160.403C208.776 159.708 209.397 158.921 210.661 158.784C213.039 158.526 213.284 160.57 213.446 161.929L213.448 161.94L213.453 161.981L213.453 161.981C213.488 162.278 213.522 162.566 213.578 162.824C213.736 163.571 213.975 163.656 214.865 163.973L214.871 163.975C214.914 163.991 214.957 164.006 215.001 164.022C215.125 164.066 215.255 164.113 215.392 164.166C215.866 164.346 216.282 164.598 216.686 164.842L216.687 164.842L216.711 164.857L216.744 164.877C217.048 165.06 217.335 165.233 217.611 165.35C218 165.515 218.965 165.834 219.553 165.231C219.82 164.96 219.846 164.554 219.877 164.083L219.877 164.08L219.877 164.074C219.914 163.496 219.96 162.778 220.586 162.319C221.03 161.994 221.833 162.05 222.921 162.163L223.034 162.175C223.262 162.199 223.463 162.219 223.601 162.219C223.875 162.219 224.184 162.24 224.51 162.266C225.138 162.312 225.848 162.361 226.334 162.226C227.348 161.938 229.564 160.845 230.176 160.138C230.588 159.665 230.904 159.026 231.209 158.409C231.951 156.911 232.795 155.213 235.196 155.497C238.343 155.872 238.436 157.675 238.533 159.583L238.533 159.586C238.554 160.014 238.578 160.473 238.633 160.949C238.789 162.261 239.508 162.526 240.871 162.917L240.872 162.917C241.577 163.12 242.379 163.35 243.095 163.848C244.616 164.906 244.525 166.971 243.988 168.418C243.671 169.265 242.999 170.756 242.039 171.216C240.856 171.783 239.112 171.352 237.71 171.006L237.705 171.005C237.557 170.967 237.415 170.932 237.28 170.9C236.98 171.391 236.635 171.914 236.226 172.358C235.589 173.054 235.075 173.31 234.363 173.663L234.202 173.742C233.954 173.868 233.693 173.84 233.5 173.819C233.442 173.812 233.353 173.803 233.323 173.807C233.072 174.038 233.053 174.228 233.049 174.293C233.009 174.677 233.444 175.208 233.828 175.675L233.837 175.686C234.213 176.145 234.569 176.579 234.684 177.061C234.928 178.071 234.442 178.822 234.012 179.483L234.003 179.496C233.683 179.991 233.407 180.417 233.449 180.897C233.505 181.557 234.84 183.43 235.938 183.718C236.275 183.807 236.491 183.723 236.694 183.425L237.112 182.816L237.573 183.393C237.793 183.67 238.005 184.005 238.223 184.348L238.223 184.348L238.226 184.353L238.234 184.365L238.234 184.365L238.234 184.365C238.665 185.051 239.151 185.824 239.687 185.94C239.934 185.993 240.22 185.912 240.557 185.691C241.141 185.307 241.415 184.574 241.706 183.797C242.201 182.474 242.881 180.662 245.681 181.685C246.605 182.025 247.574 183.248 247.486 184.381C247.381 185.721 246.174 186.214 245.204 186.61C244.739 186.798 244.3 186.979 244.013 187.217C242.778 188.24 243.455 189.536 244.627 191.399C244.941 191.896 245.239 192.369 245.456 192.825L245.609 193.148L245.61 193.149L245.61 193.149L245.61 193.149C246.445 194.898 247.307 196.705 247.7 198.681L247.751 198.94L247.752 198.945C248.254 201.486 248.586 203.166 251.347 203.922C251.729 204.026 252.174 204.015 252.645 204.004L252.68 204.003L252.693 204.003C253.298 203.987 253.926 203.97 254.522 204.189C256.046 204.757 256.46 206.157 256.825 207.392L256.969 207.885L256.971 207.893C257.13 208.458 257.211 208.743 257.646 209.125C258.376 209.769 259.525 209.983 260.639 210.19C261.858 210.416 263.121 210.651 263.961 211.465C264.766 212.244 264.966 214.412 264.768 215.291C264.575 216.145 263.994 216.638 263.48 217.07L263.461 217.086L263.461 217.086C263.235 217.278 263.021 217.46 262.852 217.664C262.444 218.147 262.11 218.764 261.756 219.417L261.751 219.426C261.323 220.216 260.882 221.029 260.27 221.648C260.337 222.416 260.053 222.909 259.784 223.195C259.749 223.232 259.7 223.255 259.663 223.288C260.146 223.788 260.472 224.567 260.621 225.637C260.791 226.844 260.449 227.491 260.116 228.114C259.925 228.472 259.746 228.812 259.635 229.3C258.988 232.145 259.744 235.69 261.47 237.921C261.93 238.515 262.394 239.051 262.843 239.57L262.844 239.57L262.893 239.628C264.112 241.033 265.264 242.361 266.017 244.382C266.528 245.749 266.607 247.37 266.677 248.801V248.802L266.678 248.825L266.687 249.015C266.718 249.636 266.705 250.276 266.691 250.904L266.691 250.905L266.689 250.983L266.68 251.446C266.675 251.725 266.617 252.114 266.554 252.532C266.466 253.105 266.347 253.891 266.441 254.223C266.475 254.349 266.499 254.456 266.517 254.551C266.641 254.54 266.789 254.521 266.906 254.507C267.752 254.402 268.906 253.73 269.832 253.191L270.008 253.089L270.009 253.088L270.009 253.088C270.253 252.946 270.483 252.812 270.695 252.7C272.956 251.49 276.2 251.714 278.415 252.477C278.594 252.537 278.812 252.658 279.04 252.788C279.245 252.904 279.645 253.095 279.752 253.111C280.008 253.093 280.156 252.987 280.378 252.829L280.389 252.821L280.396 252.816C280.723 252.584 281.127 252.297 281.859 252.288C283.534 252.307 285.393 252.993 286.632 254.095C286.977 254.157 287.326 254.248 287.675 254.339C288.589 254.577 289.506 254.817 290.363 254.53C291.698 254.084 291.489 252.568 291.285 251.092C291.193 250.429 291.103 249.774 291.154 249.227C291.192 248.817 291.258 248.392 291.324 247.966C291.625 246.026 291.926 244.088 289.572 243.628C287.516 243.228 286.195 242.807 286.421 240.354C286.486 239.652 286.817 239.107 287.138 238.578C287.506 237.973 287.86 237.39 287.788 236.618C287.653 235.173 286.514 234.704 285.365 234.231C284.513 233.881 283.656 233.528 283.199 232.773C282.573 231.737 283.573 230.98 284.58 230.218C284.874 229.995 285.17 229.771 285.425 229.54C286.248 228.794 287.112 228.566 287.993 228.333C288.653 228.158 289.323 227.981 289.993 227.582C291.344 226.777 291.471 225.892 291.66 224.579L291.66 224.578C291.694 224.343 291.73 224.093 291.775 223.827L291.798 223.694C291.914 223.02 291.945 222.84 292.05 222.729C292.088 222.688 292.136 222.657 292.202 222.614C292.307 222.546 292.456 222.449 292.682 222.239C293.347 221.622 294.203 220.897 295.013 220.452C295.295 220.298 295.645 220.21 296.007 220.12C296.487 219.999 296.989 219.874 297.383 219.578C298.617 218.655 298.562 216.665 298.513 214.896C298.494 214.218 298.476 213.571 298.532 213.03C299.611 212.682 300.038 213.507 300.468 214.337C300.694 214.772 300.92 215.209 301.242 215.48C302.023 216.138 304.396 217.545 305.547 216.97C306.352 216.569 306.391 215.835 306.43 215.1C306.444 214.834 306.458 214.569 306.508 214.319C307.094 211.375 307.804 210.845 309.413 209.643C309.736 209.401 310.096 209.132 310.499 208.811C312.318 207.36 313.807 204.357 314.493 202.259C315.383 202.147 315.761 202.558 316.16 202.99C316.434 203.288 316.719 203.596 317.186 203.752C317.978 204.015 318.593 203.606 319.192 203.209C319.468 203.026 319.74 202.845 320.024 202.733C320.498 202.545 321.08 202.459 321.661 202.373C323.257 202.137 324.838 201.903 324.094 199.561C323.935 199.056 323.795 198.717 323.692 198.469L323.692 198.467L323.691 198.467C323.574 198.183 323.506 198.017 323.51 197.852C323.516 197.617 323.67 197.385 324.046 196.823L324.05 196.817C324.134 196.691 324.229 196.548 324.336 196.386C325.006 195.364 325.285 194.462 325.009 193.045C324.813 192.045 320.054 183.449 319.773 183.686C319.976 183.514 320.173 183.351 320.364 183.193L320.367 183.191C322.188 181.682 323.424 180.657 323.529 177.938C323.613 175.805 323.278 173.833 322.894 171.777C322.824 171.404 322.705 171.028 322.586 170.651L322.586 170.65C322.425 170.141 322.264 169.629 322.22 169.118C322.098 167.68 322.278 167.518 322.862 166.995C323.034 166.84 323.242 166.654 323.487 166.394C323.729 166.14 324.187 165.828 324.696 165.482C326.028 164.575 327.706 163.434 326.73 162.473C327.028 159.745 328.379 158.179 330.544 156.477C330.893 156.202 331.231 155.965 331.551 155.741C332.736 154.91 333.661 154.262 333.912 152.532C337.955 152.55 338.288 150.564 338.436 146.996C341.17 146.947 342.393 147.884 344.568 149.573C346.637 151.178 347.177 151.053 348.642 150.714C349.111 150.606 349.674 150.476 350.413 150.373C350.966 150.297 352.315 150.75 353.895 151.281C357.549 152.508 362.443 154.153 361.615 150.636C362.151 150.425 362.713 150.238 363.273 150.053C365.834 149.202 368.336 148.372 367.981 145.312C365.974 144.444 363.834 143.432 362.445 141.688C361.997 141.125 361.711 140.381 361.425 139.637C361.109 138.815 360.794 137.993 360.259 137.417C359.338 136.427 357.834 136.201 356.304 135.971C355.133 135.795 353.946 135.617 352.995 135.091C352.301 134.708 351.919 134.162 351.533 133.611C351.295 133.27 351.055 132.927 350.739 132.619C350.352 132.241 349.873 131.953 349.39 131.663C348.747 131.276 348.097 130.885 347.645 130.27C347.089 129.512 346.934 128.584 346.782 127.669C346.622 126.707 346.464 125.759 345.842 125.039C344.98 124.04 343.668 124.079 342.301 124.119C340.993 124.158 339.635 124.198 338.574 123.331C337.979 122.846 337.51 122.106 337.042 121.368C336.667 120.777 336.292 120.187 335.855 119.728C335.473 119.33 334.986 118.977 334.493 118.62C333.48 117.886 332.444 117.137 332.266 115.939C333.481 115.328 333.627 114.217 333.771 113.117C333.913 112.035 334.054 110.964 335.208 110.39C335.85 110.07 336.72 110.055 337.613 110.039C338.988 110.015 340.417 109.989 341.146 108.85C342.007 107.503 341.074 104.889 340.221 103.763C340.039 103.523 339.839 103.323 339.627 103.151C338.088 103.181 336.411 103.472 335.001 103.998C333.672 104.467 332.351 105.291 330.951 106.164L330.944 106.168ZM277.189 305.294L277.189 305.294L277.189 305.295C276.661 305.905 276.075 306.584 275.631 306.609C274.575 306.667 273.171 302.302 272.877 301.387L272.87 301.364C272.184 299.182 272.33 297.621 273.232 295.558C274.54 292.569 274.651 292.246 272.695 289.097C272.177 288.264 271.788 287.481 271.391 286.683L271.391 286.683L271.391 286.683C271.092 286.084 270.791 285.477 270.427 284.836C268.438 286.857 266.166 288.38 263.81 289.959L263.804 289.962C263.49 290.173 263.173 290.385 262.856 290.599C261.185 291.727 259.09 292.332 257.029 292.926C254.352 293.699 251.732 294.455 250.17 296.321C247.214 299.854 244.062 303.55 239.31 304.669C239.036 304.734 238.736 304.756 238.433 304.779C237.97 304.814 237.502 304.849 237.112 305.034C236.665 305.249 236.317 305.687 235.975 306.116C235.624 306.559 235.279 306.993 234.84 307.163C231.609 308.412 227.699 303.411 227.506 300.41C227.367 298.24 228.402 296.353 229.376 294.575C230.782 292.009 232.063 289.671 229.513 287.043C229.185 286.703 228.77 286.151 228.329 285.565C227.598 284.593 226.795 283.526 226.194 283.17C225.354 282.672 224.459 282.82 223.548 282.97C222.774 283.098 221.987 283.227 221.212 282.963C220.277 282.644 219.737 281.868 219.256 281.028C219.484 280.786 219.726 280.542 219.993 280.281C221.864 278.464 222.838 276.107 223.781 273.828L223.787 273.813L223.82 273.733L223.82 273.733L223.82 273.732C224.114 273.024 224.406 272.319 224.724 271.631C224.843 271.377 224.952 271.131 225.059 270.891L225.059 270.891L225.059 270.891L225.059 270.891C225.645 269.575 226.108 268.535 227.315 267.674C228.16 267.07 229.151 266.516 230.183 266.072C230.327 266.009 230.53 265.953 230.755 265.891L230.756 265.891L230.825 265.872L230.839 265.868C231.531 265.676 232.312 265.459 232.688 264.983C233.34 264.165 233.258 262.722 233.179 261.327L233.178 261.315C233.132 260.477 233.084 259.612 233.219 259.073C233.754 256.942 235.452 255.898 237.25 254.793L237.259 254.788C238.551 253.992 239.887 253.169 240.801 251.904C241.748 250.599 242.011 250.469 243.946 250.374C244.944 250.325 246.102 250.211 247.219 249.455C247.889 249.002 248.256 248.525 248.342 247.992C248.465 247.235 247.986 246.609 247.561 246.055L247.561 246.054L247.556 246.048C247.091 245.44 246.819 245.043 246.942 244.626C247.042 244.289 247.435 243.78 247.782 243.331L247.812 243.291L247.812 243.291C248.096 242.922 248.389 242.541 248.577 242.186C248.821 241.727 249.022 241.265 249.222 240.806L249.235 240.775L249.236 240.772L249.237 240.772L249.237 240.772C249.536 240.08 249.82 239.425 250.247 238.8C251.487 236.986 251.654 236.06 251.143 233.848L250.978 233.143L250.976 233.137C250.5 231.125 250.05 229.224 250.424 227.268C250.463 227.059 250.512 226.867 250.561 226.674L250.561 226.674L250.561 226.672C250.668 226.258 250.775 225.83 250.794 225.3C250.798 225.174 250.782 224.986 250.761 224.776C250.74 224.583 250.701 224.181 250.71 224.111C250.873 223.865 251.675 223.644 253.052 223.744C253.25 223.76 253.531 223.795 253.866 223.839L253.887 223.842C255.215 224.012 257.197 224.265 258.6 223.855C258.608 223.86 258.619 223.861 258.63 223.862H258.63C258.642 223.864 258.655 223.865 258.665 223.872C259.079 224.125 259.384 224.804 259.521 225.788C259.639 226.647 259.428 227.047 259.132 227.603C258.928 227.989 258.695 228.428 258.551 229.059C257.837 232.199 258.674 236.118 260.588 238.588C261.079 239.221 261.572 239.791 262.052 240.342C263.254 241.728 264.291 242.926 264.978 244.764C265.431 245.98 265.506 247.518 265.571 248.876L265.58 249.067C265.61 249.685 265.596 250.327 265.582 250.955L265.573 251.423C265.569 251.654 265.52 251.972 265.466 252.317L265.459 252.365L265.459 252.369C265.34 253.149 265.217 253.957 265.375 254.516C265.413 254.651 265.431 254.761 265.447 254.849C265.61 255.756 266.173 255.691 267.022 255.584C268.092 255.451 269.302 254.747 270.367 254.126C270.662 253.951 270.941 253.788 271.195 253.653C273.158 252.602 276.121 252.837 278.045 253.498C278.155 253.536 278.285 253.611 278.426 253.692L278.426 253.692L278.485 253.726L278.517 253.744C278.92 253.972 279.371 254.227 279.82 254.188C280.383 254.147 280.731 253.898 281.011 253.698L281.016 253.694C281.278 253.508 281.469 253.372 281.86 253.367C283.03 253.365 284.4 253.816 285.421 254.526C285.379 255.431 285.342 256.382 285.504 257.261C285.568 257.606 285.727 258.01 285.895 258.437L285.895 258.438C286.246 259.332 286.639 260.332 286.293 261.122C285.348 263.278 280.797 263.468 278.317 263.571L278.159 263.578C278.024 263.583 277.897 263.589 277.777 263.595C277.633 267.17 277.722 269.568 280.771 271.703C281.203 272.006 281.611 272.257 281.99 272.49C283.368 273.338 284.363 273.949 284.727 275.943C284.936 277.08 284.491 278.241 284.07 279.34C283.659 280.413 283.271 281.426 283.537 282.298C284.272 284.715 287.409 282.647 288.554 281.647C288.798 281.975 289.117 282.309 289.447 282.655C290.423 283.679 291.499 284.807 291.047 286.203C290.712 287.237 289.772 287.573 288.856 287.899C288.241 288.119 287.638 288.334 287.235 288.755C286.335 289.696 286.405 291.988 286.458 293.716V293.716V293.717C286.472 294.158 286.484 294.562 286.479 294.898C286.477 294.996 286.476 295.093 286.475 295.191L286.473 295.365L286.473 295.373C286.442 297.872 286.415 300.183 284.141 301.708C283.282 302.285 282.274 302.621 281.256 302.96C280.123 303.337 278.977 303.719 278.005 304.443C277.778 304.613 277.494 304.942 277.189 305.294ZM222.772 273.397L222.772 273.397L222.78 273.378L222.781 273.376C223.09 272.627 223.399 271.879 223.736 271.154C223.85 270.905 223.959 270.666 224.064 270.431C224.692 269.021 225.236 267.802 226.683 266.77C227.59 266.123 228.65 265.53 229.753 265.055C229.946 264.972 230.227 264.89 230.537 264.807C230.935 264.697 231.677 264.493 231.835 264.293C232.225 263.799 232.153 262.513 232.088 261.378L232.088 261.369V261.369C232.034 260.407 231.984 259.499 232.158 258.796C232.8 256.235 234.77 255.023 236.675 253.854C237.936 253.079 239.124 252.346 239.915 251.255C241.122 249.585 241.79 249.376 243.893 249.274C244.977 249.22 245.809 249.078 246.607 248.541C247.002 248.273 247.228 248.02 247.263 247.808C247.312 247.515 247.009 247.12 246.688 246.703L246.684 246.698C246.201 246.066 245.603 245.284 245.895 244.305C246.053 243.776 246.488 243.211 246.912 242.663L246.919 242.654L246.922 242.649L246.922 242.649C247.189 242.304 247.464 241.948 247.614 241.663C247.851 241.219 248.044 240.775 248.235 240.33C248.542 239.621 248.861 238.886 249.347 238.174C250.415 236.613 250.524 236.002 250.08 234.083L249.915 233.383L249.91 233.365C249.43 231.333 248.934 229.234 249.352 227.051C249.396 226.821 249.449 226.605 249.503 226.393C249.598 226.019 249.687 225.665 249.703 225.251C249.705 225.179 249.695 225.079 249.684 224.967L249.684 224.966C249.681 224.937 249.678 224.907 249.675 224.876C249.614 224.276 249.589 223.825 249.796 223.506C250.252 222.806 251.371 222.518 253.131 222.646C253.345 222.662 253.648 222.699 254.006 222.746C254.818 222.851 256.155 223.018 257.267 222.958L257.22 222.827C257.72 222.651 258.174 222.616 258.588 222.697C258.739 222.627 258.87 222.544 258.967 222.439C259.09 222.309 259.239 222.074 259.135 221.539L259.074 221.229L259.311 221.022C259.895 220.516 260.322 219.726 260.775 218.89L260.775 218.89L260.777 218.887L260.79 218.863C261.151 218.199 261.522 217.515 261.998 216.952C262.225 216.682 262.482 216.463 262.73 216.251L262.756 216.229L262.769 216.217C263.201 215.85 263.574 215.533 263.684 215.042C263.833 214.382 263.619 212.663 263.182 212.242C262.578 211.658 261.53 211.463 260.421 211.256L260.419 211.256C259.16 211.023 257.86 210.781 256.902 209.937C256.227 209.34 256.074 208.802 255.898 208.178L255.897 208.174L255.757 207.695C255.436 206.608 255.132 205.583 254.12 205.206C253.722 205.059 253.22 205.071 252.692 205.087C252.147 205.103 251.589 205.117 251.038 204.968C247.621 204.033 247.175 201.768 246.658 199.142L246.607 198.884C246.239 197.042 245.407 195.295 244.602 193.608L244.448 193.285C244.266 192.9 243.997 192.471 243.711 192.018L243.683 191.973L243.68 191.968C242.645 190.324 241.231 188.078 243.297 186.368C243.709 186.027 244.238 185.81 244.754 185.598L244.772 185.591C245.739 185.198 246.33 184.912 246.379 184.288C246.426 183.704 245.793 182.888 245.288 182.704C243.509 182.053 243.241 182.762 242.711 184.174C242.388 185.039 242.02 186.019 241.139 186.598C240.55 186.984 239.98 187.124 239.436 187.003C238.45 186.789 237.829 185.802 237.282 184.93C237.205 184.807 237.129 184.686 237.052 184.567C236.652 184.835 236.168 184.907 235.642 184.767C234.072 184.353 232.442 182.106 232.346 180.983C232.272 180.127 232.7 179.467 233.079 178.884L233.081 178.88C233.491 178.248 233.735 177.836 233.609 177.308C233.552 177.067 233.263 176.714 232.98 176.369L232.97 176.357L232.968 176.354C232.449 175.722 231.863 175.006 231.949 174.173C231.995 173.703 232.253 173.279 232.709 172.907C233.009 172.664 233.359 172.699 233.594 172.722L233.605 172.723C233.62 172.725 233.637 172.727 233.654 172.728C233.7 172.733 233.748 172.738 233.765 172.735L233.865 172.675C234.538 172.342 234.907 172.158 235.41 171.612C235.842 171.139 236.215 170.53 236.531 169.995L236.729 169.658L237.112 169.737C237.314 169.778 237.54 169.834 237.782 169.893C237.839 169.906 237.896 169.92 237.954 169.935L237.973 169.939C239.141 170.227 240.729 170.619 241.555 170.221C241.978 170.018 242.539 169.137 242.953 168.027C243.388 166.862 243.404 165.392 242.46 164.734C241.892 164.338 241.215 164.143 240.559 163.957C239.259 163.585 237.789 163.161 237.538 161.068C237.48 160.58 237.456 160.116 237.433 159.676L237.431 159.631L237.431 159.63C237.338 157.77 237.291 156.835 235.056 156.57C233.505 156.386 232.949 157.328 232.179 158.882C231.844 159.561 231.495 160.261 230.993 160.842C230.146 161.817 227.683 162.964 226.622 163.264C225.962 163.452 225.161 163.395 224.448 163.344L224.424 163.343C224.237 163.329 224.071 163.322 223.9 163.315H223.9C223.599 163.302 223.281 163.289 222.801 163.238C222.354 163.192 221.431 163.096 221.205 163.201C221.019 163.34 220.989 163.647 220.958 164.138C220.924 164.71 220.877 165.425 220.326 165.985C219.591 166.734 218.414 166.869 217.176 166.343C216.818 166.19 216.472 165.98 216.137 165.778C215.767 165.555 215.385 165.325 214.995 165.173C214.816 165.106 214.65 165.045 214.499 164.992L214.499 164.992C213.543 164.652 212.79 164.385 212.504 163.038C212.441 162.74 212.399 162.405 212.357 162.059C212.162 160.431 211.943 159.731 210.771 159.858C209.963 159.947 209.572 160.44 209.078 161.064L209.075 161.068C208.628 161.636 208.121 162.277 207.242 162.547C205.937 162.945 205.039 162.354 204.316 161.877C203.872 161.587 203.472 161.342 203.018 161.287C202.441 162.203 201.457 163.085 200.122 164.089C198.918 164.997 198.731 165.322 198.117 166.404L198.008 166.597C197.913 166.762 197.895 166.916 197.871 167.126L197.868 167.143C197.829 167.49 197.778 167.923 197.396 168.423C196.915 169.053 195.719 169.628 194.431 170.211L194.061 170.381C192.614 171.056 191.456 170.8 190.435 170.574C189.676 170.407 188.96 170.249 188.106 170.425C187.362 170.579 186.027 171.551 185.906 172.156C185.848 172.437 185.827 172.596 185.818 172.684C185.825 172.686 185.829 172.691 185.836 172.693L185.849 172.699C186.039 172.795 186.325 172.938 186.681 173.265C187.113 173.663 187.55 173.896 187.971 174.119L187.973 174.12C188.696 174.503 189.442 174.899 189.928 176.015C190.621 177.613 190.1 180.039 189.595 182.386C189.293 183.786 189.009 185.107 189.018 186.102C189.041 189.389 188.655 189.815 185.948 191.278L185.466 191.536C184.343 192.138 183.664 192.504 183.552 192.831C183.438 193.166 183.747 193.897 184.259 195.104L184.366 195.355C185.027 196.916 184.843 198.521 183.887 199.544C182.908 200.591 181.34 200.844 179.589 200.237C177.99 199.682 177.196 198.799 176.559 198.09L176.558 198.088C175.648 197.076 175.146 196.518 172.513 197.667C171.773 197.991 171.227 198.335 170.699 198.67L170.696 198.671C169.792 199.243 168.937 199.784 167.4 200.023C166.545 200.156 165.726 200.177 165.002 200.193L164.999 200.193C163.075 200.24 161.685 200.273 160.609 202.21L160.318 202.733L159.822 202.396C159.336 202.062 158.826 201.583 158.284 201.073L158.283 201.073L158.278 201.068C156.482 199.379 155.105 198.256 153.74 199.151C153.059 199.6 152.94 200.268 152.803 201.042L152.803 201.043C152.661 201.85 152.5 202.764 151.626 203.387C150.571 204.142 149.111 204.122 147.569 204.101L147.562 204.101L147.54 204.101C146.037 204.082 144.482 204.063 143.445 204.824C142.611 205.438 142.029 206.816 141.514 208.033L141.508 208.048L141.49 208.091L141.489 208.091C141.238 208.685 141.001 209.244 140.736 209.73L140.601 209.979L140.319 210.011C139.391 210.114 136.295 211.195 135.681 211.879C135.111 212.512 135.146 213.237 135.19 214.154C135.228 214.924 135.269 215.796 134.909 216.694C133.869 219.292 131.855 219.548 129.708 219.597C126.875 219.659 126.466 220.166 124.768 222.841C122.574 226.293 119.516 228.119 115.417 228.421L115.11 228.442L115.095 228.443C114.093 228.513 112.431 228.629 112.012 229.238C111.94 229.342 111.858 229.528 111.977 229.917C112.249 230.805 113.449 231.052 114.608 231.289C115.168 231.403 115.696 231.512 116.127 231.696L116.343 231.789L116.424 232.01C116.973 233.513 116.704 234.494 116.464 235.362L116.462 235.37C116.307 235.937 116.16 236.475 116.248 237.16C116.345 237.918 116.759 238.386 117.243 238.928L117.248 238.933C117.816 239.573 118.46 240.299 118.646 241.577C118.718 242.072 118.602 242.489 118.499 242.854L118.496 242.866C118.4 243.214 118.323 243.49 118.402 243.805C118.585 244.566 118.983 244.954 119.487 245.447L119.488 245.447L119.521 245.48C119.795 245.749 120.078 246.028 120.348 246.394C121.674 248.187 123.386 250.858 122.942 253.346C122.78 254.255 122.517 254.874 122.305 255.374L122.293 255.403C121.893 256.335 121.744 256.684 122.712 258.082C122.86 258.298 123.014 258.51 123.167 258.719C124.344 260.338 125.679 262.176 123.474 264.406C122.251 265.646 120.304 265.909 118.59 266.139C117.843 266.239 117.138 266.335 116.562 266.5C114.624 267.051 113.752 268.14 113.101 269.549C113.213 269.619 113.326 269.689 113.439 269.761L113.44 269.761C114.116 270.184 114.819 270.625 115.622 270.952C117.237 271.61 118.71 271.049 120.202 270.482C120.418 270.399 120.635 270.317 120.853 270.238C122.026 269.812 122.903 269.231 123.721 268.69C124.984 267.854 126.104 267.113 127.945 267.186C131.036 267.309 133.993 268.112 136.707 269.568C137.162 268.881 137.136 268.061 137.108 267.21L137.108 267.21C137.103 267.053 137.098 266.895 137.095 266.737C137.668 266.563 138.132 266.279 138.578 266.005C139.285 265.572 139.947 265.165 140.926 265.269L141.001 265.349C142.73 267.2 144.62 269.222 144.792 271.898C144.929 274.014 143.952 275.274 142.926 276.595L142.926 276.595C142.348 277.341 141.754 278.107 141.336 279.058C140.173 281.702 142.629 286.012 144.769 287.706C145.461 287.126 146.26 286.825 147.058 286.526C147.902 286.209 148.743 285.893 149.456 285.247C150.088 284.674 150.444 284.205 150.756 283.793C151.311 283.063 151.729 282.512 153.305 281.877C159.229 279.493 162.302 279.26 165.696 284.896C166.294 284.774 166.568 284.496 166.868 284.192C167.008 284.05 167.154 283.903 167.34 283.763C168.794 282.67 169.859 281.884 171.599 280.967C171.837 280.842 172.053 280.725 172.255 280.616C173.325 280.036 173.978 279.681 175.351 279.472C175.744 279.412 176.254 279.425 176.793 279.44C177.898 279.47 179.127 279.503 179.735 278.911C180.74 277.933 180.153 276.285 179.597 274.724C179.244 273.735 178.904 272.781 178.991 272.057L178.996 272.013C179.081 271.301 179.113 271.035 179.256 270.858C179.34 270.753 179.465 270.679 179.663 270.562C179.788 270.487 179.944 270.395 180.138 270.266C181.208 269.556 186.487 269.542 187.732 270.296C188.668 270.862 189.184 271.937 189.712 273.04C190.282 274.23 190.868 275.452 192.014 276.097C193.638 277.01 195.387 276.472 197.122 275.938C198.091 275.64 199.056 275.343 199.992 275.301C203.165 275.16 202.278 278.01 201.448 280.675C201.02 282.051 200.607 283.377 200.776 284.217C204.709 284.416 207.128 282.974 210.145 281.175L210.145 281.175C210.649 280.875 211.169 280.565 211.715 280.251C212.045 280.061 212.398 279.824 212.765 279.577C214.066 278.703 215.554 277.702 216.909 278.239C217.732 278.567 218.237 279.263 218.684 280.025C218.769 279.939 218.855 279.853 218.942 279.767C219.037 279.672 219.134 279.577 219.235 279.479C220.942 277.823 221.83 275.674 222.772 273.397ZM118.443 265.056C117.657 265.16 116.913 265.26 116.262 265.446C113.95 266.105 112.891 267.437 112.152 268.998C110.861 268.335 109.495 268.051 107.539 269.103C107.41 268.755 107.275 268.279 107.121 267.739C106.42 265.277 105.342 261.491 102.804 262.513C101.548 263.019 100.978 264.162 100.435 265.251C99.5954 266.933 98.821 268.485 95.6814 267.354C92.7121 266.284 93.4312 263.628 94.0623 261.298C94.1505 260.972 94.2369 260.653 94.3114 260.345C95.1458 256.896 94.4864 256.8 92.7289 256.544C92.179 256.464 91.5217 256.368 90.7689 256.149C90.5399 254.207 90.9523 252.375 91.3651 250.542C91.6271 249.378 91.8893 248.214 91.9877 247.02C92.1529 244.999 91.8877 242.024 91.3318 240.058C90.8778 238.45 89.6344 237.642 88.3653 236.817C87.1899 236.054 85.9925 235.276 85.3796 233.834C84.4019 231.535 86.034 229.855 87.657 228.184C88.505 227.311 89.3505 226.441 89.8199 225.486C90.7641 223.566 90.0001 221.915 89.2129 220.215C88.8929 219.523 88.5691 218.824 88.3546 218.094C88.0951 217.214 88.0754 216.364 88.0565 215.543C88.0253 214.194 87.996 212.925 86.9055 211.73C86.7675 211.579 86.6325 211.43 86.5001 211.283C84.6662 209.251 83.3243 207.764 81.2743 210.114C81.0354 210.387 80.9791 210.604 80.9252 210.812C80.8578 211.072 80.7943 211.317 80.3835 211.637C79.5991 212.251 78.5964 212.519 77.5823 212.79C76.4433 213.095 75.2898 213.404 74.415 214.21C73.9808 214.609 73.71 214.947 73.5065 215.201C72.9731 215.866 72.9025 215.954 71.5656 215.063C70.1933 214.149 69.1792 211.426 69.6142 209.811C70.2058 207.619 72.06 207.533 73.932 207.446C75.8134 207.359 77.7128 207.271 78.3668 205.043L78.3263 204.999C77.2334 203.809 75.9801 202.444 74.2638 202.382C73.2031 202.345 71.2866 202.908 70.3771 203.364C70.1101 203.498 69.8919 203.653 69.6863 203.799C69.2274 204.125 68.8317 204.407 68.0976 204.306C66.6334 204.104 65.4333 202.275 64.6054 201.013C64.5272 200.894 64.4522 200.78 64.3807 200.673C64.266 200.501 64.1466 200.332 64.0286 200.164C63.2382 199.043 62.5149 198.016 63.7131 197.097C65.0924 196.039 65.2692 195.986 66.7323 196.404L66.8157 196.428C67.9717 196.759 68.359 196.87 68.8884 195.811C69.4955 194.604 69.2746 193.513 67.8697 193.334C67.4378 193.279 66.9981 193.37 66.5597 193.461C66.0656 193.563 65.573 193.665 65.0948 193.557C64.3068 193.38 64.0692 192.859 63.7631 192.187C63.6265 191.887 63.4762 191.558 63.2573 191.215C62.7425 190.41 62.1533 189.656 61.5663 188.905C60.4266 187.447 59.2951 185.999 58.7332 184.209C58.1077 182.215 59.4209 181.035 60.7663 179.826C61.7969 178.899 62.8464 177.956 63.0572 176.617C63.2888 175.149 62.3322 174.359 61.3584 173.555C60.9528 173.221 60.5442 172.883 60.2172 172.493C59.7801 171.973 59.6809 171.289 59.5829 170.615C59.4901 169.976 59.3985 169.345 59.0216 168.867C58.543 168.262 57.831 168.228 57.0932 168.193C56.7018 168.175 56.3031 168.156 55.9281 168.051C54.8186 167.739 53.8929 166.725 53.3672 165.681C52.6202 164.197 53.0999 162.356 53.5794 160.516C53.954 159.079 54.3286 157.641 54.1185 156.374C53.9694 155.47 53.2481 154.787 52.5367 154.113C51.6948 153.315 50.8667 152.53 51.018 151.408C51.2054 150.014 52.6761 149.513 54.0667 149.039C55.9382 148.401 57.6649 147.812 55.9234 145.163C55.6132 144.692 55.236 144.263 54.8601 143.836C54.3032 143.203 53.7489 142.574 53.4184 141.811C52.5554 139.82 52.7625 139.064 54.7279 138.285C55.7904 137.863 56.8548 137.451 57.9211 137.038C58.0429 136.991 58.1648 136.944 58.2867 136.897C58.282 136.899 59.4264 136.548 59.538 136.392C59.7404 136.11 59.7031 135.485 59.6427 135.171C59.527 134.576 59.1822 134.067 58.8319 133.55C58.3513 132.84 57.8601 132.115 57.9355 131.133C58.0301 129.909 59.0978 129.154 60.196 128.377C61.1753 127.684 62.1789 126.974 62.5386 125.899C62.7806 125.175 62.684 124.152 62.5865 123.118C62.4581 121.757 62.3281 120.379 62.9665 119.642C63.7147 118.781 65.6892 118.569 67.3198 118.395C68.0668 118.315 68.7416 118.242 69.1932 118.119C69.3223 118.083 69.4649 118.047 69.6169 118.008C70.9004 117.679 72.8526 117.178 72.9566 115.719C72.9885 115.281 72.7498 114.882 72.5123 114.485C72.2476 114.043 71.9843 113.603 72.0983 113.113C72.4612 111.55 75.6292 111.413 76.6433 112.306C76.7968 112.441 76.9131 112.595 77.0131 112.76C77.1341 113.795 77.3341 114.574 77.5132 115.214C77.562 115.76 77.6481 116.3 77.869 116.779C77.9318 117.521 77.7388 118.265 76.9643 119.526C76.7572 119.866 76.4673 120.23 76.1601 120.616L76.1292 120.654L76.1256 120.659C75.1005 121.942 73.8249 123.539 74.4731 125.574C74.793 126.582 75.6142 127.207 76.4095 127.812L76.4176 127.818C77.1992 128.411 77.9365 128.972 78.2714 129.874C78.6087 130.786 78.7553 131.686 78.8971 132.559L78.8974 132.56C79.1159 133.899 79.3417 135.283 80.2439 136.727C81.2278 138.299 82.514 139.476 83.7584 140.613L83.7671 140.621C84.8855 141.645 86.0426 142.703 86.9497 144.04C87.1043 144.266 87.2763 144.543 87.4674 144.851L87.5242 144.942L87.5343 144.958C88.6406 146.736 90.1515 149.165 92.0738 149.466C93.5043 149.685 94.5602 148.917 95.4953 148.233C96.0814 147.803 96.6351 147.398 97.2584 147.215C98.6005 146.819 101.301 147.026 102.643 147.352C104.429 147.783 105.834 148.964 107.32 150.214L107.332 150.224C108.842 151.497 110.405 152.811 112.412 153.285C113.567 153.557 115.173 153.377 116.474 153.231L116.511 153.227C116.804 153.192 117.08 153.162 117.327 153.139C117.77 153.097 118.224 152.848 118.665 152.605L118.676 152.599C118.918 152.464 119.325 152.241 119.458 152.241C120.39 152.301 121.562 152.703 122.701 153.093L122.746 153.109C123.728 153.448 124.742 153.795 125.673 153.96C126.015 154.02 126.371 154.1 126.734 154.182L126.822 154.202C127.705 154.402 128.652 154.616 129.548 154.616C130.415 154.616 131.236 154.416 131.918 153.813C132.69 153.13 132.953 152.295 133.183 151.557L133.184 151.555C133.484 150.6 133.743 149.775 134.993 149.12C135.971 148.606 136.852 148.594 137.874 148.58L137.877 148.58L137.882 148.58C138.383 148.573 138.898 148.566 139.466 148.501C141.742 148.24 142.791 147.527 144.004 146.702L144.006 146.701L144.017 146.693C144.521 146.351 145.041 145.998 145.713 145.624C146.692 145.079 147.627 145.024 148.709 144.961L148.737 144.959C149.116 144.936 149.505 144.913 149.905 144.868C151.482 144.689 152.407 144.035 153.542 143.133C154.992 141.979 154.905 141.058 154.796 139.89L154.794 139.863C154.755 139.428 154.71 138.933 154.731 138.332C154.81 136.143 155.529 135.324 157.383 135.306C158.164 135.317 159.02 135.671 159.871 136.031L159.878 136.034C160.995 136.506 162.146 136.991 163.235 136.729C164.864 136.332 165.446 134.264 165.832 132.891L165.833 132.889L166.019 132.235C166.563 130.335 166.747 129.695 168.826 129.581C170.452 129.5 171.855 130.061 173.525 130.809C174.673 131.325 175.892 131.551 177.073 131.769L177.077 131.77C178.884 132.103 180.591 132.419 181.919 133.722C182.312 134.108 182.564 134.559 182.829 135.036L182.845 135.064C183.149 135.607 183.464 136.168 184.008 136.676C186.788 139.274 191.056 138.094 194.173 137.231C194.559 137.125 194.931 137.022 195.287 136.929C197.364 136.392 198.597 136.599 199.059 137.562C199.353 138.176 199.487 138.718 199.606 139.197C199.962 140.639 200.292 141.507 202.997 141.507C204.623 141.5 205.602 140.854 206.641 140.168L206.642 140.167C207.217 139.788 207.812 139.397 208.568 139.083C209.318 138.774 209.983 138.439 210.625 138.115L210.713 138.071C210.772 138.041 210.832 138.011 210.892 137.981C211.225 137.815 211.563 137.645 211.92 137.476C212.999 136.966 214.239 136.613 215.467 136.285V136.301C215.509 136.936 215.525 137.227 215.13 137.727C214.686 138.286 213.805 138.563 212.871 138.857L212.855 138.862C211.806 139.19 210.724 139.53 210.001 140.332C209.127 141.306 209.031 142.555 208.938 143.763L208.938 143.767C208.822 145.3 208.719 146.624 207.159 147.382C206.544 147.682 205.821 147.659 205.051 147.633C204.098 147.601 203.111 147.568 202.193 148.133C200.936 148.908 200.132 150.01 199.867 151.322C199.566 152.804 199.978 154.516 200.967 155.9C203.355 159.242 203.102 160.473 199.462 163.215C198.078 164.259 197.81 164.727 197.164 165.862L197.054 166.053C196.847 166.416 196.808 166.748 196.778 167.016L196.778 167.016C196.745 167.295 196.722 167.495 196.522 167.758C196.173 168.214 194.724 168.873 194.001 169.201L193.973 169.214L193.591 169.388C192.479 169.907 191.637 169.721 190.663 169.504L190.659 169.504C189.86 169.327 188.959 169.128 187.876 169.351C186.971 169.537 185.078 170.688 184.827 171.933C184.638 172.868 184.631 173.314 185.348 173.666L185.353 173.668C185.51 173.747 185.688 173.836 185.934 174.061C186.469 174.555 186.991 174.831 187.45 175.075L187.455 175.077C188.113 175.424 188.588 175.678 188.921 176.443C189.473 177.718 188.969 180.063 188.523 182.138L188.52 182.148L188.516 182.17C188.204 183.623 187.909 184.994 187.918 186.103C187.939 188.947 187.797 189.024 185.42 190.308L184.941 190.566C182.047 192.115 181.938 192.441 183.245 195.523L183.352 195.774C183.843 196.935 183.741 198.091 183.082 198.793C182.41 199.51 181.266 199.658 179.94 199.2C178.605 198.737 177.944 198 177.363 197.351L177.363 197.351C176.158 196.009 175.204 195.293 172.071 196.658C171.262 197.012 170.655 197.395 170.12 197.733L170.11 197.739C169.233 198.295 168.54 198.733 167.228 198.937C166.445 199.061 165.696 199.079 164.972 199.096H164.972C163.102 199.14 161.327 199.182 159.981 201.135C159.696 200.895 159.391 200.609 159.075 200.313L159.022 200.263L159.017 200.258C157.459 198.793 155.329 196.79 153.138 198.23C152.061 198.94 151.875 199.996 151.726 200.845C151.589 201.64 151.477 202.145 150.991 202.491C150.226 203.04 148.939 203.024 147.579 203.003L147.546 203.003C145.942 202.984 144.129 202.963 142.801 203.938C141.719 204.731 141.073 206.264 140.503 207.618C140.301 208.104 140.105 208.567 139.903 208.967C138.638 209.214 135.686 210.235 134.869 211.142C134.002 212.109 134.053 213.219 134.1 214.198L134.1 214.211C134.133 214.93 134.163 215.609 133.893 216.282C133.095 218.275 131.706 218.452 129.68 218.499C126.333 218.573 125.614 219.459 123.842 222.248C121.818 225.433 119.116 227.047 115.331 227.326L115.031 227.347L115.024 227.347C113.673 227.44 111.827 227.567 111.11 228.612C110.8 229.063 110.74 229.608 110.931 230.229C111.39 231.736 113.048 232.077 114.382 232.351L114.387 232.352C114.789 232.434 115.171 232.513 115.478 232.613C115.801 233.648 115.62 234.309 115.414 235.065L115.413 235.069L115.412 235.071C115.243 235.689 115.05 236.391 115.166 237.293C115.308 238.386 115.903 239.058 116.429 239.649L116.432 239.652C116.943 240.228 117.427 240.774 117.567 241.728C117.606 241.996 117.534 242.256 117.45 242.556C117.336 242.961 117.197 243.464 117.341 244.059C117.599 245.124 118.171 245.685 118.725 246.224L118.729 246.229C118.995 246.488 119.245 246.731 119.471 247.039C120.676 248.669 122.237 251.076 121.867 253.151C121.723 253.954 121.493 254.493 121.288 254.968C120.786 256.142 120.562 256.894 121.814 258.701C121.967 258.924 122.125 259.143 122.284 259.359C123.577 261.139 124.182 262.136 122.698 263.637C121.735 264.611 120.063 264.837 118.445 265.055L118.443 265.056Z" fill="#D9D9D9"/>
</svg>
